<svg width="279" height="223" viewBox="0 0 279 223" fill="none" xmlns="http://www.w3.org/2000/svg">
<rect width="279" height="223" fill="#244CB4"/>
<g clip-path="url(#clip0_52_1111)" filter="url(#filter0_d_52_1111)">
<path d="M234.934 48.0669H43.0669V184.467H234.934V48.0669Z" fill="white"/>
<path d="M234.934 48.0669H43.0669V184.467H234.934V48.0669Z" stroke="black" stroke-width="0.133333"/>
<path d="M143.638 82.8H59.5679C55.9406 82.8 53 85.7406 53 89.368V156.033C53 159.66 55.9406 162.6 59.5679 162.6H143.638C147.265 162.6 150.205 159.66 150.205 156.033V89.368C150.205 85.7406 147.265 82.8 143.638 82.8Z" fill="#EFD4FF"/>
<path d="M139.697 128.447C142.78 128.447 145.28 125.948 145.28 122.864C145.28 119.781 142.78 117.282 139.697 117.282C136.614 117.282 134.114 119.781 134.114 122.864C134.114 125.948 136.614 128.447 139.697 128.447Z" fill="white" fill-opacity="0.5"/>
<path d="M62.8518 128.447C65.9351 128.447 68.4345 125.948 68.4345 122.864C68.4345 119.781 65.9351 117.282 62.8518 117.282C59.7685 117.282 57.269 119.781 57.269 122.864C57.269 125.948 59.7685 128.447 62.8518 128.447Z" fill="white" fill-opacity="0.5"/>
<path d="M137.726 122.864H141.667M141.667 122.864L140.189 120.894M141.667 122.864L140.189 124.835" stroke="#333333" stroke-width="0.492595" stroke-linecap="round" stroke-linejoin="round"/>
<path d="M64.8221 122.864H60.8813M60.8813 122.864L62.3592 124.835M60.8813 122.864L62.3592 120.894" stroke="#333333" stroke-width="0.492595" stroke-linecap="round" stroke-linejoin="round"/>
<path d="M164.667 91.9846C164.156 91.9846 163.68 91.8961 163.241 91.7191C162.808 91.5421 162.431 91.2962 162.11 90.9815C161.789 90.6669 161.536 90.2965 161.353 89.8703C161.176 89.4377 161.087 88.9722 161.087 88.4739C161.087 87.9757 161.176 87.5134 161.353 87.0873C161.536 86.6546 161.789 86.2809 162.11 85.9662C162.431 85.6515 162.808 85.4057 163.241 85.2287C163.68 85.0517 164.156 84.9631 164.667 84.9631C165.132 84.9631 165.565 85.0386 165.965 85.1894C166.372 85.3401 166.729 85.5499 167.037 85.8187C167.352 86.081 167.611 86.3957 167.814 86.7627C168.017 87.1299 168.148 87.5298 168.207 87.9625H166.801C166.742 87.7134 166.647 87.4873 166.516 87.2839C166.391 87.0742 166.234 86.8939 166.044 86.7431C165.86 86.5923 165.65 86.4775 165.414 86.3989C165.185 86.3137 164.936 86.2711 164.667 86.2711C164.352 86.2711 164.061 86.3269 163.792 86.4382C163.53 86.5497 163.3 86.7038 163.103 86.9005C162.907 87.0971 162.753 87.3299 162.641 87.5986C162.53 87.8674 162.474 88.1591 162.474 88.4739C162.474 88.7886 162.53 89.0803 162.641 89.3491C162.753 89.6179 162.907 89.8506 163.103 90.0473C163.3 90.2439 163.53 90.3981 163.792 90.5095C164.061 90.621 164.352 90.6767 164.667 90.6767C164.936 90.6767 165.185 90.6374 165.414 90.5587C165.65 90.4734 165.86 90.3554 166.044 90.2046C166.234 90.0539 166.391 89.8769 166.516 89.6737C166.647 89.4638 166.742 89.2343 166.801 88.9853H168.207C168.148 89.4179 168.017 89.8178 167.814 90.185C167.611 90.5521 167.352 90.8701 167.037 91.1389C166.729 91.4011 166.372 91.6077 165.965 91.7585C165.565 91.9093 165.132 91.9846 164.667 91.9846ZM172.633 91.9846C172.122 91.9846 171.646 91.8961 171.207 91.7191C170.774 91.5421 170.397 91.2962 170.076 90.9815C169.755 90.6669 169.502 90.2965 169.319 89.8703C169.142 89.4377 169.053 88.9722 169.053 88.4739C169.053 87.9757 169.142 87.5134 169.319 87.0873C169.502 86.6546 169.755 86.2809 170.076 85.9662C170.397 85.6515 170.774 85.4057 171.207 85.2287C171.646 85.0517 172.122 84.9631 172.633 84.9631C173.144 84.9631 173.616 85.0517 174.049 85.2287C174.488 85.4057 174.865 85.6515 175.18 85.9662C175.501 86.2809 175.754 86.6546 175.937 87.0873C176.121 87.5134 176.212 87.9757 176.212 88.4739C176.212 88.9722 176.121 89.4377 175.937 89.8703C175.754 90.2965 175.501 90.6669 175.18 90.9815C174.865 91.2962 174.488 91.5421 174.049 91.7191C173.616 91.8961 173.144 91.9846 172.633 91.9846ZM172.633 90.6767C172.941 90.6767 173.226 90.621 173.488 90.5095C173.757 90.3981 173.99 90.2439 174.187 90.0473C174.383 89.8506 174.537 89.6179 174.649 89.3491C174.76 89.0803 174.816 88.7886 174.816 88.4739C174.816 88.1591 174.76 87.8674 174.649 87.5986C174.537 87.3299 174.383 87.0971 174.187 86.9005C173.99 86.7038 173.757 86.5497 173.488 86.4382C173.226 86.3269 172.941 86.2711 172.633 86.2711C172.318 86.2711 172.026 86.3269 171.758 86.4382C171.495 86.5497 171.266 86.7038 171.069 86.9005C170.873 87.0971 170.718 87.3299 170.607 87.5986C170.496 87.8674 170.44 88.1591 170.44 88.4739C170.44 88.7886 170.496 89.0803 170.607 89.3491C170.718 89.6179 170.873 89.8506 171.069 90.0473C171.266 90.2439 171.495 90.3981 171.758 90.5095C172.026 90.621 172.318 90.6767 172.633 90.6767ZM183.261 85.0811V91.8666H181.885L178.797 87.4118V91.8666H177.44V85.0811H178.816L181.904 89.5359V85.0811H183.261ZM190.661 85.0811V91.8666H189.284L186.196 87.4118V91.8666H184.839V85.0811H186.216L189.304 89.5359V85.0811H190.661ZM196.516 90.5882V91.8666H192.239V85.0811H196.516V86.3595H193.596V87.815H196.143V89.0934H193.596V90.5882H196.516ZM200.597 91.9846C200.085 91.9846 199.611 91.8961 199.172 91.7191C198.739 91.5421 198.361 91.2962 198.04 90.9815C197.719 90.6669 197.467 90.2965 197.283 89.8703C197.107 89.4377 197.017 88.9722 197.017 88.4739C197.017 87.9757 197.107 87.5134 197.283 87.0873C197.467 86.6546 197.719 86.2809 198.04 85.9662C198.361 85.6515 198.739 85.4057 199.172 85.2287C199.611 85.0517 200.085 84.9631 200.597 84.9631C201.063 84.9631 201.496 85.0386 201.896 85.1894C202.301 85.3401 202.659 85.5499 202.967 85.8187C203.283 86.081 203.541 86.3957 203.744 86.7627C203.948 87.1299 204.079 87.5298 204.137 87.9625H202.731C202.672 87.7134 202.577 87.4873 202.447 87.2839C202.321 87.0742 202.164 86.8939 201.975 86.7431C201.791 86.5923 201.581 86.4775 201.345 86.3989C201.115 86.3137 200.867 86.2711 200.597 86.2711C200.283 86.2711 199.991 86.3269 199.723 86.4382C199.46 86.5497 199.231 86.7038 199.033 86.9005C198.837 87.0971 198.683 87.3299 198.572 87.5986C198.46 87.8674 198.404 88.1591 198.404 88.4739C198.404 88.7886 198.46 89.0803 198.572 89.3491C198.683 89.6179 198.837 89.8506 199.033 90.0473C199.231 90.2439 199.46 90.3981 199.723 90.5095C199.991 90.621 200.283 90.6767 200.597 90.6767C200.867 90.6767 201.115 90.6374 201.345 90.5587C201.581 90.4734 201.791 90.3554 201.975 90.2046C202.164 90.0539 202.321 89.8769 202.447 89.6737C202.577 89.4638 202.672 89.2343 202.731 88.9853H204.137C204.079 89.4179 203.948 89.8178 203.744 90.185C203.541 90.5521 203.283 90.8701 202.967 91.1389C202.659 91.4011 202.301 91.6077 201.896 91.7585C201.496 91.9093 201.063 91.9846 200.597 91.9846ZM209.263 86.3595H207.513V91.8666H206.156V86.3595H204.405V85.0811H209.263V86.3595Z" fill="#333333"/>
<path d="M161.756 152.3H162.469V155.078H163.988V155.742H161.756V152.3ZM165.68 154.916L166.349 155.014C166.201 155.53 165.813 155.801 165.233 155.791C164.529 155.791 164.102 155.353 164.102 154.537C164.102 153.672 164.529 153.234 165.233 153.234C165.808 153.234 166.408 153.539 166.378 154.704H164.77C164.79 154.925 164.874 155.176 165.233 155.176C165.508 155.176 165.641 155.088 165.68 154.916ZM165.233 153.849C164.952 153.849 164.839 154.026 164.795 154.227H165.675C165.601 153.927 165.424 153.849 165.233 153.849ZM167.246 154.158L166.641 153.957C166.769 153.583 167.133 153.234 167.747 153.234C168.49 153.234 168.81 153.819 168.81 154.394V155.742H168.441C168.342 155.742 168.224 155.393 168.17 155.152C168.082 155.54 167.88 155.791 167.433 155.791C166.892 155.791 166.518 155.442 166.518 154.94C166.518 154.301 167.389 154.252 168.136 154.247C168.106 154.021 167.988 153.849 167.747 153.849C167.472 153.849 167.339 153.952 167.246 154.158ZM167.182 154.901C167.182 155.044 167.266 155.201 167.571 155.201C167.89 155.201 168.052 155.024 168.116 154.67C167.556 154.675 167.182 154.714 167.182 154.901ZM169.173 155.742V153.283H169.542C169.635 153.283 169.743 153.593 169.803 153.829C169.925 153.465 170.171 153.234 170.599 153.234V153.898C170.171 153.898 169.837 154.144 169.837 154.773V155.742H169.173ZM170.812 155.742V153.283H171.181C171.274 153.283 171.387 153.598 171.441 153.834C171.52 153.47 171.707 153.234 172.139 153.234C172.916 153.234 173.123 153.849 173.123 154.512V155.742H172.459V154.512C172.459 154.139 172.307 153.849 172.002 153.849C171.574 153.849 171.476 154.144 171.476 154.773V155.742H170.812ZM174.421 155.742V153.283H174.789C174.883 153.283 174.996 153.598 175.05 153.834C175.129 153.47 175.316 153.234 175.748 153.234C176.304 153.234 176.569 153.549 176.673 153.972C176.737 153.529 176.913 153.234 177.396 153.234C178.172 153.234 178.379 153.849 178.379 154.512V155.742H177.715V154.512C177.715 154.139 177.563 153.849 177.257 153.849C176.831 153.849 176.732 154.144 176.732 154.773V155.742H176.068V154.512C176.068 154.139 175.915 153.849 175.611 153.849C175.183 153.849 175.084 154.144 175.084 154.773V155.742H174.421ZM178.597 154.537C178.597 153.672 179.024 153.234 179.748 153.234C180.471 153.234 180.897 153.672 180.897 154.537C180.897 155.353 180.471 155.791 179.748 155.791C179.024 155.791 178.597 155.353 178.597 154.537ZM179.748 155.176C180.195 155.176 180.235 154.763 180.235 154.537C180.235 154.262 180.195 153.849 179.748 153.849C179.3 153.849 179.26 154.262 179.26 154.537C179.26 154.763 179.3 155.176 179.748 155.176ZM181.141 155.742V153.283H181.509C181.603 153.283 181.712 153.593 181.771 153.829C181.893 153.465 182.139 153.234 182.567 153.234V153.898C182.139 153.898 181.805 154.144 181.805 154.773V155.742H181.141ZM184.235 154.916L184.904 155.014C184.756 155.53 184.368 155.801 183.788 155.791C183.085 155.791 182.657 155.353 182.657 154.537C182.657 153.672 183.085 153.234 183.788 153.234C184.363 153.234 184.963 153.539 184.933 154.704H183.325C183.345 154.925 183.429 155.176 183.788 155.176C184.063 155.176 184.196 155.088 184.235 154.916ZM183.788 153.849C183.508 153.849 183.395 154.026 183.351 154.227H184.231C184.156 153.927 183.98 153.849 183.788 153.849Z" fill="#333333"/>
<path d="M160.964 99.2191H161.241V101.022H162.188V101.284H160.964V99.2191ZM162.225 100.561C162.225 100.042 162.467 99.7797 162.883 99.7797C163.299 99.7797 163.547 100.042 163.547 100.561C163.547 101.051 163.299 101.314 162.883 101.314C162.467 101.314 162.225 101.051 162.225 100.561ZM162.883 101.072C163.175 101.072 163.287 100.851 163.287 100.561C163.287 100.243 163.175 100.019 162.883 100.019C162.597 100.019 162.485 100.243 162.485 100.561C162.485 100.851 162.597 101.072 162.883 101.072ZM163.634 100.561C163.634 100.042 163.875 99.7797 164.291 99.7797C164.707 99.7797 164.955 100.042 164.955 100.561C164.955 101.051 164.707 101.314 164.291 101.314C163.875 101.314 163.634 101.051 163.634 100.561ZM164.291 101.072C164.583 101.072 164.696 100.851 164.696 100.561C164.696 100.243 164.583 100.019 164.291 100.019C164.005 100.019 163.893 100.243 163.893 100.561C163.893 100.851 164.005 101.072 164.291 101.072ZM165.136 99.2191H165.396V100.435L165.986 99.8091H166.307L165.717 100.435L166.393 101.284H166.074L165.517 100.591L165.396 100.712V101.284H165.136V99.2191ZM166.446 99.3843C166.446 99.2693 166.502 99.2102 166.626 99.2102C166.738 99.2102 166.8 99.2693 166.8 99.3843C166.8 99.4875 166.738 99.5525 166.626 99.5525C166.502 99.5525 166.446 99.4875 166.446 99.3843ZM166.496 99.8091H166.752V101.284H166.496V99.8091ZM167.039 101.284V99.8091H167.19C167.231 99.8091 167.284 100.016 167.296 100.134C167.358 99.9094 167.491 99.7797 167.747 99.7797C168.158 99.7797 168.311 100.116 168.311 100.55V101.284H168.054V100.55C168.054 100.272 167.954 100.019 167.7 100.019C167.399 100.019 167.299 100.234 167.299 100.644V101.284H167.039ZM169.749 101.284C169.749 101.677 169.513 101.889 169.114 101.889C168.752 101.889 168.563 101.668 168.533 101.417L168.79 101.408C168.816 101.55 168.902 101.688 169.141 101.688C169.377 101.688 169.489 101.547 169.489 101.284V100.977C169.424 101.193 169.294 101.317 169.044 101.317C168.634 101.317 168.477 100.98 168.477 100.55V100.547C168.477 100.113 168.634 99.7797 169.044 99.7797C169.297 99.7797 169.427 99.9065 169.492 100.131C169.504 100.01 169.557 99.8091 169.598 99.8091H169.749V101.284ZM169.091 100.019C168.834 100.019 168.737 100.272 168.737 100.547C168.737 100.824 168.834 101.075 169.091 101.075C169.365 101.075 169.471 100.895 169.489 100.547C169.471 100.202 169.365 100.019 169.091 100.019ZM170.46 99.8091H170.734V99.8062C170.734 99.7089 170.793 99.4374 170.843 99.4374H170.994V99.8091H171.392V100.048H170.994V100.8C170.994 100.936 170.991 101.042 171.182 101.042H171.392V101.284H171.073C170.808 101.284 170.734 101.087 170.734 100.783V100.048H170.46V99.8091ZM171.46 100.561C171.46 100.042 171.702 99.7797 172.118 99.7797C172.534 99.7797 172.782 100.042 172.782 100.561C172.782 101.051 172.534 101.314 172.118 101.314C171.702 101.314 171.46 101.051 171.46 100.561ZM172.118 101.072C172.41 101.072 172.522 100.851 172.522 100.561C172.522 100.243 172.41 100.019 172.118 100.019C171.832 100.019 171.72 100.243 171.72 100.561C171.72 100.851 171.832 101.072 172.118 101.072ZM173.52 99.3843C173.52 99.2693 173.576 99.2102 173.7 99.2102C173.812 99.2102 173.874 99.2693 173.874 99.3843C173.874 99.4875 173.812 99.5525 173.7 99.5525C173.576 99.5525 173.52 99.4875 173.52 99.3843ZM173.57 99.8091H173.827V101.284H173.57V99.8091ZM174.114 101.284V99.8091H174.264C174.306 99.8091 174.359 100.016 174.371 100.134C174.433 99.9094 174.565 99.7797 174.822 99.7797C175.232 99.7797 175.386 100.116 175.386 100.55V101.284H175.129V100.55C175.129 100.272 175.029 100.019 174.775 100.019C174.474 100.019 174.374 100.234 174.374 100.644V101.284H174.114ZM175.496 99.8091H175.77V99.8062C175.77 99.7089 175.829 99.4374 175.879 99.4374H176.03V99.8091H176.428V100.048H176.03V100.8C176.03 100.936 176.027 101.042 176.219 101.042H176.428V101.284H176.109C175.844 101.284 175.77 101.087 175.77 100.783V100.048H175.496V99.8091ZM177.496 100.845L177.742 100.88C177.662 101.148 177.464 101.32 177.134 101.314C176.771 101.314 176.514 101.054 176.514 100.553C176.514 100.036 176.771 99.7797 177.134 99.7797C177.452 99.7797 177.768 99.9655 177.759 100.594H176.759C176.768 100.827 176.856 101.084 177.134 101.084C177.36 101.084 177.45 100.972 177.496 100.845ZM177.134 100.007C176.903 100.007 176.803 100.187 176.771 100.387H177.499C177.462 100.101 177.311 100.007 177.134 100.007ZM179.147 101.284C179.147 101.677 178.911 101.889 178.514 101.889C178.15 101.889 177.962 101.668 177.932 101.417L178.188 101.408C178.215 101.55 178.3 101.688 178.539 101.688C178.775 101.688 178.888 101.547 178.888 101.284V100.977C178.823 101.193 178.694 101.317 178.442 101.317C178.032 101.317 177.876 100.98 177.876 100.55V100.547C177.876 100.113 178.032 99.7797 178.442 99.7797C178.696 99.7797 178.826 99.9065 178.891 100.131C178.903 100.01 178.955 99.8091 178.996 99.8091H179.147V101.284ZM178.49 100.019C178.232 100.019 178.135 100.272 178.135 100.547C178.135 100.824 178.232 101.075 178.49 101.075C178.764 101.075 178.87 100.895 178.888 100.547C178.87 100.202 178.764 100.019 178.49 100.019ZM179.412 101.284V99.8091H179.56C179.608 99.8091 179.664 100.039 179.672 100.154C179.755 99.9153 179.915 99.7797 180.18 99.7797V100.039C179.879 100.039 179.687 100.234 179.672 100.644V101.284H179.412ZM180.498 100.281L180.259 100.207C180.327 99.9655 180.536 99.7797 180.875 99.7797C181.259 99.7797 181.462 100.063 181.459 100.393V101.284H181.312C181.262 101.284 181.208 101.048 181.199 100.936C181.132 101.175 180.987 101.314 180.724 101.314C180.4 101.314 180.184 101.116 180.184 100.842C180.184 100.42 180.799 100.408 181.199 100.408V100.384C181.199 100.172 181.087 100.019 180.875 100.019C180.668 100.019 180.551 100.107 180.498 100.281ZM180.444 100.833C180.444 100.966 180.554 101.081 180.76 101.081C181.035 101.081 181.167 100.91 181.194 100.582C180.863 100.585 180.444 100.597 180.444 100.833ZM181.555 99.8091H181.83V99.8062C181.83 99.7089 181.888 99.4374 181.938 99.4374H182.088V99.8091H182.487V100.048H182.088V100.8C182.088 100.936 182.086 101.042 182.278 101.042H182.487V101.284H182.168C181.903 101.284 181.83 101.087 181.83 100.783V100.048H181.555V99.8091ZM183.555 100.845L183.8 100.88C183.72 101.148 183.523 101.32 183.192 101.314C182.83 101.314 182.572 101.054 182.572 100.553C182.572 100.036 182.83 99.7797 183.192 99.7797C183.511 99.7797 183.827 99.9655 183.818 100.594H182.818C182.827 100.827 182.915 101.084 183.192 101.084C183.419 101.084 183.508 100.972 183.555 100.845ZM183.192 100.007C182.962 100.007 182.862 100.187 182.83 100.387H183.558C183.52 100.101 183.37 100.007 183.192 100.007ZM184.524 101.874V101.632H184.68C184.855 101.632 184.899 101.582 184.935 101.485L185.023 101.246L184.466 99.8091H184.728L185.144 100.912L185.546 99.8091H185.808L185.162 101.582C185.091 101.78 184.97 101.874 184.787 101.874H184.524ZM185.82 100.561C185.82 100.042 186.063 99.7797 186.479 99.7797C186.895 99.7797 187.142 100.042 187.142 100.561C187.142 101.051 186.895 101.314 186.479 101.314C186.063 101.314 185.82 101.051 185.82 100.561ZM186.479 101.072C186.771 101.072 186.883 100.851 186.883 100.561C186.883 100.243 186.771 100.019 186.479 100.019C186.192 100.019 186.08 100.243 186.08 100.561C186.08 100.851 186.192 101.072 186.479 101.072ZM187.539 100.544C187.539 100.818 187.636 101.072 187.892 101.072C188.191 101.072 188.291 100.859 188.291 100.449V99.8091H188.551V101.284H188.4C188.359 101.284 188.306 101.078 188.294 100.96C188.232 101.184 188.099 101.314 187.846 101.314C187.432 101.314 187.279 100.977 187.279 100.55V99.8091H187.539V100.544ZM188.827 101.284V99.8091H188.974C189.022 99.8091 189.078 100.039 189.086 100.154C189.168 99.9153 189.328 99.7797 189.594 99.7797V100.039C189.292 100.039 189.1 100.234 189.086 100.644V101.284H188.827ZM190.504 100.281L190.264 100.207C190.332 99.9655 190.542 99.7797 190.882 99.7797C191.266 99.7797 191.468 100.063 191.466 100.393V101.284H191.318C191.268 101.284 191.215 101.048 191.206 100.936C191.138 101.175 190.994 101.314 190.731 101.314C190.407 101.314 190.191 101.116 190.191 100.842C190.191 100.42 190.804 100.408 191.206 100.408V100.384C191.206 100.172 191.094 100.019 190.882 100.019C190.675 100.019 190.558 100.107 190.504 100.281ZM190.451 100.833C190.451 100.966 190.56 101.081 190.767 101.081C191.04 101.081 191.174 100.91 191.2 100.582C190.87 100.585 190.451 100.597 190.451 100.833ZM192.003 101.874H191.743V99.8091H191.891C191.935 99.8091 191.986 100.004 192 100.125C192.062 99.9035 192.195 99.7797 192.446 99.7797C192.859 99.7797 193.012 100.116 193.012 100.547V100.55C193.012 100.98 192.855 101.317 192.446 101.317C192.198 101.317 192.068 101.196 192.003 100.986V101.874ZM192.398 100.019C192.132 100.019 192.023 100.19 192.003 100.517V100.579C192.023 100.904 192.132 101.075 192.398 101.075C192.655 101.075 192.752 100.821 192.752 100.547C192.752 100.272 192.655 100.019 192.398 100.019ZM193.463 101.874H193.203V99.8091H193.351C193.395 99.8091 193.446 100.004 193.46 100.125C193.522 99.9035 193.655 99.7797 193.906 99.7797C194.319 99.7797 194.472 100.116 194.472 100.547V100.55C194.472 100.98 194.315 101.317 193.906 101.317C193.658 101.317 193.528 101.196 193.463 100.986V101.874ZM193.858 100.019C193.592 100.019 193.483 100.19 193.463 100.517V100.579C193.483 100.904 193.592 101.075 193.858 101.075C194.115 101.075 194.212 100.821 194.212 100.547C194.212 100.272 194.115 100.019 193.858 100.019ZM194.663 99.2191H194.923V101.284H194.663V99.2191ZM195.166 99.3843C195.166 99.2693 195.222 99.2102 195.346 99.2102C195.458 99.2102 195.52 99.2693 195.52 99.3843C195.52 99.4875 195.458 99.5525 195.346 99.5525C195.222 99.5525 195.166 99.4875 195.166 99.3843ZM195.216 99.8091H195.474V101.284H195.216V99.8091ZM196.294 101.314C195.922 101.314 195.666 101.054 195.666 100.556C195.666 100.036 195.922 99.7797 196.294 99.7797C196.642 99.7797 196.848 99.9595 196.919 100.272L196.666 100.308C196.619 100.151 196.532 100.019 196.294 100.019C196.002 100.019 195.926 100.308 195.926 100.556C195.926 100.786 196.002 101.072 196.294 101.072C196.542 101.072 196.624 100.924 196.666 100.786L196.919 100.827C196.851 101.131 196.646 101.317 196.294 101.314ZM197.266 100.281L197.026 100.207C197.094 99.9655 197.303 99.7797 197.643 99.7797C198.026 99.7797 198.23 100.063 198.227 100.393V101.284H198.079C198.03 101.284 197.976 101.048 197.967 100.936C197.899 101.175 197.755 101.314 197.492 101.314C197.168 101.314 196.952 101.116 196.952 100.842C196.952 100.42 197.566 100.408 197.967 100.408V100.384C197.967 100.172 197.855 100.019 197.643 100.019C197.436 100.019 197.318 100.107 197.266 100.281ZM197.212 100.833C197.212 100.966 197.322 101.081 197.528 101.081C197.802 101.081 197.935 100.91 197.962 100.582C197.631 100.585 197.212 100.597 197.212 100.833ZM198.323 99.8091H198.596V99.8062C198.596 99.7089 198.656 99.4374 198.706 99.4374H198.856V99.8091H199.255V100.048H198.856V100.8C198.856 100.936 198.854 101.042 199.046 101.042H199.255V101.284H198.936C198.671 101.284 198.596 101.087 198.596 100.783V100.048H198.323V99.8091ZM199.382 99.3843C199.382 99.2693 199.438 99.2102 199.562 99.2102C199.674 99.2102 199.736 99.2693 199.736 99.3843C199.736 99.4875 199.674 99.5525 199.562 99.5525C199.438 99.5525 199.382 99.4875 199.382 99.3843ZM199.432 99.8091H199.688V101.284H199.432V99.8091ZM199.882 100.561C199.882 100.042 200.123 99.7797 200.539 99.7797C200.955 99.7797 201.203 100.042 201.203 100.561C201.203 101.051 200.955 101.314 200.539 101.314C200.123 101.314 199.882 101.051 199.882 100.561ZM200.539 101.072C200.831 101.072 200.943 100.851 200.943 100.561C200.943 100.243 200.831 100.019 200.539 100.019C200.252 100.019 200.14 100.243 200.14 100.561C200.14 100.851 200.252 101.072 200.539 101.072ZM201.384 101.284V99.8091H201.534C201.575 99.8091 201.628 100.016 201.64 100.134C201.703 99.9094 201.835 99.7797 202.092 99.7797C202.502 99.7797 202.655 100.116 202.655 100.55V101.284H202.399V100.55C202.399 100.272 202.299 100.019 202.044 100.019C201.744 100.019 201.643 100.234 201.643 100.644V101.284H201.384ZM161.179 104.218L160.79 102.742H161.061L161.356 103.949L161.681 102.742H161.887L162.209 103.946L162.504 102.742H162.778L162.389 104.218H162.055L161.784 103.144L161.512 104.218H161.179ZM162.866 102.318C162.866 102.203 162.922 102.144 163.046 102.144C163.158 102.144 163.22 102.203 163.22 102.318C163.22 102.421 163.158 102.486 163.046 102.486C162.922 102.486 162.866 102.421 162.866 102.318ZM162.916 102.742H163.173V104.218H162.916V102.742ZM163.312 102.742H163.587V102.74C163.587 102.642 163.646 102.371 163.696 102.371H163.846V102.742H164.245V102.981H163.846V103.734C163.846 103.869 163.844 103.976 164.035 103.976H164.245V104.218H163.926C163.661 104.218 163.587 104.02 163.587 103.716V102.981H163.312V102.742ZM165.422 103.483C165.422 103.206 165.322 102.952 165.068 102.952C164.767 102.952 164.667 103.167 164.667 103.577V104.218H164.407V102.152H164.667V103.055C164.732 102.837 164.862 102.713 165.115 102.713C165.525 102.713 165.679 103.049 165.679 103.483V104.218H165.422V103.483ZM166.73 103.214L166.491 103.141C166.559 102.899 166.768 102.713 167.108 102.713C167.491 102.713 167.695 102.996 167.692 103.327V104.218H167.544C167.494 104.218 167.441 103.982 167.432 103.869C167.364 104.108 167.22 104.247 166.957 104.247C166.633 104.247 166.417 104.049 166.417 103.775C166.417 103.353 167.031 103.341 167.432 103.341V103.318C167.432 103.105 167.32 102.952 167.108 102.952C166.901 102.952 166.783 103.04 166.73 103.214ZM166.677 103.766C166.677 103.899 166.786 104.014 166.993 104.014C167.267 104.014 167.4 103.843 167.426 103.515C167.096 103.518 166.677 103.53 166.677 103.766ZM168.713 104.218H168.562V102.152H168.822V103.04C168.887 102.831 169.017 102.71 169.264 102.71C169.677 102.71 169.831 103.046 169.831 103.477V103.48C169.831 103.914 169.674 104.247 169.264 104.247C169.014 104.247 168.881 104.123 168.819 103.902C168.804 104.023 168.754 104.218 168.713 104.218ZM169.217 102.952C168.952 102.952 168.842 103.123 168.822 103.448V103.51C168.842 103.837 168.952 104.005 169.217 104.005C169.474 104.005 169.571 103.751 169.571 103.48C169.571 103.203 169.474 102.952 169.217 102.952ZM170.022 102.152H170.282V104.218H170.022V102.152ZM170.466 103.495C170.466 102.976 170.708 102.713 171.124 102.713C171.54 102.713 171.788 102.976 171.788 103.495C171.788 103.984 171.54 104.247 171.124 104.247C170.708 104.247 170.466 103.984 170.466 103.495ZM171.124 104.005C171.416 104.005 171.528 103.784 171.528 103.495C171.528 103.176 171.416 102.952 171.124 102.952C170.838 102.952 170.726 103.176 170.726 103.495C170.726 103.784 170.838 104.005 171.124 104.005ZM173.149 104.218C173.149 104.61 172.913 104.822 172.515 104.822C172.152 104.822 171.963 104.601 171.933 104.35L172.19 104.341C172.217 104.483 172.302 104.622 172.541 104.622C172.777 104.622 172.889 104.48 172.889 104.218V103.911C172.824 104.126 172.695 104.25 172.444 104.25C172.034 104.25 171.877 103.914 171.877 103.483V103.48C171.877 103.046 172.034 102.713 172.444 102.713C172.698 102.713 172.827 102.84 172.892 103.064C172.904 102.943 172.957 102.742 172.998 102.742H173.149V104.218ZM172.491 102.952C172.234 102.952 172.137 103.206 172.137 103.48C172.137 103.757 172.234 104.008 172.491 104.008C172.765 104.008 172.872 103.828 172.889 103.48C172.872 103.135 172.765 102.952 172.491 102.952ZM173.913 103.495C173.913 102.976 174.155 102.713 174.571 102.713C174.987 102.713 175.235 102.976 175.235 103.495C175.235 103.984 174.987 104.247 174.571 104.247C174.155 104.247 173.913 103.984 173.913 103.495ZM174.571 104.005C174.863 104.005 174.975 103.784 174.975 103.495C174.975 103.176 174.863 102.952 174.571 102.952C174.285 102.952 174.173 103.176 174.173 103.495C174.173 103.784 174.285 104.005 174.571 104.005ZM175.416 104.218V102.742H175.563C175.61 102.742 175.666 102.973 175.675 103.088C175.758 102.849 175.917 102.713 176.183 102.713V102.973C175.882 102.973 175.69 103.167 175.675 103.577V104.218H175.416ZM177.152 104.808H176.892V102.742H177.04C177.084 102.742 177.135 102.937 177.15 103.058C177.211 102.837 177.344 102.713 177.595 102.713C178.008 102.713 178.162 103.049 178.162 103.48V103.483C178.162 103.914 178.004 104.25 177.595 104.25C177.347 104.25 177.218 104.129 177.152 103.92V104.808ZM177.547 102.952C177.282 102.952 177.172 103.123 177.152 103.45V103.512C177.172 103.837 177.282 104.008 177.547 104.008C177.804 104.008 177.902 103.754 177.902 103.48C177.902 103.206 177.804 102.952 177.547 102.952ZM179.259 103.778L179.503 103.813C179.423 104.082 179.226 104.253 178.895 104.247C178.532 104.247 178.276 103.987 178.276 103.486C178.276 102.97 178.532 102.713 178.895 102.713C179.214 102.713 179.53 102.899 179.522 103.527H178.52C178.53 103.76 178.618 104.017 178.895 104.017C179.123 104.017 179.211 103.905 179.259 103.778ZM178.895 102.94C178.666 102.94 178.566 103.12 178.532 103.321H179.262C179.223 103.034 179.072 102.94 178.895 102.94ZM179.73 104.218V102.742H179.876C179.924 102.742 179.98 102.973 179.988 103.088C180.071 102.849 180.231 102.713 180.496 102.713V102.973C180.195 102.973 180.004 103.167 179.988 103.577V104.218H179.73ZM181.139 104.244C180.804 104.244 180.58 104.091 180.492 103.816L180.738 103.746C180.796 103.922 180.95 104.005 181.142 104.005C181.324 104.005 181.427 103.94 181.427 103.816C181.427 103.663 181.236 103.616 181.071 103.574C180.782 103.512 180.546 103.409 180.546 103.135C180.546 102.866 180.743 102.713 181.098 102.713C181.422 102.713 181.611 102.872 181.69 103.141L181.448 103.203C181.39 103.011 181.259 102.952 181.079 102.952C180.911 102.952 180.804 103.02 180.804 103.141C180.804 103.291 180.982 103.33 181.154 103.371C181.436 103.436 181.684 103.521 181.684 103.808C181.684 104.073 181.48 104.244 181.139 104.244ZM181.771 103.495C181.771 102.976 182.014 102.713 182.43 102.713C182.846 102.713 183.094 102.976 183.094 103.495C183.094 103.984 182.846 104.247 182.43 104.247C182.014 104.247 181.771 103.984 181.771 103.495ZM182.43 104.005C182.722 104.005 182.834 103.784 182.834 103.495C182.834 103.176 182.722 102.952 182.43 102.952C182.143 102.952 182.031 103.176 182.031 103.495C182.031 103.784 182.143 104.005 182.43 104.005ZM183.274 104.218V102.742H183.424C183.466 102.742 183.519 102.949 183.531 103.067C183.592 102.843 183.726 102.713 183.982 102.713C184.392 102.713 184.546 103.049 184.546 103.483V104.218H184.29V103.483C184.29 103.206 184.188 102.952 183.935 102.952C183.634 102.952 183.534 103.167 183.534 103.577V104.218H183.274ZM185.004 103.214L184.766 103.141C184.832 102.899 185.043 102.713 185.382 102.713C185.766 102.713 185.968 102.996 185.966 103.327V104.218H185.818C185.768 104.218 185.715 103.982 185.706 103.869C185.638 104.108 185.494 104.247 185.231 104.247C184.907 104.247 184.691 104.049 184.691 103.775C184.691 103.353 185.304 103.341 185.706 103.341V103.318C185.706 103.105 185.594 102.952 185.382 102.952C185.175 102.952 185.058 103.04 185.004 103.214ZM184.951 103.766C184.951 103.899 185.06 104.014 185.267 104.014C185.54 104.014 185.674 103.843 185.7 103.515C185.37 103.518 184.951 103.53 184.951 103.766ZM186.243 102.152H186.503V104.218H186.243V102.152ZM187.607 104.218L187.218 102.742H187.49L187.784 103.949L188.11 102.742H188.315L188.638 103.946L188.932 102.742H189.207L188.818 104.218H188.484L188.212 103.144L187.94 104.218H187.607ZM190.236 103.778L190.48 103.813C190.402 104.082 190.203 104.253 189.872 104.247C189.51 104.247 189.254 103.987 189.254 103.486C189.254 102.97 189.51 102.713 189.872 102.713C190.191 102.713 190.507 102.899 190.499 103.527H189.498C189.507 103.76 189.595 104.017 189.872 104.017C190.1 104.017 190.188 103.905 190.236 103.778ZM189.872 102.94C189.643 102.94 189.543 103.12 189.51 103.321H190.239C190.2 103.034 190.05 102.94 189.872 102.94ZM190.858 104.218H190.707V102.152H190.966V103.04C191.031 102.831 191.16 102.71 191.408 102.71C191.822 102.71 191.975 103.046 191.975 103.477V103.48C191.975 103.914 191.819 104.247 191.408 104.247C191.158 104.247 191.026 104.123 190.963 103.902C190.948 104.023 190.899 104.218 190.858 104.218ZM191.362 102.952C191.096 102.952 190.987 103.123 190.966 103.448V103.51C190.987 103.837 191.096 104.005 191.362 104.005C191.618 104.005 191.715 103.751 191.715 103.48C191.715 103.203 191.618 102.952 191.362 102.952ZM192.692 104.244C192.359 104.244 192.134 104.091 192.046 103.816L192.291 103.746C192.35 103.922 192.503 104.005 192.695 104.005C192.878 104.005 192.982 103.94 192.982 103.816C192.982 103.663 192.79 103.616 192.624 103.574C192.335 103.512 192.099 103.409 192.099 103.135C192.099 102.866 192.296 102.713 192.651 102.713C192.975 102.713 193.164 102.872 193.243 103.141L193.002 103.203C192.943 103.011 192.812 102.952 192.632 102.952C192.464 102.952 192.359 103.02 192.359 103.141C192.359 103.291 192.535 103.33 192.707 103.371C192.99 103.436 193.238 103.521 193.238 103.808C193.238 104.073 193.034 104.244 192.692 104.244ZM193.384 102.318C193.384 102.203 193.44 102.144 193.564 102.144C193.676 102.144 193.738 102.203 193.738 102.318C193.738 102.421 193.676 102.486 193.564 102.486C193.44 102.486 193.384 102.421 193.384 102.318ZM193.434 102.742H193.691V104.218H193.434V102.742ZM193.83 102.742H194.104V102.74C194.104 102.642 194.163 102.371 194.214 102.371H194.364V102.742H194.763V102.981H194.364V103.734C194.364 103.869 194.362 103.976 194.554 103.976H194.763V104.218H194.444C194.179 104.218 194.104 104.02 194.104 103.716V102.981H193.83V102.742ZM195.831 103.778L196.075 103.813C195.996 104.082 195.798 104.253 195.468 104.247C195.106 104.247 194.848 103.987 194.848 103.486C194.848 102.97 195.106 102.713 195.468 102.713C195.787 102.713 196.102 102.899 196.094 103.527H195.094C195.102 103.76 195.191 104.017 195.468 104.017C195.695 104.017 195.783 103.905 195.831 103.778ZM195.468 102.94C195.238 102.94 195.138 103.12 195.106 103.321H195.834C195.795 103.034 195.644 102.94 195.468 102.94ZM196.431 102.784L196.154 102.766C196.178 102.43 196.382 102.135 196.82 102.135C197.243 102.135 197.438 102.421 197.438 102.731C197.438 103.126 196.915 103.214 196.912 103.53L196.907 103.672H196.671V103.53C196.671 103.141 197.16 103.023 197.16 102.722C197.16 102.536 197.048 102.394 196.81 102.394C196.588 102.394 196.443 102.533 196.431 102.784ZM196.62 104.079C196.62 103.967 196.674 103.908 196.8 103.908C196.912 103.908 196.971 103.967 196.971 104.079C196.971 104.185 196.912 104.247 196.8 104.247C196.674 104.247 196.62 104.185 196.62 104.079ZM198.035 102.152H198.318L198.69 103.799L199.091 102.152H199.374L199.77 103.799L200.14 102.152H200.427L199.958 104.218H199.643L199.23 102.521L198.819 104.218H198.5L198.035 102.152ZM201.326 103.778L201.571 103.813C201.491 104.082 201.294 104.253 200.963 104.247C200.6 104.247 200.343 103.987 200.343 103.486C200.343 102.97 200.6 102.713 200.963 102.713C201.282 102.713 201.596 102.899 201.588 103.527H200.588C200.596 103.76 200.686 104.017 200.963 104.017C201.19 104.017 201.278 103.905 201.326 103.778ZM200.963 102.94C200.732 102.94 200.632 103.12 200.6 103.321H201.328C201.29 103.034 201.139 102.94 200.963 102.94ZM201.791 102.152H202.106L202.047 102.825H201.85L201.791 102.152ZM202.702 104.218L202.207 102.742H202.48L202.888 104.002L203.302 102.742H203.575L203.08 104.218H202.702ZM204.586 103.778L204.83 103.813C204.75 104.082 204.552 104.253 204.222 104.247C203.859 104.247 203.603 103.987 203.603 103.486C203.603 102.97 203.859 102.713 204.222 102.713C204.54 102.713 204.856 102.899 204.848 103.527H203.847C203.856 103.76 203.944 104.017 204.222 104.017C204.45 104.017 204.538 103.905 204.586 103.778ZM204.222 102.94C203.992 102.94 203.892 103.12 203.859 103.321H204.588C204.55 103.034 204.399 102.94 204.222 102.94ZM206.828 104.218C206.828 104.61 206.592 104.822 206.195 104.822C205.832 104.822 205.643 104.601 205.614 104.35L205.87 104.341C205.896 104.483 205.982 104.622 206.222 104.622C206.458 104.622 206.57 104.48 206.57 104.218V103.911C206.504 104.126 206.375 104.25 206.124 104.25C205.714 104.25 205.558 103.914 205.558 103.483V103.48C205.558 103.046 205.714 102.713 206.124 102.713C206.378 102.713 206.507 102.84 206.572 103.064C206.584 102.943 206.638 102.742 206.679 102.742H206.828V104.218ZM206.171 102.952C205.915 102.952 205.818 103.206 205.818 103.48C205.818 103.757 205.915 104.008 206.171 104.008C206.446 104.008 206.551 103.828 206.57 103.48C206.551 103.135 206.446 102.952 206.171 102.952ZM207 103.495C207 102.976 207.242 102.713 207.658 102.713C208.074 102.713 208.322 102.976 208.322 103.495C208.322 103.984 208.074 104.247 207.658 104.247C207.242 104.247 207 103.984 207 103.495ZM207.658 104.005C207.95 104.005 208.062 103.784 208.062 103.495C208.062 103.176 207.95 102.952 207.658 102.952C207.372 102.952 207.26 103.176 207.26 103.495C207.26 103.784 207.372 104.005 207.658 104.005ZM208.32 102.742H208.595V102.74C208.595 102.642 208.654 102.371 208.704 102.371H208.855V102.742H209.254V102.981H208.855V103.734C208.855 103.869 208.852 103.976 209.043 103.976H209.254V104.218H208.935C208.668 104.218 208.595 104.02 208.595 103.716V102.981H208.32V102.742ZM209.914 104.808V104.566H210.071C210.244 104.566 210.288 104.516 210.324 104.418L210.412 104.179L209.855 102.742H210.118L210.534 103.846L210.935 102.742H211.198L210.551 104.516C210.48 104.713 210.359 104.808 210.176 104.808H209.914ZM211.21 103.495C211.21 102.976 211.452 102.713 211.868 102.713C212.284 102.713 212.531 102.976 212.531 103.495C212.531 103.984 212.284 104.247 211.868 104.247C211.452 104.247 211.21 103.984 211.21 103.495ZM211.868 104.005C212.16 104.005 212.272 103.784 212.272 103.495C212.272 103.176 212.16 102.952 211.868 102.952C211.582 102.952 211.47 103.176 211.47 103.495C211.47 103.784 211.582 104.005 211.868 104.005ZM212.928 103.477C212.928 103.751 213.026 104.005 213.282 104.005C213.58 104.005 213.68 103.793 213.68 103.383V102.742H213.94V104.218H213.79C213.748 104.218 213.695 104.011 213.683 103.893C213.622 104.117 213.488 104.247 213.235 104.247C212.822 104.247 212.668 103.911 212.668 103.483V102.742H212.928V103.477ZM215.343 104.247C214.971 104.247 214.715 103.987 214.715 103.489C214.715 102.97 214.971 102.713 215.343 102.713C215.691 102.713 215.898 102.893 215.968 103.206L215.715 103.241C215.667 103.085 215.582 102.952 215.343 102.952C215.051 102.952 214.974 103.241 214.974 103.489C214.974 103.719 215.051 104.005 215.343 104.005C215.591 104.005 215.674 103.858 215.715 103.719L215.968 103.76C215.9 104.064 215.694 104.25 215.343 104.247ZM216.019 103.495C216.019 102.976 216.26 102.713 216.676 102.713C217.092 102.713 217.34 102.976 217.34 103.495C217.34 103.984 217.092 104.247 216.676 104.247C216.26 104.247 216.019 103.984 216.019 103.495ZM216.676 104.005C216.968 104.005 217.082 103.784 217.082 103.495C217.082 103.176 216.968 102.952 216.676 102.952C216.391 102.952 216.279 103.176 216.279 103.495C216.279 103.784 216.391 104.005 216.676 104.005ZM217.768 104.218L217.272 102.742H217.547L217.954 104.002L218.367 102.742H218.642L218.146 104.218H217.768ZM219.651 103.778L219.896 103.813C219.816 104.082 219.619 104.253 219.288 104.247C218.926 104.247 218.668 103.987 218.668 103.486C218.668 102.97 218.926 102.713 219.288 102.713C219.607 102.713 219.923 102.899 219.914 103.527H218.914C218.923 103.76 219.011 104.017 219.288 104.017C219.515 104.017 219.604 103.905 219.651 103.778ZM219.288 102.94C219.058 102.94 218.958 103.12 218.926 103.321H219.654C219.616 103.034 219.466 102.94 219.288 102.94ZM220.122 104.218V102.742H220.27C220.316 102.742 220.372 102.973 220.382 103.088C220.464 102.849 220.623 102.713 220.89 102.713V102.973C220.588 102.973 220.396 103.167 220.382 103.577V104.218H220.122ZM221.912 103.778L222.156 103.813C222.076 104.082 221.879 104.253 221.548 104.247C221.186 104.247 220.93 103.987 220.93 103.486C220.93 102.97 221.186 102.713 221.548 102.713C221.867 102.713 222.183 102.899 222.174 103.527H221.174C221.183 103.76 221.271 104.017 221.548 104.017C221.776 104.017 221.864 103.905 221.912 103.778ZM221.548 102.94C221.319 102.94 221.219 103.12 221.186 103.321H221.915C221.876 103.034 221.726 102.94 221.548 102.94ZM222.86 102.71C223.108 102.71 223.238 102.831 223.306 103.04V102.152H223.563V104.218H223.415C223.374 104.218 223.323 104.023 223.308 103.902C223.244 104.123 223.114 104.247 222.86 104.247C222.451 104.247 222.296 103.911 222.296 103.48V103.477C222.296 103.046 222.451 102.71 222.86 102.71ZM222.908 102.952C222.654 102.952 222.554 103.206 222.554 103.48C222.556 103.754 222.654 104.005 222.908 104.005C223.176 104.005 223.286 103.837 223.306 103.51V103.448C223.286 103.123 223.176 102.952 222.908 102.952ZM223.884 102.152H224.147V103.002L224.102 103.672H223.934L223.884 103.002V102.152ZM223.836 104.073C223.836 103.97 223.896 103.908 224.016 103.908C224.128 103.908 224.191 103.97 224.191 104.073C224.191 104.191 224.128 104.247 224.016 104.247C223.896 104.247 223.836 104.191 223.836 104.073ZM162.294 106.546L162.574 106.602C162.462 106.971 162.188 107.18 161.763 107.18C161.197 107.18 160.884 106.788 160.884 106.139C160.884 105.431 161.197 105.056 161.763 105.056C162.185 105.056 162.456 105.257 162.574 105.637L162.306 105.729C162.223 105.463 162.038 105.319 161.763 105.319C161.383 105.319 161.161 105.617 161.161 106.139C161.161 106.605 161.383 106.918 161.763 106.918C162.026 106.918 162.209 106.782 162.294 106.546ZM162.657 106.428C162.657 105.909 162.899 105.646 163.315 105.646C163.731 105.646 163.979 105.909 163.979 106.428C163.979 106.918 163.731 107.18 163.315 107.18C162.899 107.18 162.657 106.918 162.657 106.428ZM163.315 106.938C163.607 106.938 163.719 106.717 163.719 106.428C163.719 106.109 163.607 105.885 163.315 105.885C163.029 105.885 162.917 106.109 162.917 106.428C162.917 106.717 163.029 106.938 163.315 106.938ZM164.16 107.151V105.676H164.31C164.352 105.676 164.405 105.882 164.417 106C164.479 105.776 164.611 105.646 164.868 105.646C165.278 105.646 165.432 105.983 165.432 106.416V107.151H165.175V106.416C165.175 106.139 165.075 105.885 164.821 105.885C164.52 105.885 164.42 106.101 164.42 106.511V107.151H164.16ZM165.689 107.151V105.676H165.84C165.881 105.676 165.934 105.882 165.946 106C166.008 105.776 166.141 105.646 166.397 105.646C166.807 105.646 166.961 105.983 166.961 106.416V107.151H166.704V106.416C166.704 106.139 166.604 105.885 166.35 105.885C166.049 105.885 165.949 106.101 165.949 106.511V107.151H165.689ZM168.124 106.711L168.369 106.747C168.289 107.015 168.092 107.186 167.761 107.18C167.398 107.18 167.142 106.921 167.142 106.419C167.142 105.903 167.398 105.646 167.761 105.646C168.08 105.646 168.396 105.832 168.387 106.461H167.387C167.396 106.694 167.484 106.95 167.761 106.95C167.989 106.95 168.077 106.838 168.124 106.711ZM167.761 105.873C167.531 105.873 167.431 106.053 167.398 106.254H168.127C168.089 105.968 167.938 105.873 167.761 105.873ZM169.129 107.18C168.757 107.18 168.501 106.921 168.501 106.422C168.501 105.903 168.757 105.646 169.129 105.646C169.477 105.646 169.684 105.826 169.754 106.139L169.501 106.174C169.454 106.018 169.368 105.885 169.129 105.885C168.837 105.885 168.76 106.174 168.76 106.422C168.76 106.652 168.837 106.938 169.129 106.938C169.377 106.938 169.46 106.791 169.501 106.652L169.754 106.694C169.687 106.998 169.48 107.183 169.129 107.18ZM169.752 105.676H170.026V105.673C170.026 105.576 170.086 105.304 170.136 105.304H170.286V105.676H170.684V105.915H170.286V106.667C170.286 106.803 170.283 106.909 170.475 106.909H170.684V107.151H170.366C170.1 107.151 170.026 106.953 170.026 106.649V105.915H169.752V105.676ZM171.292 105.676H171.567V105.673C171.567 105.576 171.626 105.304 171.676 105.304H171.826V105.676H172.225V105.915H171.826V106.667C171.826 106.803 171.823 106.909 172.015 106.909H172.225V107.151H171.906C171.64 107.151 171.567 106.953 171.567 106.649V105.915H171.292V105.676ZM172.293 106.428C172.293 105.909 172.535 105.646 172.951 105.646C173.367 105.646 173.614 105.909 173.614 106.428C173.614 106.918 173.367 107.18 172.951 107.18C172.535 107.18 172.293 106.918 172.293 106.428ZM172.951 106.938C173.243 106.938 173.355 106.717 173.355 106.428C173.355 106.109 173.243 105.885 172.951 105.885C172.664 105.885 172.552 106.109 172.552 106.428C172.552 106.717 172.664 106.938 172.951 106.938ZM174.294 106.428C174.294 105.909 174.536 105.646 174.952 105.646C175.368 105.646 175.616 105.909 175.616 106.428C175.616 106.918 175.368 107.18 174.952 107.18C174.536 107.18 174.294 106.918 174.294 106.428ZM174.952 106.938C175.244 106.938 175.356 106.717 175.356 106.428C175.356 106.109 175.244 105.885 174.952 105.885C174.666 105.885 174.554 106.109 174.554 106.428C174.554 106.717 174.666 106.938 174.952 106.938ZM176.012 106.41C176.012 106.685 176.109 106.938 176.366 106.938C176.664 106.938 176.764 106.726 176.764 106.316V105.676H177.024V107.151H176.874C176.832 107.151 176.779 106.944 176.767 106.826C176.706 107.051 176.572 107.18 176.319 107.18C175.906 107.18 175.752 106.844 175.752 106.416V105.676H176.012V106.41ZM177.3 107.151V105.676H177.447C177.495 105.676 177.551 105.906 177.559 106.021C177.642 105.782 177.802 105.646 178.067 105.646V105.906C177.766 105.906 177.575 106.101 177.559 106.511V107.151H177.3ZM178.63 107.151L179.338 105.086H179.683L180.391 107.151H180.095L179.927 106.655H179.09L178.922 107.151H178.63ZM179.17 106.413H179.844L179.508 105.413L179.17 106.413ZM180.534 105.086H181.278C181.667 105.089 181.95 105.322 181.95 105.723C181.95 106.154 181.667 106.346 181.278 106.348H180.811V107.151H180.534V105.086ZM181.278 105.345H180.811V106.086H181.278C181.531 106.083 181.672 106.003 181.672 105.723C181.672 105.472 181.54 105.348 181.278 105.345ZM182.132 105.086H182.41V107.151H182.132V105.086ZM183.144 105.676H183.419V105.673C183.419 105.576 183.478 105.304 183.528 105.304H183.679V105.676H184.076V105.915H183.679V106.667C183.679 106.803 183.675 106.909 183.867 106.909H184.076V107.151H183.758C183.492 107.151 183.419 106.953 183.419 106.649V105.915H183.144V105.676ZM184.144 106.428C184.144 105.909 184.387 105.646 184.803 105.646C185.219 105.646 185.467 105.909 185.467 106.428C185.467 106.918 185.219 107.18 184.803 107.18C184.387 107.18 184.144 106.918 184.144 106.428ZM184.803 106.938C185.095 106.938 185.207 106.717 185.207 106.428C185.207 106.109 185.095 105.885 184.803 105.885C184.516 105.885 184.404 106.109 184.404 106.428C184.404 106.717 184.516 106.938 184.803 106.938ZM186.442 106.148L186.202 106.074C186.27 105.832 186.479 105.646 186.819 105.646C187.202 105.646 187.406 105.93 187.403 106.26V107.151H187.255C187.206 107.151 187.152 106.915 187.143 106.803C187.075 107.042 186.931 107.18 186.668 107.18C186.344 107.18 186.128 106.983 186.128 106.708C186.128 106.286 186.742 106.275 187.143 106.275V106.251C187.143 106.039 187.031 105.885 186.819 105.885C186.612 105.885 186.494 105.974 186.442 106.148ZM186.388 106.7C186.388 106.832 186.498 106.947 186.703 106.947C186.978 106.947 187.111 106.776 187.138 106.449C186.807 106.452 186.388 106.464 186.388 106.7ZM188.191 107.18C187.819 107.18 187.563 106.921 187.563 106.422C187.563 105.903 187.819 105.646 188.191 105.646C188.539 105.646 188.746 105.826 188.816 106.139L188.563 106.174C188.516 106.018 188.43 105.885 188.191 105.885C187.899 105.885 187.823 106.174 187.823 106.422C187.823 106.652 187.899 106.938 188.191 106.938C188.439 106.938 188.522 106.791 188.563 106.652L188.816 106.694C188.748 106.998 188.543 107.183 188.191 107.18ZM189.496 107.18C189.124 107.18 188.867 106.921 188.867 106.422C188.867 105.903 189.124 105.646 189.496 105.646C189.844 105.646 190.051 105.826 190.122 106.139L189.867 106.174C189.82 106.018 189.735 105.885 189.496 105.885C189.204 105.885 189.127 106.174 189.127 106.422C189.127 106.652 189.204 106.938 189.496 106.938C189.744 106.938 189.826 106.791 189.867 106.652L190.122 106.694C190.054 106.998 189.847 107.183 189.496 107.18ZM191.172 106.711L191.418 106.747C191.338 107.015 191.14 107.186 190.81 107.18C190.447 107.18 190.19 106.921 190.19 106.419C190.19 105.903 190.447 105.646 190.81 105.646C191.128 105.646 191.443 105.832 191.435 106.461H190.435C190.443 106.694 190.532 106.95 190.81 106.95C191.036 106.95 191.124 106.838 191.172 106.711ZM190.81 105.873C190.579 105.873 190.479 106.053 190.447 106.254H191.175C191.136 105.968 190.986 105.873 190.81 105.873ZM192.168 107.177C191.835 107.177 191.611 107.024 191.522 106.75L191.767 106.679C191.826 106.856 191.979 106.938 192.171 106.938C192.354 106.938 192.458 106.874 192.458 106.75C192.458 106.596 192.266 106.549 192.1 106.508C191.811 106.446 191.575 106.342 191.575 106.068C191.575 105.8 191.772 105.646 192.127 105.646C192.451 105.646 192.64 105.806 192.72 106.074L192.478 106.136C192.419 105.944 192.29 105.885 192.11 105.885C191.94 105.885 191.835 105.953 191.835 106.074C191.835 106.224 192.012 106.263 192.183 106.304C192.466 106.369 192.714 106.455 192.714 106.741C192.714 107.006 192.511 107.177 192.168 107.177ZM193.42 107.177C193.087 107.177 192.863 107.024 192.775 106.75L193.019 106.679C193.079 106.856 193.232 106.938 193.424 106.938C193.607 106.938 193.71 106.874 193.71 106.75C193.71 106.596 193.518 106.549 193.352 106.508C193.064 106.446 192.828 106.342 192.828 106.068C192.828 105.8 193.026 105.646 193.379 105.646C193.704 105.646 193.892 105.806 193.972 106.074L193.731 106.136C193.671 105.944 193.542 105.885 193.362 105.885C193.194 105.885 193.087 105.953 193.087 106.074C193.087 106.224 193.264 106.263 193.435 106.304C193.719 106.369 193.967 106.455 193.967 106.741C193.967 107.006 193.763 107.177 193.42 107.177ZM194.942 106.148L194.703 106.074C194.771 105.832 194.98 105.646 195.319 105.646C195.703 105.646 195.907 105.93 195.903 106.26V107.151H195.756C195.706 107.151 195.652 106.915 195.644 106.803C195.576 107.042 195.431 107.18 195.17 107.18C194.844 107.18 194.63 106.983 194.63 106.708C194.63 106.286 195.243 106.275 195.644 106.275V106.251C195.644 106.039 195.532 105.885 195.319 105.885C195.112 105.885 194.995 105.974 194.942 106.148ZM194.888 106.7C194.888 106.832 194.998 106.947 195.204 106.947C195.479 106.947 195.611 106.776 195.638 106.449C195.308 106.452 194.888 106.464 194.888 106.7ZM196.182 105.086H196.44V107.151H196.182V105.086ZM196.719 105.086H196.979V107.151H196.719V105.086ZM197.703 105.676H197.978V105.673C197.978 105.576 198.036 105.304 198.087 105.304H198.236V105.676H198.635V105.915H198.236V106.667C198.236 106.803 198.234 106.909 198.426 106.909H198.635V107.151H198.316C198.051 107.151 197.978 106.953 197.978 106.649V105.915H197.703V105.676ZM199.812 106.416C199.812 106.139 199.712 105.885 199.459 105.885C199.158 105.885 199.058 106.101 199.058 106.511V107.151H198.798V105.086H199.058V105.988C199.122 105.77 199.252 105.646 199.506 105.646C199.916 105.646 200.07 105.983 200.07 106.416V107.151H199.812V106.416ZM201.232 106.711L201.478 106.747C201.398 107.015 201.2 107.186 200.87 107.18C200.507 107.18 200.25 106.921 200.25 106.419C200.25 105.903 200.507 105.646 200.87 105.646C201.188 105.646 201.504 105.832 201.495 106.461H200.495C200.504 106.694 200.592 106.95 200.87 106.95C201.098 106.95 201.186 106.838 201.232 106.711ZM200.87 105.873C200.64 105.873 200.539 106.053 200.507 106.254H201.236C201.198 105.968 201.047 105.873 200.87 105.873ZM202.498 106.148L202.258 106.074C202.326 105.832 202.535 105.646 202.875 105.646C203.258 105.646 203.462 105.93 203.459 106.26V107.151H203.311C203.262 107.151 203.208 106.915 203.199 106.803C203.131 107.042 202.987 107.18 202.724 107.18C202.4 107.18 202.184 106.983 202.184 106.708C202.184 106.286 202.798 106.275 203.199 106.275V106.251C203.199 106.039 203.087 105.885 202.875 105.885C202.668 105.885 202.55 105.974 202.498 106.148ZM202.444 106.7C202.444 106.832 202.554 106.947 202.76 106.947C203.034 106.947 203.167 106.776 203.194 106.449C202.863 106.452 202.444 106.464 202.444 106.7ZM203.736 107.151V105.676H203.884C203.931 105.676 203.987 105.906 203.996 106.021C204.079 105.782 204.238 105.646 204.503 105.646V105.906C204.203 105.906 204.011 106.101 203.996 106.511V107.151H203.736ZM204.472 105.676H204.747V105.673C204.747 105.576 204.806 105.304 204.856 105.304H205.007V105.676H205.406V105.915H205.007V106.667C205.007 106.803 205.004 106.909 205.195 106.909H205.406V107.151H205.087C204.82 107.151 204.747 106.953 204.747 106.649V105.915H204.472V105.676ZM205.532 105.251C205.532 105.136 205.588 105.077 205.712 105.077C205.824 105.077 205.886 105.136 205.886 105.251C205.886 105.354 205.824 105.419 205.712 105.419C205.588 105.419 205.532 105.354 205.532 105.251ZM205.583 105.676H205.839V107.151H205.583V105.676ZM206.66 107.18C206.288 107.18 206.031 106.921 206.031 106.422C206.031 105.903 206.288 105.646 206.66 105.646C207.008 105.646 207.215 105.826 207.286 106.139L207.032 106.174C206.984 106.018 206.899 105.885 206.66 105.885C206.368 105.885 206.291 106.174 206.291 106.422C206.291 106.652 206.368 106.938 206.66 106.938C206.908 106.938 206.991 106.791 207.032 106.652L207.286 106.694C207.218 106.998 207.011 107.183 206.66 107.18ZM207.431 105.086H207.69V107.151H207.431V105.086ZM208.875 106.711L209.119 106.747C209.039 107.015 208.842 107.186 208.511 107.18C208.148 107.18 207.892 106.921 207.892 106.419C207.892 105.903 208.148 105.646 208.511 105.646C208.83 105.646 209.146 105.832 209.136 106.461H208.136C208.146 106.694 208.234 106.95 208.511 106.95C208.739 106.95 208.827 106.838 208.875 106.711ZM208.511 105.873C208.282 105.873 208.182 106.053 208.148 106.254H208.878C208.839 105.968 208.688 105.873 208.511 105.873ZM209.871 107.177C209.538 107.177 209.312 107.024 209.224 106.75L209.47 106.679C209.528 106.856 209.682 106.938 209.874 106.938C210.056 106.938 210.159 106.874 210.159 106.75C210.159 106.596 209.968 106.549 209.803 106.508C209.514 106.446 209.278 106.342 209.278 106.068C209.278 105.8 209.475 105.646 209.83 105.646C210.154 105.646 210.343 105.806 210.422 106.074L210.18 106.136C210.122 105.944 209.991 105.885 209.811 105.885C209.643 105.885 209.538 105.953 209.538 106.074C209.538 106.224 209.714 106.263 209.886 106.304C210.168 106.369 210.416 106.455 210.416 106.741C210.416 107.006 210.212 107.177 209.871 107.177ZM211.391 106.148L211.152 106.074C211.22 105.832 211.43 105.646 211.77 105.646C212.152 105.646 212.356 105.93 212.354 106.26V107.151H212.206C212.155 107.151 212.103 106.915 212.094 106.803C212.026 107.042 211.882 107.18 211.619 107.18C211.294 107.18 211.079 106.983 211.079 106.708C211.079 106.286 211.692 106.275 212.094 106.275V106.251C212.094 106.039 211.982 105.885 211.77 105.885C211.563 105.885 211.444 105.974 211.391 106.148ZM211.339 106.7C211.339 106.832 211.447 106.947 211.654 106.947C211.928 106.947 212.062 106.776 212.088 106.449C211.758 106.452 211.339 106.464 211.339 106.7ZM212.631 107.151V105.676H212.782C212.823 105.676 212.875 105.882 212.887 106C212.95 105.776 213.082 105.646 213.339 105.646C213.748 105.646 213.902 105.983 213.902 106.416V107.151H213.646V106.416C213.646 106.139 213.546 105.885 213.291 105.885C212.991 105.885 212.891 106.101 212.891 106.511V107.151H212.631ZM214.638 105.643C214.886 105.643 215.015 105.764 215.083 105.974V105.086H215.34V107.151H215.192C215.151 107.151 215.102 106.956 215.087 106.835C215.022 107.056 214.892 107.18 214.638 107.18C214.228 107.18 214.075 106.844 214.075 106.413V106.41C214.075 105.98 214.228 105.643 214.638 105.643ZM214.686 105.885C214.431 105.885 214.331 106.139 214.331 106.413C214.334 106.688 214.431 106.938 214.686 106.938C214.954 106.938 215.063 106.77 215.083 106.443V106.381C215.063 106.056 214.954 105.885 214.686 105.885ZM216.178 105.251C216.178 105.136 216.234 105.077 216.358 105.077C216.47 105.077 216.532 105.136 216.532 105.251C216.532 105.354 216.47 105.419 216.358 105.419C216.234 105.419 216.178 105.354 216.178 105.251ZM216.228 105.676H216.484V107.151H216.228V105.676ZM216.771 107.151V105.676H216.922C216.963 105.676 217.016 105.882 217.028 106C217.09 105.776 217.223 105.646 217.479 105.646C217.79 105.646 217.955 105.838 218.014 106.121C218.063 105.82 218.194 105.646 218.491 105.646C218.902 105.646 219.058 105.983 219.058 106.416V107.151H218.798V106.416C218.798 106.139 218.7 105.885 218.444 105.885C218.146 105.885 218.043 106.101 218.043 106.511V107.151H217.786V106.416C217.786 106.139 217.686 105.885 217.432 105.885C217.131 105.885 217.031 106.101 217.031 106.511V107.151H216.771ZM219.515 106.148L219.276 106.074C219.344 105.832 219.554 105.646 219.894 105.646C220.276 105.646 220.48 105.93 220.478 106.26V107.151H220.33C220.279 107.151 220.227 106.915 220.218 106.803C220.15 107.042 220.006 107.18 219.743 107.18C219.418 107.18 219.203 106.983 219.203 106.708C219.203 106.286 219.816 106.275 220.218 106.275V106.251C220.218 106.039 220.106 105.885 219.894 105.885C219.687 105.885 219.568 105.974 219.515 106.148ZM219.462 106.7C219.462 106.832 219.571 106.947 219.778 106.947C220.052 106.947 220.186 106.776 220.211 106.449C219.882 106.452 219.462 106.464 219.462 106.7ZM221.912 107.151C221.912 107.543 221.676 107.756 221.278 107.756C220.915 107.756 220.726 107.534 220.696 107.284L220.952 107.275C220.979 107.416 221.066 107.555 221.304 107.555C221.54 107.555 221.652 107.413 221.652 107.151V106.844C221.587 107.059 221.458 107.183 221.207 107.183C220.796 107.183 220.64 106.847 220.64 106.416V106.413C220.64 105.98 220.796 105.646 221.207 105.646C221.46 105.646 221.59 105.773 221.655 105.997C221.667 105.876 221.72 105.676 221.762 105.676H221.912V107.151ZM221.254 105.885C220.998 105.885 220.9 106.139 220.9 106.413C220.9 106.691 220.998 106.941 221.254 106.941C221.528 106.941 221.635 106.761 221.652 106.413C221.635 106.068 221.528 105.885 221.254 105.885ZM223.083 106.711L223.328 106.747C223.248 107.015 223.051 107.186 222.72 107.18C222.358 107.18 222.1 106.921 222.1 106.419C222.1 105.903 222.358 105.646 222.72 105.646C223.039 105.646 223.355 105.832 223.346 106.461H222.346C222.355 106.694 222.443 106.95 222.72 106.95C222.947 106.95 223.036 106.838 223.083 106.711ZM222.72 105.873C222.49 105.873 222.39 106.053 222.358 106.254H223.086C223.048 105.968 222.898 105.873 222.72 105.873ZM224.079 107.177C223.746 107.177 223.522 107.024 223.434 106.75L223.678 106.679C223.736 106.856 223.89 106.938 224.082 106.938C224.264 106.938 224.368 106.874 224.368 106.75C224.368 106.596 224.176 106.549 224.011 106.508C223.722 106.446 223.486 106.342 223.486 106.068C223.486 105.8 223.684 105.646 224.038 105.646C224.362 105.646 224.551 105.806 224.631 106.074L224.388 106.136C224.33 105.944 224.2 105.885 224.02 105.885C223.852 105.885 223.746 105.953 223.746 106.074C223.746 106.224 223.923 106.263 224.094 106.304C224.378 106.369 224.624 106.455 224.624 106.741C224.624 107.006 224.422 107.177 224.079 107.177ZM160.852 110.674V110.432H161.008C161.182 110.432 161.226 110.382 161.262 110.285L161.35 110.046L160.793 108.609H161.055L161.471 109.712L161.872 108.609H162.135L161.489 110.382C161.418 110.58 161.297 110.674 161.114 110.674H160.852ZM162.147 109.361C162.147 108.842 162.389 108.58 162.805 108.58C163.221 108.58 163.469 108.842 163.469 109.361C163.469 109.851 163.221 110.114 162.805 110.114C162.389 110.114 162.147 109.851 162.147 109.361ZM162.805 109.872C163.097 109.872 163.21 109.651 163.21 109.361C163.21 109.043 163.097 108.819 162.805 108.819C162.519 108.819 162.407 109.043 162.407 109.361C162.407 109.651 162.519 109.872 162.805 109.872ZM163.865 109.344C163.865 109.618 163.963 109.872 164.22 109.872C164.517 109.872 164.618 109.659 164.618 109.249V108.609H164.877V110.084H164.727C164.686 110.084 164.632 109.878 164.621 109.76C164.559 109.984 164.426 110.114 164.172 110.114C163.759 110.114 163.606 109.777 163.606 109.35V108.609H163.865V109.344ZM165.148 108.019H165.463L165.404 108.692H165.206L165.148 108.019ZM166.059 110.084L165.564 108.609H165.838L166.245 109.869L166.658 108.609H166.932L166.437 110.084H166.059ZM167.942 109.645L168.187 109.68C168.107 109.948 167.91 110.12 167.579 110.114C167.216 110.114 166.96 109.854 166.96 109.353C166.96 108.836 167.216 108.58 167.579 108.58C167.898 108.58 168.214 108.766 168.205 109.394H167.205C167.214 109.627 167.302 109.884 167.579 109.884C167.806 109.884 167.895 109.772 167.942 109.645ZM167.579 108.807C167.349 108.807 167.249 108.987 167.216 109.187H167.945C167.907 108.901 167.756 108.807 167.579 108.807ZM169.266 110.674H169.006V108.609H169.153C169.198 108.609 169.248 108.804 169.263 108.925C169.325 108.704 169.457 108.58 169.708 108.58C170.121 108.58 170.274 108.916 170.274 109.347V109.35C170.274 109.78 170.118 110.117 169.708 110.117C169.46 110.117 169.33 109.996 169.266 109.786V110.674ZM169.661 108.819C169.395 108.819 169.286 108.99 169.266 109.317V109.379C169.286 109.704 169.395 109.875 169.661 109.875C169.918 109.875 170.015 109.621 170.015 109.347C170.015 109.072 169.918 108.819 169.661 108.819ZM170.372 109.361C170.372 108.842 170.614 108.58 171.03 108.58C171.446 108.58 171.693 108.842 171.693 109.361C171.693 109.851 171.446 110.114 171.03 110.114C170.614 110.114 170.372 109.851 170.372 109.361ZM171.03 109.872C171.322 109.872 171.434 109.651 171.434 109.361C171.434 109.043 171.322 108.819 171.03 108.819C170.743 108.819 170.631 109.043 170.631 109.361C170.631 109.651 170.743 109.872 171.03 109.872ZM172.399 110.111C172.066 110.111 171.842 109.957 171.753 109.683L171.998 109.612C172.057 109.789 172.211 109.872 172.402 109.872C172.585 109.872 172.689 109.807 172.689 109.683C172.689 109.53 172.497 109.482 172.332 109.441C172.042 109.379 171.806 109.276 171.806 109.002C171.806 108.733 172.004 108.58 172.358 108.58C172.683 108.58 172.872 108.739 172.951 109.007L172.709 109.069C172.65 108.878 172.52 108.819 172.34 108.819C172.172 108.819 172.066 108.886 172.066 109.007C172.066 109.158 172.243 109.196 172.414 109.238C172.697 109.302 172.945 109.388 172.945 109.674C172.945 109.94 172.742 110.111 172.399 110.111ZM172.945 108.609H173.219V108.606C173.219 108.509 173.278 108.237 173.328 108.237H173.479V108.609H173.877V108.848H173.479V109.6C173.479 109.736 173.476 109.842 173.668 109.842H173.877V110.084H173.559C173.293 110.084 173.219 109.887 173.219 109.583V108.848H172.945V108.609ZM174.945 109.645L175.19 109.68C175.111 109.948 174.913 110.12 174.582 110.114C174.22 110.114 173.963 109.854 173.963 109.353C173.963 108.836 174.22 108.58 174.582 108.58C174.901 108.58 175.217 108.766 175.208 109.394H174.208C174.217 109.627 174.305 109.884 174.582 109.884C174.81 109.884 174.898 109.772 174.945 109.645ZM174.582 108.807C174.352 108.807 174.252 108.987 174.22 109.187H174.948C174.91 108.901 174.76 108.807 174.582 108.807ZM175.894 108.577C176.142 108.577 176.272 108.698 176.34 108.907V108.019H176.596V110.084H176.448C176.407 110.084 176.358 109.89 176.343 109.769C176.278 109.99 176.148 110.114 175.894 110.114C175.484 110.114 175.331 109.777 175.331 109.347V109.344C175.331 108.913 175.484 108.577 175.894 108.577ZM175.941 108.819C175.688 108.819 175.587 109.072 175.587 109.347C175.59 109.621 175.688 109.872 175.941 109.872C176.21 109.872 176.319 109.704 176.34 109.376V109.314C176.319 108.99 176.21 108.819 175.941 108.819ZM176.791 110.574L176.944 109.901H177.263L176.986 110.574H176.791ZM178.234 109.081L177.995 109.007C178.063 108.766 178.272 108.58 178.612 108.58C178.995 108.58 179.199 108.863 179.196 109.193V110.084H179.048C178.998 110.084 178.946 109.848 178.936 109.736C178.868 109.975 178.724 110.114 178.462 110.114C178.136 110.114 177.922 109.916 177.922 109.642C177.922 109.22 178.535 109.208 178.936 109.208V109.184C178.936 108.972 178.824 108.819 178.612 108.819C178.406 108.819 178.287 108.907 178.234 109.081ZM178.182 109.633C178.182 109.766 178.29 109.881 178.496 109.881C178.771 109.881 178.904 109.71 178.931 109.382C178.6 109.385 178.182 109.397 178.182 109.633ZM179.624 110.084H179.474V108.019H179.734V108.907C179.798 108.698 179.928 108.577 180.175 108.577C180.588 108.577 180.742 108.913 180.742 109.344V109.347C180.742 109.78 180.586 110.114 180.175 110.114C179.924 110.114 179.792 109.99 179.73 109.769C179.715 109.89 179.666 110.084 179.624 110.084ZM180.128 108.819C179.863 108.819 179.754 108.99 179.734 109.314V109.376C179.754 109.704 179.863 109.872 180.128 109.872C180.386 109.872 180.483 109.618 180.483 109.347C180.483 109.069 180.386 108.819 180.128 108.819ZM181.459 110.111C181.126 110.111 180.902 109.957 180.812 109.683L181.058 109.612C181.116 109.789 181.27 109.872 181.462 109.872C181.644 109.872 181.748 109.807 181.748 109.683C181.748 109.53 181.556 109.482 181.391 109.441C181.102 109.379 180.866 109.276 180.866 109.002C180.866 108.733 181.063 108.58 181.418 108.58C181.742 108.58 181.931 108.739 182.011 109.007L181.768 109.069C181.71 108.878 181.58 108.819 181.4 108.819C181.231 108.819 181.126 108.886 181.126 109.007C181.126 109.158 181.303 109.196 181.474 109.238C181.756 109.302 182.004 109.388 182.004 109.674C182.004 109.94 181.8 110.111 181.459 110.111ZM182.092 109.361C182.092 108.842 182.334 108.58 182.75 108.58C183.166 108.58 183.414 108.842 183.414 109.361C183.414 109.851 183.166 110.114 182.75 110.114C182.334 110.114 182.092 109.851 182.092 109.361ZM182.75 109.872C183.042 109.872 183.154 109.651 183.154 109.361C183.154 109.043 183.042 108.819 182.75 108.819C182.463 108.819 182.351 109.043 182.351 109.361C182.351 109.651 182.463 109.872 182.75 109.872ZM183.595 108.019H183.854V110.084H183.595V108.019ZM184.348 109.344C184.348 109.618 184.446 109.872 184.702 109.872C185 109.872 185.1 109.659 185.1 109.249V108.609H185.36V110.084H185.21C185.168 110.084 185.115 109.878 185.103 109.76C185.042 109.984 184.908 110.114 184.655 110.114C184.242 110.114 184.088 109.777 184.088 109.35V108.609H184.348V109.344ZM185.488 108.609H185.763V108.606C185.763 108.509 185.822 108.237 185.872 108.237H186.023V108.609H186.42V108.848H186.023V109.6C186.023 109.736 186.019 109.842 186.211 109.842H186.42V110.084H186.102C185.836 110.084 185.763 109.887 185.763 109.583V108.848H185.488V108.609ZM187.49 109.645L187.734 109.68C187.654 109.948 187.456 110.12 187.126 110.114C186.763 110.114 186.507 109.854 186.507 109.353C186.507 108.836 186.763 108.58 187.126 108.58C187.444 108.58 187.76 108.766 187.751 109.394H186.751C186.76 109.627 186.848 109.884 187.126 109.884C187.354 109.884 187.442 109.772 187.49 109.645ZM187.126 108.807C186.896 108.807 186.796 108.987 186.763 109.187H187.492C187.454 108.901 187.303 108.807 187.126 108.807ZM187.96 108.019H188.219V110.084H187.96V108.019ZM188.403 110.674V110.432H188.56C188.734 110.432 188.778 110.382 188.814 110.285L188.902 110.046L188.344 108.609H188.607L189.023 109.712L189.424 108.609H189.687L189.04 110.382C188.97 110.58 188.85 110.674 188.666 110.674H188.403ZM190.236 108.609H190.514V108.518C190.514 108.214 190.584 108.019 190.852 108.019H191.171V108.258H190.959C190.771 108.258 190.771 108.364 190.771 108.503V108.609H191.171V108.848H190.771V110.084H190.514V108.848H190.236V108.609ZM191.282 110.084V108.609H191.43C191.476 108.609 191.534 108.839 191.542 108.954C191.624 108.715 191.784 108.58 192.05 108.58V108.839C191.748 108.839 191.556 109.034 191.542 109.444V110.084H191.282ZM193.072 109.645L193.316 109.68C193.238 109.948 193.039 110.12 192.71 110.114C192.346 110.114 192.09 109.854 192.09 109.353C192.09 108.836 192.346 108.58 192.71 108.58C193.027 108.58 193.343 108.766 193.335 109.394H192.335C192.343 109.627 192.432 109.884 192.71 109.884C192.936 109.884 193.024 109.772 193.072 109.645ZM192.71 108.807C192.479 108.807 192.379 108.987 192.346 109.187H193.075C193.036 108.901 192.886 108.807 192.71 108.807ZM194.411 109.645L194.656 109.68C194.576 109.948 194.379 110.12 194.048 110.114C193.686 110.114 193.428 109.854 193.428 109.353C193.428 108.836 193.686 108.58 194.048 108.58C194.367 108.58 194.683 108.766 194.674 109.394H193.674C193.682 109.627 193.771 109.884 194.048 109.884C194.275 109.884 194.364 109.772 194.411 109.645ZM194.048 108.807C193.818 108.807 193.718 108.987 193.686 109.187H194.414C194.375 108.901 194.226 108.807 194.048 108.807ZM194.864 109.946C194.864 109.833 194.918 109.774 195.044 109.774C195.156 109.774 195.215 109.833 195.215 109.946C195.215 110.052 195.156 110.114 195.044 110.114C194.918 110.114 194.864 110.052 194.864 109.946ZM197.416 109.479L197.696 109.536C197.584 109.904 197.31 110.114 196.884 110.114C196.319 110.114 196.006 109.721 196.006 109.072C196.006 108.364 196.319 107.99 196.884 107.99C197.307 107.99 197.578 108.19 197.696 108.571L197.428 108.662C197.346 108.397 197.159 108.252 196.884 108.252C196.504 108.252 196.283 108.55 196.283 109.072C196.283 109.538 196.504 109.851 196.884 109.851C197.147 109.851 197.331 109.715 197.416 109.479ZM197.874 108.019H198.134V110.084H197.874V108.019ZM198.376 108.184C198.376 108.069 198.432 108.01 198.556 108.01C198.668 108.01 198.73 108.069 198.73 108.184C198.73 108.288 198.668 108.352 198.556 108.352C198.432 108.352 198.376 108.288 198.376 108.184ZM198.427 108.609H198.683V110.084H198.427V108.609ZM199.504 110.114C199.132 110.114 198.875 109.854 198.875 109.356C198.875 108.836 199.132 108.58 199.504 108.58C199.852 108.58 200.059 108.76 200.13 109.072L199.876 109.108C199.828 108.951 199.743 108.819 199.504 108.819C199.212 108.819 199.135 109.108 199.135 109.356C199.135 109.586 199.212 109.872 199.504 109.872C199.752 109.872 199.835 109.724 199.876 109.586L200.13 109.627C200.062 109.931 199.855 110.117 199.504 110.114ZM200.275 108.019H200.534V109.235L201.124 108.609H201.446L200.856 109.235L201.531 110.084H201.212L200.655 109.391L200.534 109.512V110.084H200.275V108.019ZM202.363 110.084H202.212V108.019H202.472V108.907C202.536 108.698 202.667 108.577 202.915 108.577C203.327 108.577 203.48 108.913 203.48 109.344V109.347C203.48 109.78 203.324 110.114 202.915 110.114C202.664 110.114 202.531 109.99 202.47 109.769C202.454 109.89 202.404 110.084 202.363 110.084ZM202.867 108.819C202.602 108.819 202.492 108.99 202.472 109.314V109.376C202.492 109.704 202.602 109.872 202.867 109.872C203.124 109.872 203.222 109.618 203.222 109.347C203.222 109.069 203.124 108.819 202.867 108.819ZM204.578 109.645L204.823 109.68C204.743 109.948 204.546 110.12 204.215 110.114C203.852 110.114 203.596 109.854 203.596 109.353C203.596 108.836 203.852 108.58 204.215 108.58C204.534 108.58 204.85 108.766 204.84 109.394H203.84C203.85 109.627 203.938 109.884 204.215 109.884C204.443 109.884 204.531 109.772 204.578 109.645ZM204.215 108.807C203.986 108.807 203.884 108.987 203.852 109.187H204.582C204.543 108.901 204.392 108.807 204.215 108.807ZM205.05 108.019H205.308V110.084H205.05V108.019ZM205.492 109.361C205.492 108.842 205.735 108.58 206.151 108.58C206.567 108.58 206.815 108.842 206.815 109.361C206.815 109.851 206.567 110.114 206.151 110.114C205.735 110.114 205.492 109.851 205.492 109.361ZM206.151 109.872C206.443 109.872 206.555 109.651 206.555 109.361C206.555 109.043 206.443 108.819 206.151 108.819C205.864 108.819 205.752 109.043 205.752 109.361C205.752 109.651 205.864 109.872 206.151 109.872ZM207.154 110.084L206.764 108.609H207.035L207.331 109.816L207.655 108.609H207.862L208.183 109.813L208.478 108.609H208.752L208.363 110.084H208.03L207.759 109.01L207.487 110.084H207.154ZM209.322 108.609H209.596V108.606C209.596 108.509 209.655 108.237 209.706 108.237H209.855V108.609H210.254V108.848H209.855V109.6C209.855 109.736 209.852 109.842 210.044 109.842H210.254V110.084H209.935C209.67 110.084 209.596 109.887 209.596 109.583V108.848H209.322V108.609ZM210.322 109.361C210.322 108.842 210.564 108.58 210.98 108.58C211.396 108.58 211.644 108.842 211.644 109.361C211.644 109.851 211.396 110.114 210.98 110.114C210.564 110.114 210.322 109.851 210.322 109.361ZM210.98 109.872C211.272 109.872 211.384 109.651 211.384 109.361C211.384 109.043 211.272 108.819 210.98 108.819C210.694 108.819 210.582 109.043 210.582 109.361C210.582 109.651 210.694 109.872 210.98 109.872ZM212.418 108.019H212.678V110.084H212.418V108.019ZM213.862 109.645L214.107 109.68C214.027 109.948 213.83 110.12 213.499 110.114C213.136 110.114 212.879 109.854 212.879 109.353C212.879 108.836 213.136 108.58 213.499 108.58C213.818 108.58 214.132 108.766 214.124 109.394H213.124C213.132 109.627 213.222 109.884 213.499 109.884C213.726 109.884 213.814 109.772 213.862 109.645ZM213.499 108.807C213.268 108.807 213.168 108.987 213.136 109.187H213.864C213.826 108.901 213.675 108.807 213.499 108.807ZM214.532 109.081L214.294 109.007C214.362 108.766 214.571 108.58 214.911 108.58C215.294 108.58 215.498 108.863 215.495 109.193V110.084H215.347C215.298 110.084 215.244 109.848 215.235 109.736C215.167 109.975 215.023 110.114 214.76 110.114C214.435 110.114 214.22 109.916 214.22 109.642C214.22 109.22 214.834 109.208 215.235 109.208V109.184C215.235 108.972 215.123 108.819 214.911 108.819C214.704 108.819 214.586 108.907 214.532 109.081ZM214.48 109.633C214.48 109.766 214.59 109.881 214.795 109.881C215.07 109.881 215.203 109.71 215.23 109.382C214.899 109.385 214.48 109.397 214.48 109.633ZM215.772 110.084V108.609H215.92C215.967 108.609 216.023 108.839 216.032 108.954C216.115 108.715 216.274 108.58 216.539 108.58V108.839C216.239 108.839 216.047 109.034 216.032 109.444V110.084H215.772ZM216.656 110.084V108.609H216.807C216.848 108.609 216.902 108.816 216.912 108.934C216.975 108.709 217.107 108.58 217.364 108.58C217.774 108.58 217.928 108.916 217.928 109.35V110.084H217.671V109.35C217.671 109.072 217.571 108.819 217.318 108.819C217.016 108.819 216.916 109.034 216.916 109.444V110.084H216.656ZM218.779 110.084V108.609H218.928C218.97 108.609 219.023 108.816 219.035 108.934C219.096 108.709 219.23 108.58 219.487 108.58C219.796 108.58 219.962 108.771 220.02 109.055C220.071 108.754 220.2 108.58 220.498 108.58C220.908 108.58 221.064 108.916 221.064 109.35V110.084H220.806V109.35C220.806 109.072 220.708 108.819 220.451 108.819C220.154 108.819 220.05 109.034 220.05 109.444V110.084H219.794V109.35C219.794 109.072 219.692 108.819 219.439 108.819C219.138 108.819 219.038 109.034 219.038 109.444V110.084H218.779ZM221.227 109.361C221.227 108.842 221.47 108.58 221.886 108.58C222.302 108.58 222.55 108.842 222.55 109.361C222.55 109.851 222.302 110.114 221.886 110.114C221.47 110.114 221.227 109.851 221.227 109.361ZM221.886 109.872C222.178 109.872 222.29 109.651 222.29 109.361C222.29 109.043 222.178 108.819 221.886 108.819C221.599 108.819 221.487 109.043 221.487 109.361C221.487 109.651 221.599 109.872 221.886 109.872ZM222.73 110.084V108.609H222.878C222.924 108.609 222.98 108.839 222.99 108.954C223.072 108.715 223.231 108.58 223.498 108.58V108.839C223.196 108.839 223.004 109.034 222.99 109.444V110.084H222.73ZM224.519 109.645L224.764 109.68C224.684 109.948 224.487 110.12 224.156 110.114C223.794 110.114 223.538 109.854 223.538 109.353C223.538 108.836 223.794 108.58 224.156 108.58C224.475 108.58 224.791 108.766 224.782 109.394H223.782C223.791 109.627 223.879 109.884 224.156 109.884C224.384 109.884 224.472 109.772 224.519 109.645ZM224.156 108.807C223.927 108.807 223.826 108.987 223.794 109.187H224.523C224.484 108.901 224.334 108.807 224.156 108.807ZM225.032 108.019H225.294V108.869L225.25 109.538H225.082L225.032 108.869V108.019ZM224.984 109.94C224.984 109.836 225.043 109.774 225.164 109.774C225.276 109.774 225.339 109.836 225.339 109.94C225.339 110.058 225.276 110.114 225.164 110.114C225.043 110.114 224.984 110.058 224.984 109.94Z" fill="#333333"/>
<path d="M189.744 154.313H195.398M195.398 154.313L193.277 152.838M195.398 154.313L193.277 155.788" stroke="#333333" stroke-width="0.368773" stroke-linecap="round" stroke-linejoin="round"/>
<path d="M160.846 120.831H161.49L162.026 123.285L162.621 120.831H163.26L163.855 123.285L164.391 120.831H165.036L164.283 124.273H163.585L162.941 121.618L162.297 124.273H161.598L160.846 120.831ZM166.955 123.044C166.955 122.641 166.798 122.306 166.454 122.306C166.001 122.306 165.878 122.626 165.878 123.27V124.273H165.293V120.831H165.878V122.277C165.977 121.957 166.173 121.766 166.572 121.766C167.314 121.766 167.54 122.36 167.54 123.044V124.273H166.955V123.044ZM168.457 122.66L167.921 122.483C168.044 122.1 168.402 121.766 168.997 121.766C169.706 121.766 170.035 122.311 170.03 122.882V124.273H169.706C169.612 124.273 169.499 123.914 169.46 123.688C169.361 124.081 169.15 124.322 168.707 124.322C168.166 124.322 167.798 123.978 167.798 123.491C167.798 122.832 168.717 122.793 169.44 122.793C169.42 122.518 169.283 122.306 168.997 122.306C168.702 122.306 168.545 122.424 168.457 122.66ZM168.383 123.462C168.383 123.629 168.501 123.801 168.816 123.801C169.184 123.801 169.366 123.59 169.425 123.172C168.86 123.172 168.383 123.206 168.383 123.462ZM170.184 121.815H170.642C170.642 121.652 170.789 121.097 170.902 121.097H171.232V121.815H171.846V122.356H171.232V123.393C171.232 123.6 171.232 123.727 171.537 123.727H171.846V124.273H171.256C170.814 124.273 170.642 123.929 170.642 123.354V122.356H170.184V121.815ZM173.951 124.273V122.877L172.889 120.831H173.573L174.266 122.208L174.954 120.831H175.643L174.581 122.877V124.273H173.951ZM175.457 123.068C175.457 122.203 175.88 121.766 176.593 121.766C177.306 121.766 177.729 122.203 177.729 123.068C177.729 123.885 177.306 124.322 176.593 124.322C175.88 124.322 175.457 123.885 175.457 123.068ZM176.593 123.777C177.05 123.777 177.138 123.378 177.138 123.068C177.138 122.71 177.05 122.306 176.593 122.306C176.136 122.306 176.047 122.71 176.047 123.068C176.047 123.378 176.136 123.777 176.593 123.777ZM178.572 123.044C178.572 123.442 178.724 123.777 179.073 123.777C179.521 123.777 179.644 123.462 179.644 122.818V121.815H180.229V124.273H179.9C179.816 124.273 179.713 123.954 179.668 123.727C179.58 124.096 179.382 124.322 178.956 124.322C178.208 124.322 177.981 123.727 177.981 123.044V121.815H178.572V123.044ZM181.698 124.273V120.831H182.229L183.645 123.054V120.831H184.274V124.273H183.744L182.328 122.056V124.273H181.698ZM186.208 123.477L186.793 123.565C186.65 124.057 186.282 124.332 185.712 124.322C185.038 124.322 184.61 123.885 184.61 123.064C184.61 122.198 185.038 121.766 185.712 121.766C186.272 121.766 186.848 122.07 186.822 123.196H185.196C185.214 123.467 185.308 123.786 185.712 123.786C186.021 123.786 186.158 123.664 186.208 123.477ZM185.712 122.302C185.392 122.302 185.264 122.523 185.214 122.764H186.213C186.14 122.405 185.933 122.302 185.712 122.302ZM188.596 123.477L189.181 123.565C189.038 124.057 188.669 124.332 188.1 124.322C187.425 124.322 186.998 123.885 186.998 123.064C186.998 122.198 187.425 121.766 188.1 121.766C188.66 121.766 189.236 122.07 189.21 123.196H187.582C187.602 123.467 187.696 123.786 188.1 123.786C188.409 123.786 188.546 123.664 188.596 123.477ZM188.1 122.302C187.78 122.302 187.652 122.523 187.602 122.764H188.601C188.528 122.405 188.321 122.302 188.1 122.302ZM190.388 121.766C190.772 121.766 190.969 121.947 191.072 122.252V120.831H191.657V124.273H191.328C191.244 124.273 191.141 123.968 191.096 123.747C191.008 124.101 190.812 124.322 190.388 124.322C189.641 124.322 189.42 123.727 189.42 123.044C189.42 122.356 189.641 121.766 190.388 121.766ZM190.506 122.306C190.162 122.306 190.005 122.641 190.005 123.044C190.005 123.447 190.162 123.777 190.506 123.777C190.89 123.777 191.033 123.55 191.072 123.078V123.005C191.033 122.538 190.89 122.306 190.506 122.306ZM192.897 121.815H193.354C193.354 121.652 193.501 121.097 193.614 121.097H193.944V121.815H194.558V122.356H193.944V123.393C193.944 123.6 193.944 123.727 194.249 123.727H194.558V124.273H193.969C193.526 124.273 193.354 123.929 193.354 123.354V122.356H192.897V121.815ZM194.705 123.068C194.705 122.203 195.128 121.766 195.841 121.766C196.554 121.766 196.977 122.203 196.977 123.068C196.977 123.885 196.554 124.322 195.841 124.322C195.128 124.322 194.705 123.885 194.705 123.068ZM195.841 123.777C196.298 123.777 196.386 123.378 196.386 123.068C196.386 122.71 196.298 122.306 195.841 122.306C195.384 122.306 195.296 122.71 195.296 123.068C195.296 123.378 195.384 123.777 195.841 123.777ZM198.308 124.273V120.831H198.937V122.336L200.192 120.831H201.013L199.848 122.169L201.086 124.273H200.368L199.424 122.656L198.937 123.241V124.273H198.308ZM201.276 124.273V121.815H201.606C201.689 121.815 201.793 122.134 201.837 122.36C201.925 121.992 202.122 121.766 202.554 121.766C203.297 121.766 203.524 122.36 203.524 123.044V124.273H202.938V123.044C202.938 122.641 202.781 122.306 202.437 122.306C201.984 122.306 201.861 122.626 201.861 123.27V124.273H201.276ZM203.79 123.068C203.79 122.203 204.213 121.766 204.926 121.766C205.64 121.766 206.062 122.203 206.062 123.068C206.062 123.885 205.64 124.322 204.926 124.322C204.213 124.322 203.79 123.885 203.79 123.068ZM204.926 123.777C205.384 123.777 205.472 123.378 205.472 123.068C205.472 122.71 205.384 122.306 204.926 122.306C204.469 122.306 204.381 122.71 204.381 123.068C204.381 123.378 204.469 123.777 204.926 123.777ZM206.637 124.273L206.028 121.815H206.642L207.036 123.629L207.493 121.815H207.945L208.397 123.624L208.796 121.815H209.42L208.81 124.273H208.068L207.724 122.783L207.38 124.273H206.637ZM210.572 122.601H212.288V123.147H210.572V122.601Z" fill="#332B5D"/>
<path d="M162.946 133.098C162.68 133.098 162.559 132.936 162.559 132.762V132.665C162.559 132.49 162.683 132.325 162.946 132.325C163.208 132.325 163.332 132.49 163.332 132.665V132.762C163.332 132.936 163.208 133.098 162.946 133.098ZM165.368 133.491V131.425H166.055C166.445 131.425 166.739 131.611 166.739 131.98C166.739 132.148 166.669 132.358 166.38 132.411C166.695 132.455 166.837 132.709 166.837 132.903C166.837 133.29 166.542 133.491 166.152 133.491H165.368ZM165.695 132.257H166.055C166.297 132.257 166.412 132.181 166.412 132.001C166.412 131.818 166.306 131.732 166.055 131.732H165.695V132.257ZM165.695 133.184H166.152C166.394 133.184 166.509 133.06 166.509 132.883C166.509 132.697 166.374 132.564 166.135 132.564H165.695V133.184ZM166.865 133.491L167.573 131.425H167.974L168.682 133.491H168.334L168.18 133.036H167.363L167.21 133.491H166.865ZM167.458 132.753H168.086L167.773 131.821L167.458 132.753ZM169.55 133.517C169.119 133.517 168.824 133.308 168.686 132.918L168.987 132.833C169.069 133.134 169.308 133.213 169.55 133.213C169.774 133.213 169.942 133.086 169.942 132.912C169.942 132.685 169.689 132.659 169.444 132.6C169.066 132.505 168.762 132.423 168.762 131.989C168.762 131.661 169.043 131.396 169.488 131.396C169.898 131.396 170.161 131.626 170.273 131.992L169.984 132.072C169.895 131.809 169.736 131.703 169.462 131.703C169.279 131.703 169.09 131.785 169.09 132.001C169.09 132.207 169.361 132.257 169.574 132.302C169.922 132.372 170.27 132.482 170.27 132.895C170.27 133.222 169.978 133.517 169.55 133.517ZM170.463 131.425H170.79V133.491H170.463V131.425ZM172.389 132.862L172.719 132.927C172.604 133.302 172.327 133.52 171.884 133.52C171.309 133.52 170.99 133.125 170.99 132.479C170.99 131.777 171.309 131.396 171.884 131.396C172.327 131.396 172.604 131.602 172.719 131.992L172.401 132.095C172.327 131.847 172.159 131.703 171.884 131.703C171.513 131.703 171.318 132.007 171.318 132.479C171.318 132.892 171.513 133.21 171.884 133.21C172.141 133.21 172.306 133.078 172.389 132.862ZM173.431 132.662V131.425H173.758V132.676C173.758 133.033 173.909 133.213 174.192 133.213C174.475 133.213 174.632 133.03 174.632 132.665V131.425H174.959V132.662C174.959 133.113 174.744 133.52 174.186 133.52C173.646 133.52 173.431 133.113 173.431 132.662ZM175.217 133.491V131.425H175.503L176.394 132.865V131.425H176.721V133.491H176.436L175.544 132.051V133.491H175.217ZM176.994 133.491V131.425H177.676C178.172 131.425 178.564 131.862 178.564 132.458C178.564 133.086 178.209 133.491 177.676 133.491H176.994ZM177.321 133.184H177.634C177.976 133.184 178.236 132.957 178.236 132.458C178.236 131.989 177.985 131.732 177.634 131.732H177.321V133.184ZM178.762 131.425H180.084V131.732H179.09V132.266H179.786V132.573H179.09V133.184H180.084V133.491H178.762V131.425ZM180.292 131.425H181.058C181.448 131.425 181.744 131.664 181.744 132.072C181.744 132.417 181.574 132.605 181.328 132.676L181.784 133.491H181.425L180.988 132.712H180.62V133.491H180.292V131.425ZM181.058 131.732H180.62V132.405H181.058C181.301 132.402 181.416 132.322 181.416 132.072C181.416 131.85 181.309 131.732 181.058 131.732ZM182.717 133.517C182.286 133.517 181.992 133.308 181.853 132.918L182.153 132.833C182.236 133.134 182.476 133.213 182.717 133.213C182.941 133.213 183.109 133.086 183.109 132.912C183.109 132.685 182.856 132.659 182.61 132.6C182.233 132.505 181.929 132.423 181.929 131.989C181.929 131.661 182.209 131.396 182.656 131.396C183.065 131.396 183.328 131.626 183.44 131.992L183.15 132.072C183.062 131.809 182.902 131.703 182.629 131.703C182.445 131.703 182.257 131.785 182.257 132.001C182.257 132.207 182.528 132.257 182.741 132.302C183.089 132.372 183.437 132.482 183.437 132.895C183.437 133.222 183.145 133.517 182.717 133.517ZM183.476 131.425H185.11V131.732H184.458V133.491H184.132V131.732H183.476V131.425ZM184.876 133.491L185.584 131.425H185.985L186.693 133.491H186.345L186.192 133.036H185.374L185.221 133.491H184.876ZM185.469 132.753H186.097L185.785 131.821L185.469 132.753ZM186.812 133.491V131.425H187.098L187.989 132.865V131.425H188.317V133.491H188.03L187.14 132.051V133.491H186.812ZM188.589 133.491V131.425H189.27C189.766 131.425 190.158 131.862 190.158 132.458C190.158 133.086 189.805 133.491 189.27 133.491H188.589ZM188.917 133.184H189.229C189.572 133.184 189.83 132.957 189.83 132.458C189.83 131.989 189.58 131.732 189.229 131.732H188.917V133.184ZM190.357 131.425H190.685V133.491H190.357V131.425ZM190.956 133.491V131.425H191.242L192.133 132.865V131.425H192.461V133.491H192.174L191.284 132.051V133.491H190.956ZM193.568 133.52C193.02 133.52 192.682 133.125 192.682 132.479C192.682 131.777 193.001 131.396 193.577 131.396C194.02 131.396 194.293 131.602 194.412 131.992L194.093 132.095C194.017 131.847 193.848 131.703 193.577 131.703C193.208 131.703 193.01 132.007 193.01 132.479C193.01 132.883 193.208 133.21 193.568 133.213C193.898 133.213 194.052 132.948 194.105 132.638H193.45V132.352H194.436V133.491H194.264C194.202 133.491 194.132 133.187 194.132 133.089V133.081C194.04 133.349 193.869 133.52 193.568 133.52ZM195.182 132.479C195.182 131.777 195.501 131.396 196.076 131.396C196.674 131.396 196.973 131.777 196.973 132.479C196.973 133.125 196.674 133.52 196.076 133.52C195.501 133.52 195.182 133.125 195.182 132.479ZM196.076 133.21C196.47 133.21 196.642 132.892 196.642 132.479C196.642 132.007 196.47 131.703 196.076 131.703C195.706 131.703 195.509 132.007 195.509 132.479C195.509 132.892 195.706 133.21 196.076 133.21ZM197.162 131.425H198.454V131.732H197.49V132.325H198.245V132.632H197.49V133.491H197.162V131.425ZM199.048 132.933L199.364 132.856C199.396 133.078 199.532 133.213 199.724 133.213C199.926 133.213 200.065 133.089 200.065 132.727V131.425H200.393V132.729C200.393 133.157 200.204 133.52 199.72 133.52C199.328 133.52 199.106 133.243 199.048 132.933ZM200.502 133.491L201.21 131.425H201.612L202.32 133.491H201.972L201.818 133.036H201.001L200.848 133.491H200.502ZM201.094 132.753H201.724L201.41 131.821L201.094 132.753ZM202.062 131.425H202.41L202.972 133.095L203.534 131.425H203.882L203.174 133.491H202.77L202.062 131.425ZM203.636 133.491L204.344 131.425H204.745L205.453 133.491H205.105L204.952 133.036H204.134L203.981 133.491H203.636ZM204.229 132.753H204.857L204.544 131.821L204.229 132.753ZM206.321 133.517C205.89 133.517 205.596 133.308 205.457 132.918L205.757 132.833C205.84 133.134 206.078 133.213 206.321 133.213C206.545 133.213 206.713 133.086 206.713 132.912C206.713 132.685 206.46 132.659 206.214 132.6C205.837 132.505 205.533 132.423 205.533 131.989C205.533 131.661 205.813 131.396 206.258 131.396C206.669 131.396 206.932 131.626 207.044 131.992L206.754 132.072C206.666 131.809 206.506 131.703 206.233 131.703C206.049 131.703 205.861 131.785 205.861 132.001C205.861 132.207 206.132 132.257 206.345 132.302C206.693 132.372 207.041 132.482 207.041 132.895C207.041 133.222 206.749 133.517 206.321 133.517ZM208.561 132.862L208.892 132.927C208.776 133.302 208.498 133.52 208.057 133.52C207.481 133.52 207.162 133.125 207.162 132.479C207.162 131.777 207.481 131.396 208.057 131.396C208.498 131.396 208.776 131.602 208.892 131.992L208.573 132.095C208.498 131.847 208.33 131.703 208.057 131.703C207.685 131.703 207.49 132.007 207.49 132.479C207.49 132.892 207.685 133.21 208.057 133.21C208.313 133.21 208.478 133.078 208.561 132.862ZM209.048 131.425H209.814C210.204 131.425 210.5 131.664 210.5 132.072C210.5 132.417 210.332 132.605 210.084 132.676L210.541 133.491H210.181L209.744 132.712H209.376V133.491H209.048V131.425ZM209.814 131.732H209.376V132.405H209.814C210.057 132.402 210.172 132.322 210.172 132.072C210.172 131.85 210.065 131.732 209.814 131.732ZM210.724 131.425H211.052V133.491H210.724V131.425ZM211.322 131.425H212.09C212.48 131.425 212.774 131.664 212.774 132.072C212.774 132.511 212.48 132.712 212.09 132.712H211.65V133.491H211.322V131.425ZM212.09 131.732H211.65V132.405H212.09C212.332 132.402 212.446 132.322 212.446 132.072C212.446 131.85 212.341 131.732 212.09 131.732ZM212.776 131.425H214.41V131.732H213.758V133.491H213.432V131.732H212.776V131.425ZM162.946 136.032C162.68 136.032 162.559 135.869 162.559 135.695V135.598C162.559 135.424 162.683 135.259 162.946 135.259C163.208 135.259 163.332 135.424 163.332 135.598V135.695C163.332 135.869 163.208 136.032 162.946 136.032ZM165.229 134.359H165.565L165.911 135.919L166.288 134.359H166.624L166.999 135.919L167.347 134.359H167.681L167.223 136.424H166.855L166.456 134.778L166.055 136.424H165.689L165.229 134.359ZM167.813 134.359H168.58C168.97 134.359 169.265 134.598 169.265 135.005C169.265 135.35 169.096 135.539 168.849 135.61L169.306 136.424H168.946L168.509 135.645H168.141V136.424H167.813V134.359ZM168.58 134.666H168.141V135.338H168.58C168.822 135.335 168.937 135.256 168.937 135.005C168.937 134.784 168.831 134.666 168.58 134.666ZM169.489 134.359H169.817V136.424H169.489V134.359ZM169.935 134.359H171.569V134.666H170.917V136.424H170.589V134.666H169.935V134.359ZM171.686 134.359H173.008V134.666H172.014V135.2H172.71V135.506H172.014V136.117H173.008V136.424H171.686V134.359ZM173.783 134.359H175.075V134.666H174.11V135.259H174.865V135.565H174.11V136.424H173.783V134.359ZM175.251 134.359H176.573V134.666H175.579V135.2H176.275V135.506H175.579V136.117H176.573V136.424H175.251V134.359ZM176.628 134.359H178.262V134.666H177.61V136.424H177.282V134.666H176.628V134.359ZM179.614 135.795L179.945 135.86C179.83 136.235 179.553 136.453 179.11 136.453C178.534 136.453 178.216 136.058 178.216 135.412C178.216 134.71 178.534 134.329 179.11 134.329C179.553 134.329 179.83 134.536 179.945 134.925L179.626 135.029C179.553 134.781 179.385 134.636 179.11 134.636C178.738 134.636 178.544 134.94 178.544 135.412C178.544 135.825 178.738 136.144 179.11 136.144C179.366 136.144 179.532 136.011 179.614 135.795ZM180.142 134.359H180.47V135.383H181.317V134.359H181.644V136.424H181.317V135.689H180.47V136.424H180.142V134.359ZM182.524 134.359H183.29C183.68 134.359 183.974 134.598 183.974 135.005C183.974 135.35 183.806 135.539 183.558 135.61L184.016 136.424H183.656L183.22 135.645H182.85V136.424H182.524V134.359ZM183.29 134.666H182.85V135.338H183.29C183.532 135.335 183.648 135.256 183.648 135.005C183.648 134.784 183.541 134.666 183.29 134.666ZM184.2 134.359H185.521V134.666H184.526V135.2H185.224V135.506H184.526V136.117H185.521V136.424H184.2V134.359ZM187.225 136.651V136.934H186.914C186.708 136.934 186.549 136.819 186.464 136.598L186.404 136.445C185.921 136.383 185.658 136.002 185.658 135.412C185.658 134.71 185.977 134.329 186.552 134.329C187.15 134.329 187.449 134.71 187.445 135.412C187.445 135.984 187.209 136.359 186.744 136.439L186.761 136.489C186.788 136.58 186.853 136.651 187.045 136.651H187.225ZM186.552 136.144C186.948 136.144 187.118 135.825 187.118 135.412C187.118 134.94 186.948 134.636 186.552 134.636C186.18 134.636 185.985 134.94 185.985 135.412C185.985 135.825 186.18 136.144 186.552 136.144ZM187.636 135.595V134.359H187.962V135.61C187.962 135.967 188.113 136.147 188.396 136.147C188.68 136.147 188.836 135.964 188.836 135.598V134.359H189.164V135.595C189.164 136.046 188.948 136.453 188.39 136.453C187.85 136.453 187.636 136.046 187.636 135.595ZM189.421 134.359H190.742V134.666H189.749V135.2H190.445V135.506H189.749V136.117H190.742V136.424H189.421V134.359ZM191.7 136.45C191.269 136.45 190.974 136.241 190.836 135.852L191.136 135.766C191.218 136.067 191.457 136.147 191.7 136.147C191.924 136.147 192.092 136.02 192.092 135.846C192.092 135.619 191.838 135.592 191.593 135.533C191.216 135.439 190.912 135.356 190.912 134.922C190.912 134.595 191.192 134.329 191.637 134.329C192.048 134.329 192.31 134.559 192.422 134.925L192.133 135.005C192.045 134.742 191.885 134.636 191.612 134.636C191.428 134.636 191.24 134.719 191.24 134.934C191.24 135.141 191.51 135.191 191.724 135.235C192.072 135.306 192.42 135.415 192.42 135.828C192.42 136.155 192.128 136.45 191.7 136.45ZM192.458 134.359H194.093V134.666H193.441V136.424H193.113V134.666H192.458V134.359ZM162.946 138.965C162.68 138.965 162.559 138.803 162.559 138.629V138.531C162.559 138.357 162.683 138.192 162.946 138.192C163.208 138.192 163.332 138.357 163.332 138.531V138.629C163.332 138.803 163.208 138.965 162.946 138.965ZM166.117 139.384C165.686 139.384 165.391 139.174 165.253 138.785L165.554 138.699C165.636 139 165.875 139.08 166.117 139.08C166.341 139.08 166.509 138.953 166.509 138.779C166.509 138.552 166.256 138.525 166.011 138.466C165.633 138.372 165.329 138.289 165.329 137.856C165.329 137.528 165.61 137.263 166.055 137.263C166.465 137.263 166.728 137.493 166.84 137.859L166.551 137.938C166.462 137.676 166.303 137.569 166.029 137.569C165.846 137.569 165.657 137.652 165.657 137.867C165.657 138.074 165.928 138.124 166.141 138.168C166.489 138.239 166.837 138.348 166.837 138.761C166.837 139.089 166.545 139.384 166.117 139.384ZM166.95 138.345C166.95 137.643 167.268 137.263 167.844 137.263C168.443 137.263 168.741 137.643 168.741 138.345C168.741 138.991 168.443 139.387 167.844 139.387C167.268 139.387 166.95 138.991 166.95 138.345ZM167.844 139.077C168.239 139.077 168.41 138.758 168.41 138.345C168.41 137.873 168.239 137.569 167.844 137.569C167.475 137.569 167.277 137.873 167.277 138.345C167.277 138.758 167.475 139.077 167.844 139.077ZM168.93 139.357V137.257H169.225L169.854 138.455L170.476 137.257H170.771V139.357H170.444V137.926L169.963 138.906H169.745L169.258 137.926V139.357H168.93ZM171.042 137.292H172.363V137.599H171.369V138.133H172.065V138.44H171.369V139.05H172.363V139.357H171.042V137.292ZM173.126 138.528V137.292H173.453V138.543C173.453 138.9 173.604 139.08 173.887 139.08C174.17 139.08 174.327 138.897 174.327 138.531V137.292H174.654V138.528C174.654 138.98 174.439 139.387 173.881 139.387C173.341 139.387 173.126 138.98 173.126 138.528ZM174.912 139.357V137.292H175.198L176.089 138.732V137.292H176.417V139.357H176.13L175.239 137.918V139.357H174.912ZM176.689 139.357V137.292H177.37C177.866 137.292 178.258 137.729 178.258 138.325C178.258 138.953 177.905 139.357 177.37 139.357H176.689ZM177.017 139.05H177.329C177.672 139.05 177.932 138.823 177.932 138.325C177.932 137.856 177.681 137.599 177.329 137.599H177.017V139.05ZM178.457 137.292H179.78V137.599H178.785V138.133H179.481V138.44H178.785V139.05H179.78V139.357H178.457V137.292ZM179.986 137.292H180.754C181.144 137.292 181.438 137.531 181.438 137.938C181.438 138.283 181.27 138.472 181.022 138.543L181.48 139.357H181.12L180.682 138.578H180.314V139.357H179.986V137.292ZM180.754 137.599H180.314V138.272H180.754C180.996 138.269 181.11 138.189 181.11 137.938C181.11 137.717 181.005 137.599 180.754 137.599ZM182.412 139.384C181.981 139.384 181.686 139.174 181.548 138.785L181.849 138.699C181.932 139 182.17 139.08 182.412 139.08C182.637 139.08 182.805 138.953 182.805 138.779C182.805 138.552 182.55 138.525 182.306 138.466C181.929 138.372 181.625 138.289 181.625 137.856C181.625 137.528 181.905 137.263 182.35 137.263C182.761 137.263 183.022 137.493 183.136 137.859L182.846 137.938C182.757 137.676 182.598 137.569 182.324 137.569C182.141 137.569 181.952 137.652 181.952 137.867C181.952 138.074 182.224 138.124 182.436 138.168C182.784 138.239 183.132 138.348 183.132 138.761C183.132 139.089 182.84 139.384 182.412 139.384ZM183.172 137.292H184.806V137.599H184.154V139.357H183.826V137.599H183.172V137.292ZM184.57 139.357L185.28 137.292H185.68L186.388 139.357H186.04L185.886 138.903H185.069L184.916 139.357H184.57ZM185.164 138.62H185.793L185.48 137.687L185.164 138.62ZM186.508 139.357V137.292H186.793L187.684 138.732V137.292H188.012V139.357H187.725L186.834 137.918V139.357H186.508ZM188.284 139.357V137.292H188.965C189.461 137.292 189.853 137.729 189.853 138.325C189.853 138.953 189.5 139.357 188.965 139.357H188.284ZM188.612 139.05H188.924C189.266 139.05 189.526 138.823 189.526 138.325C189.526 137.856 189.276 137.599 188.924 137.599H188.612V139.05ZM190.053 137.292H190.38V139.357H190.053V137.292ZM190.652 139.357V137.292H190.937L191.828 138.732V137.292H192.156V139.357H191.869L190.978 137.918V139.357H190.652ZM193.264 139.387C192.714 139.387 192.378 138.991 192.378 138.345C192.378 137.643 192.697 137.263 193.272 137.263C193.714 137.263 193.989 137.469 194.106 137.859L193.788 137.962C193.712 137.714 193.544 137.569 193.272 137.569C192.904 137.569 192.705 137.873 192.705 138.345C192.705 138.749 192.904 139.077 193.264 139.08C193.593 139.08 193.746 138.814 193.8 138.505H193.145V138.219H194.13V139.357H193.96C193.897 139.357 193.826 139.053 193.826 138.956V138.947C193.736 139.216 193.564 139.387 193.264 139.387ZM194.877 138.345C194.877 137.643 195.196 137.263 195.77 137.263C196.37 137.263 196.668 137.643 196.668 138.345C196.668 138.991 196.37 139.387 195.77 139.387C195.196 139.387 194.877 138.991 194.877 138.345ZM195.77 139.077C196.166 139.077 196.337 138.758 196.337 138.345C196.337 137.873 196.166 137.569 195.77 137.569C195.402 137.569 195.205 137.873 195.205 138.345C195.205 138.758 195.402 139.077 195.77 139.077ZM196.857 137.292H198.15V137.599H197.185V138.192H197.94V138.499H197.185V139.357H196.857V137.292ZM198.893 137.292H199.221V139.357H198.893V137.292ZM199.492 139.357V137.257H199.786L200.416 138.455L201.038 137.257H201.333V139.357H201.005V137.926L200.525 138.906H200.306L199.82 137.926V139.357H199.492ZM201.453 139.357L202.161 137.292H202.562L203.27 139.357H202.922L202.769 138.903H201.952L201.798 139.357H201.453ZM202.046 138.62H202.674L202.361 137.687L202.046 138.62ZM204.224 139.387C203.674 139.387 203.338 138.991 203.338 138.345C203.338 137.643 203.657 137.263 204.233 137.263C204.676 137.263 204.949 137.469 205.068 137.859L204.749 137.962C204.672 137.714 204.504 137.569 204.233 137.569C203.864 137.569 203.666 137.873 203.666 138.345C203.666 138.749 203.864 139.077 204.224 139.08C204.554 139.08 204.708 138.814 204.761 138.505H204.106V138.219H205.092V139.357H204.92C204.858 139.357 204.788 139.053 204.788 138.956V138.947C204.696 139.216 204.525 139.387 204.224 139.387ZM205.35 137.292H206.672V137.599H205.678V138.133H206.374V138.44H205.678V139.05H206.672V139.357H205.35V137.292ZM207.629 139.384C207.198 139.384 206.904 139.174 206.765 138.785L207.065 138.699C207.148 139 207.386 139.08 207.629 139.08C207.853 139.08 208.021 138.953 208.021 138.779C208.021 138.552 207.768 138.525 207.522 138.466C207.145 138.372 206.841 138.289 206.841 137.856C206.841 137.528 207.121 137.263 207.566 137.263C207.977 137.263 208.24 137.493 208.352 137.859L208.062 137.938C207.974 137.676 207.814 137.569 207.541 137.569C207.357 137.569 207.169 137.652 207.169 137.867C207.169 138.074 207.44 138.124 207.653 138.168C208.001 138.239 208.349 138.348 208.349 138.761C208.349 139.089 208.057 139.384 207.629 139.384Z" fill="black"/>
</g>
<defs>
<filter id="filter0_d_52_1111" x="43" y="48" width="200" height="148.533" filterUnits="userSpaceOnUse" color-interpolation-filters="sRGB">
<feFlood flood-opacity="0" result="BackgroundImageFix"/>
<feColorMatrix in="SourceAlpha" type="matrix" values="0 0 0 0 0 0 0 0 0 0 0 0 0 0 0 0 0 0 127 0" result="hardAlpha"/>
<feOffset dx="4" dy="8"/>
<feGaussianBlur stdDeviation="2"/>
<feComposite in2="hardAlpha" operator="out"/>
<feColorMatrix type="matrix" values="0 0 0 0 0 0 0 0 0 0 0 0 0 0 0 0 0 0 0.25 0"/>
<feBlend mode="normal" in2="BackgroundImageFix" result="effect1_dropShadow_52_1111"/>
<feBlend mode="normal" in="SourceGraphic" in2="effect1_dropShadow_52_1111" result="shape"/>
</filter>
<clipPath id="clip0_52_1111">
<rect width="192" height="136.533" fill="white" transform="translate(43 48)"/>
</clipPath>
</defs>
</svg>
