<svg width="279" height="223" viewBox="0 0 279 223" fill="none" xmlns="http://www.w3.org/2000/svg">
<rect width="279" height="223" fill="#244CB4"/>
<g filter="url(#filter0_d_52_1119)">
<g clip-path="url(#clip0_52_1119)">
<path d="M226.72 49.061H51.061V173.939H226.72V49.061Z" fill="#332B5D"/>
<path d="M226.72 49.061H51.061V173.939H226.72V49.061Z" stroke="black" stroke-width="0.12207"/>
<path d="M79.4275 66.3651V67.8094H81.5706V69.0208H79.4275V71.5831H78.1416V65.1538H81.9432V66.3651H79.4275ZM87.2656 69.2164C87.2656 69.2786 87.2625 69.35 87.2562 69.4307C87.25 69.5052 87.2407 69.5704 87.2283 69.6263H83.4546C83.5354 69.9308 83.6875 70.173 83.9111 70.3531C84.141 70.5333 84.4143 70.6234 84.7312 70.6234C84.9424 70.6234 85.1349 70.5892 85.3088 70.5209C85.4828 70.4464 85.6256 70.3531 85.7374 70.2413H87.0979C86.899 70.6761 86.5885 71.0272 86.1661 71.2943C85.7499 71.5614 85.2654 71.6949 84.7125 71.6949C84.3522 71.6949 84.0137 71.6328 83.6969 71.5085C83.3862 71.3782 83.1161 71.2042 82.8862 70.9868C82.6626 70.7632 82.4856 70.4991 82.3551 70.1948C82.2246 69.8904 82.1594 69.5612 82.1594 69.207C82.1594 68.853 82.2246 68.5238 82.3551 68.2194C82.4856 67.915 82.6626 67.6542 82.8862 67.4366C83.1161 67.2131 83.3862 67.0392 83.6969 66.9149C84.0137 66.7844 84.3522 66.7192 84.7125 66.7192C85.079 66.7192 85.4176 66.7844 85.7281 66.9149C86.0387 67.0392 86.3059 67.2131 86.5295 67.4366C86.7593 67.6603 86.9395 67.9243 87.0699 68.2288C87.2003 68.5331 87.2656 68.8623 87.2656 69.2164ZM84.7125 67.7815C84.4081 67.7815 84.1442 67.8684 83.9205 68.0424C83.7031 68.2163 83.554 68.4492 83.4733 68.7412H85.9611C85.8804 68.4492 85.7251 68.2163 85.4952 68.0424C85.2716 67.8684 85.0106 67.7815 84.7125 67.7815ZM93.1116 66.8311V71.5831H91.9003V70.9589C91.7139 71.1887 91.4902 71.3688 91.2294 71.4993C90.9685 71.6298 90.6765 71.6949 90.3535 71.6949C90.0243 71.6949 89.7168 71.6328 89.431 71.5085C89.1515 71.3782 88.9061 71.2042 88.6949 70.9868C88.49 70.7632 88.3284 70.4991 88.2104 70.1948C88.0924 69.8904 88.0333 69.5612 88.0333 69.207C88.0333 68.853 88.0924 68.5238 88.2104 68.2194C88.3284 67.915 88.49 67.6542 88.6949 67.4366C88.9061 67.2131 89.1515 67.0392 89.431 66.9149C89.7168 66.7844 90.0243 66.7192 90.3535 66.7192C90.6765 66.7192 90.9685 66.7844 91.2294 66.9149C91.4902 67.0454 91.7139 67.2255 91.9003 67.4553V66.8311H93.1116ZM90.5864 70.5209C90.7728 70.5209 90.9468 70.4867 91.1083 70.4185C91.2698 70.3501 91.4095 70.26 91.5276 70.1482C91.6455 70.0302 91.7356 69.8904 91.7977 69.7289C91.8661 69.5674 91.9003 69.3934 91.9003 69.207C91.9003 69.0208 91.8661 68.8468 91.7977 68.6853C91.7356 68.5238 91.6455 68.3871 91.5276 68.2753C91.4095 68.1572 91.2698 68.0641 91.1083 67.9957C90.9468 67.9275 90.7728 67.8933 90.5864 67.8933C90.4001 67.8933 90.2262 67.9275 90.0647 67.9957C89.9093 68.0641 89.7727 68.1572 89.6547 68.2753C89.5366 68.3871 89.4435 68.5238 89.3751 68.6853C89.313 68.8468 89.282 69.0208 89.282 69.207C89.282 69.3934 89.313 69.5674 89.3751 69.7289C89.4435 69.8904 89.5366 70.0302 89.6547 70.1482C89.7727 70.26 89.9093 70.3501 90.0647 70.4185C90.2262 70.4867 90.4001 70.5209 90.5864 70.5209ZM97.1895 67.9398H96.2297V71.5831H95.0184V67.9398H94.1053V66.8311H95.0184V65.4148L96.2297 65.1538V66.8311H97.1895V67.9398ZM102.51 66.8311V71.5831H101.298V71.0054C101.118 71.229 100.907 71.3999 100.665 71.5179C100.423 71.636 100.152 71.6949 99.8541 71.6949C99.587 71.6949 99.3417 71.6515 99.118 71.5645C98.9006 71.4775 98.7144 71.3564 98.559 71.201C98.4037 71.0396 98.2826 70.847 98.1956 70.6234C98.1086 70.3998 98.0652 70.1512 98.0652 69.8779V66.8311H99.2765V69.5239C99.2765 69.8282 99.3634 70.0706 99.5374 70.2507C99.7175 70.4308 99.9567 70.5209 100.255 70.5209C100.572 70.5209 100.823 70.4308 101.01 70.2507C101.202 70.0643 101.298 69.8158 101.298 69.5052V66.8311H102.51ZM105.061 67.5299C105.228 67.2938 105.427 67.1199 105.657 67.0081C105.887 66.8962 106.142 66.8373 106.421 66.8311H106.645V68.0796H106.421C105.98 68.0858 105.641 68.1946 105.406 68.4058C105.176 68.6169 105.061 68.9214 105.061 69.3188V71.5831H103.849V66.8311H105.061V67.5299ZM112.065 69.2164C112.065 69.2786 112.062 69.35 112.056 69.4307C112.05 69.5052 112.04 69.5704 112.028 69.6263H108.254C108.335 69.9308 108.487 70.173 108.711 70.3531C108.941 70.5333 109.214 70.6234 109.531 70.6234C109.742 70.6234 109.934 70.5892 110.108 70.5209C110.282 70.4464 110.425 70.3531 110.537 70.2413H111.897C111.699 70.6761 111.388 71.0272 110.966 71.2943C110.549 71.5614 110.065 71.6949 109.512 71.6949C109.152 71.6949 108.813 71.6328 108.496 71.5085C108.186 71.3782 107.916 71.2042 107.686 70.9868C107.462 70.7632 107.285 70.4991 107.155 70.1948C107.024 69.8904 106.959 69.5612 106.959 69.207C106.959 68.853 107.024 68.5238 107.155 68.2194C107.285 67.915 107.462 67.6542 107.686 67.4366C107.916 67.2131 108.186 67.0392 108.496 66.9149C108.813 66.7844 109.152 66.7192 109.512 66.7192C109.879 66.7192 110.217 66.7844 110.528 66.9149C110.838 67.0392 111.105 67.2131 111.329 67.4366C111.559 67.6603 111.739 67.9243 111.87 68.2288C112 68.5331 112.065 68.8623 112.065 69.2164ZM109.512 67.7815C109.208 67.7815 108.944 67.8684 108.72 68.0424C108.503 68.2163 108.354 68.4492 108.273 68.7412H110.761C110.68 68.4492 110.525 68.2163 110.295 68.0424C110.071 67.8684 109.81 67.7815 109.512 67.7815ZM119.677 66.3651H118.019V71.5831H116.733V66.3651H115.074V65.1538H119.677V66.3651ZM123.403 66.7192C123.683 66.7192 123.935 66.7627 124.158 66.8497C124.388 66.9366 124.584 67.0609 124.745 67.2224C124.913 67.3839 125.04 67.5796 125.127 67.8094C125.214 68.0331 125.258 68.2847 125.258 68.5642V71.5831H124.046V68.9556C124.046 68.6324 123.953 68.3748 123.767 68.1821C123.58 67.9895 123.329 67.8933 123.012 67.8933C122.677 67.8933 122.406 67.9927 122.201 68.1914C121.996 68.384 121.894 68.6449 121.894 68.9741V71.5831H120.683V64.8743H121.894V67.4553C122.26 66.9646 122.764 66.7192 123.403 66.7192ZM131.337 66.8311V71.5831H130.125V70.9589C129.939 71.1887 129.716 71.3688 129.455 71.4993C129.194 71.6298 128.902 71.6949 128.579 71.6949C128.25 71.6949 127.942 71.6328 127.656 71.5085C127.377 71.3782 127.131 71.2042 126.92 70.9868C126.715 70.7632 126.554 70.4991 126.436 70.1948C126.318 69.8904 126.259 69.5612 126.259 69.207C126.259 68.853 126.318 68.5238 126.436 68.2194C126.554 67.915 126.715 67.6542 126.92 67.4366C127.131 67.2131 127.377 67.0392 127.656 66.9149C127.942 66.7844 128.25 66.7192 128.579 66.7192C128.902 66.7192 129.194 66.7844 129.455 66.9149C129.716 67.0454 129.939 67.2255 130.125 67.4553V66.8311H131.337ZM128.812 70.5209C128.998 70.5209 129.172 70.4867 129.333 70.4185C129.495 70.3501 129.635 70.26 129.753 70.1482C129.871 70.0302 129.961 69.8904 130.023 69.7289C130.091 69.5674 130.125 69.3934 130.125 69.207C130.125 69.0208 130.091 68.8468 130.023 68.6853C129.961 68.5238 129.871 68.3871 129.753 68.2753C129.635 68.1572 129.495 68.0641 129.333 67.9957C129.172 67.9275 128.998 67.8933 128.812 67.8933C128.625 67.8933 128.451 67.9275 128.29 67.9957C128.135 68.0641 127.998 68.1572 127.88 68.2753C127.762 68.3871 127.669 68.5238 127.6 68.6853C127.538 68.8468 127.507 69.0208 127.507 69.207C127.507 69.3934 127.538 69.5674 127.6 69.7289C127.669 69.8904 127.762 70.0302 127.88 70.1482C127.998 70.26 128.135 70.3501 128.29 70.4185C128.451 70.4867 128.625 70.5209 128.812 70.5209ZM135.415 67.9398H134.455V71.5831H133.244V67.9398H132.331V66.8311H133.244V65.4148L134.455 65.1538V66.8311H135.415V67.9398ZM142.799 70.3718V71.5831H138.746V65.1538H142.799V66.3651H140.032V67.7441H142.445V68.9556H140.032V70.3718H142.799ZM149.321 66.7192C149.582 66.7192 149.818 66.7627 150.029 66.8497C150.246 66.9304 150.429 67.0485 150.578 67.2037C150.734 67.359 150.852 67.5454 150.933 67.7628C151.02 67.9802 151.063 68.2225 151.063 68.4896V71.5831H149.852V68.853C149.852 68.561 149.768 68.3281 149.6 68.1542C149.432 67.9802 149.206 67.8933 148.92 67.8933C148.622 67.8933 148.38 67.9834 148.193 68.1635C148.013 68.3374 147.923 68.5735 147.923 68.8717V71.5831H146.712V68.853C146.712 68.561 146.625 68.3281 146.451 68.1542C146.283 67.9802 146.059 67.8933 145.78 67.8933C145.482 67.8933 145.239 67.9834 145.053 68.1635C144.867 68.3374 144.774 68.5735 144.774 68.8717V71.5831H143.562V66.8311H144.774V67.3807C145.121 66.9397 145.59 66.7192 146.181 66.7192C146.535 66.7192 146.842 66.7938 147.103 66.9429C147.364 67.0919 147.566 67.3031 147.709 67.5764C148.081 67.005 148.619 66.7192 149.321 66.7192ZM155.087 66.7192C155.417 66.7192 155.721 66.7844 156.001 66.9149C156.286 67.0392 156.532 67.2131 156.737 67.4366C156.942 67.6542 157.103 67.915 157.221 68.2194C157.339 68.5238 157.398 68.853 157.398 69.207C157.398 69.5612 157.339 69.8904 157.221 70.1948C157.103 70.4991 156.942 70.7632 156.737 70.9868C156.532 71.2042 156.286 71.3782 156.001 71.5085C155.721 71.6328 155.417 71.6949 155.087 71.6949C154.764 71.6949 154.472 71.6298 154.212 71.4993C153.951 71.3688 153.727 71.1887 153.541 70.9589V73.3535H152.329V66.8311H153.541V67.4553C153.727 67.2255 153.951 67.0454 154.212 66.9149C154.472 66.7844 154.764 66.7192 155.087 66.7192ZM154.845 70.5209C155.031 70.5209 155.205 70.4867 155.367 70.4185C155.528 70.3501 155.665 70.26 155.777 70.1482C155.895 70.0302 155.985 69.8904 156.047 69.7289C156.115 69.5674 156.15 69.3934 156.15 69.207C156.15 69.0208 156.115 68.8468 156.047 68.6853C155.985 68.5238 155.895 68.3871 155.777 68.2753C155.665 68.1572 155.528 68.0641 155.367 67.9957C155.205 67.9275 155.031 67.8933 154.845 67.8933C154.659 67.8933 154.485 67.9275 154.323 67.9957C154.168 68.0641 154.031 68.1572 153.913 68.2753C153.795 68.3871 153.702 68.5238 153.634 68.6853C153.572 68.8468 153.541 69.0208 153.541 69.207C153.541 69.3934 153.572 69.5674 153.634 69.7289C153.702 69.8904 153.795 70.0302 153.913 70.1482C154.031 70.26 154.168 70.3501 154.323 70.4185C154.485 70.4867 154.659 70.5209 154.845 70.5209ZM160.74 71.6949C160.38 71.6949 160.041 71.6328 159.724 71.5085C159.414 71.3782 159.144 71.2042 158.914 70.9868C158.69 70.7632 158.513 70.4991 158.383 70.1948C158.252 69.8904 158.187 69.5612 158.187 69.207C158.187 68.853 158.252 68.5238 158.383 68.2194C158.513 67.915 158.69 67.6542 158.914 67.4366C159.144 67.2131 159.414 67.0392 159.724 66.9149C160.041 66.7844 160.38 66.7192 160.74 66.7192C161.107 66.7192 161.445 66.7844 161.756 66.9149C162.066 67.0392 162.333 67.2131 162.557 67.4366C162.787 67.6542 162.967 67.915 163.097 68.2194C163.228 68.5238 163.293 68.853 163.293 69.207C163.293 69.5612 163.228 69.8904 163.097 70.1948C162.967 70.4991 162.787 70.7632 162.557 70.9868C162.333 71.2042 162.066 71.3782 161.756 71.5085C161.445 71.6328 161.107 71.6949 160.74 71.6949ZM160.74 70.5209C160.926 70.5209 161.1 70.4867 161.262 70.4185C161.423 70.3501 161.56 70.26 161.672 70.1482C161.79 70.0302 161.88 69.8904 161.942 69.7289C162.01 69.5674 162.045 69.3934 162.045 69.207C162.045 69.0208 162.01 68.8468 161.942 68.6853C161.88 68.5238 161.79 68.3871 161.672 68.2753C161.56 68.1572 161.423 68.0641 161.262 67.9957C161.1 67.9275 160.926 67.8933 160.74 67.8933C160.554 67.8933 160.38 67.9275 160.218 67.9957C160.063 68.0641 159.926 68.1572 159.808 68.2753C159.69 68.3871 159.597 68.5238 159.529 68.6853C159.467 68.8468 159.436 69.0208 159.436 69.207C159.436 69.3934 159.467 69.5674 159.529 69.7289C159.597 69.8904 159.69 70.0302 159.808 70.1482C159.926 70.26 160.063 70.3501 160.218 70.4185C160.38 70.4867 160.554 70.5209 160.74 70.5209ZM171.642 66.8311L169.909 71.5831H168.661L167.608 68.415L166.555 71.5831H165.306L163.573 66.8311H164.822L165.958 70.0457L167.002 66.8311H168.241L169.294 70.0551L170.459 66.8311H171.642ZM177.024 69.2164C177.024 69.2786 177.021 69.35 177.015 69.4307C177.008 69.5052 176.999 69.5704 176.986 69.6263H173.213C173.294 69.9308 173.445 70.173 173.67 70.3531C173.899 70.5333 174.173 70.6234 174.489 70.6234C174.7 70.6234 174.893 70.5892 175.068 70.5209C175.241 70.4464 175.384 70.3531 175.496 70.2413H176.856C176.657 70.6761 176.347 71.0272 175.924 71.2943C175.508 71.5614 175.024 71.6949 174.471 71.6949C174.11 71.6949 173.772 71.6328 173.455 71.5085C173.145 71.3782 172.874 71.2042 172.644 70.9868C172.421 70.7632 172.244 70.4991 172.113 70.1948C171.983 69.8904 171.918 69.5612 171.918 69.207C171.918 68.853 171.983 68.5238 172.113 68.2194C172.244 67.915 172.421 67.6542 172.644 67.4366C172.874 67.2131 173.145 67.0392 173.455 66.9149C173.772 66.7844 174.11 66.7192 174.471 66.7192C174.837 66.7192 175.176 66.7844 175.486 66.9149C175.797 67.0392 176.064 67.2131 176.288 67.4366C176.518 67.6603 176.697 67.9243 176.828 68.2288C176.958 68.5331 177.024 68.8623 177.024 69.2164ZM174.471 67.7815C174.167 67.7815 173.903 67.8684 173.678 68.0424C173.461 68.2163 173.312 68.4492 173.232 68.7412H175.719C175.639 68.4492 175.484 68.2163 175.253 68.0424C175.03 67.8684 174.768 67.7815 174.471 67.7815ZM179.273 67.5299C179.441 67.2938 179.639 67.1199 179.87 67.0081C180.099 66.8962 180.354 66.8373 180.634 66.8311H180.857V68.0796H180.634C180.192 68.0858 179.854 68.1946 179.618 68.4058C179.388 68.6169 179.273 68.9214 179.273 69.3188V71.5831H178.062V66.8311H179.273V67.5299ZM189.661 65.1538L187.145 69.3282V71.5831H185.868V69.3282L183.352 65.1538H184.825L186.521 68.0237L188.217 65.1538H189.661ZM191.659 71.6949C191.298 71.6949 190.96 71.6328 190.644 71.5085C190.332 71.3782 190.063 71.2042 189.833 70.9868C189.609 70.7632 189.432 70.4991 189.301 70.1948C189.172 69.8904 189.106 69.5612 189.106 69.207C189.106 68.853 189.172 68.5238 189.301 68.2194C189.432 67.915 189.609 67.6542 189.833 67.4366C190.063 67.2131 190.332 67.0392 190.644 66.9149C190.96 66.7844 191.298 66.7192 191.659 66.7192C192.026 66.7192 192.364 66.7844 192.675 66.9149C192.985 67.0392 193.252 67.2131 193.476 67.4366C193.705 67.6542 193.886 67.915 194.016 68.2194C194.147 68.5238 194.212 68.853 194.212 69.207C194.212 69.5612 194.147 69.8904 194.016 70.1948C193.886 70.4991 193.705 70.7632 193.476 70.9868C193.252 71.2042 192.985 71.3782 192.675 71.5085C192.364 71.6328 192.026 71.6949 191.659 71.6949ZM191.659 70.5209C191.845 70.5209 192.019 70.4867 192.181 70.4185C192.342 70.3501 192.478 70.26 192.591 70.1482C192.709 70.0302 192.798 69.8904 192.86 69.7289C192.929 69.5674 192.963 69.3934 192.963 69.207C192.963 69.0208 192.929 68.8468 192.86 68.6853C192.798 68.5238 192.709 68.3871 192.591 68.2753C192.478 68.1572 192.342 68.0641 192.181 67.9957C192.019 67.9275 191.845 67.8933 191.659 67.8933C191.473 67.8933 191.298 67.9275 191.137 67.9957C190.982 68.0641 190.845 68.1572 190.727 68.2753C190.609 68.3871 190.515 68.5238 190.447 68.6853C190.385 68.8468 190.354 69.0208 190.354 69.207C190.354 69.3934 190.385 69.5674 190.447 69.7289C190.515 69.8904 190.609 70.0302 190.727 70.1482C190.845 70.26 190.982 70.3501 191.137 70.4185C191.298 70.4867 191.473 70.5209 191.659 70.5209ZM199.638 66.8311V71.5831H198.427V71.0054C198.246 71.229 198.035 71.3999 197.793 71.5179C197.55 71.636 197.281 71.6949 196.983 71.6949C196.715 71.6949 196.47 71.6515 196.247 71.5645C196.029 71.4775 195.843 71.3564 195.688 71.201C195.533 71.0396 195.411 70.847 195.324 70.6234C195.237 70.3998 195.193 70.1512 195.193 69.8779V66.8311H196.405V69.5239C196.405 69.8282 196.492 70.0706 196.665 70.2507C196.846 70.4308 197.085 70.5209 197.383 70.5209C197.701 70.5209 197.952 70.4308 198.138 70.2507C198.33 70.0643 198.427 69.8158 198.427 69.5052V66.8311H199.638Z" fill="white"/>
<path d="M164.977 78.1748H101.424C100.206 78.1748 99.2178 79.1628 99.2178 80.3815V100.683C99.2178 101.902 100.206 102.89 101.424 102.89H164.977C166.195 102.89 167.183 101.902 167.183 100.683V80.3815C167.183 79.1628 166.195 78.1748 164.977 78.1748Z" fill="#C1BBD4"/>
<path d="M176.357 104.729H112.805C111.586 104.729 110.598 105.717 110.598 106.935V127.237C110.598 128.456 111.586 129.443 112.805 129.443H176.357C177.576 129.443 178.564 128.456 178.564 127.237V106.935C178.564 105.717 177.576 104.729 176.357 104.729Z" fill="#393D5E"/>
<path d="M167.084 131.283H103.532C102.313 131.283 101.325 132.271 101.325 133.489V153.791C101.325 155.009 102.313 155.997 103.532 155.997H167.084C168.303 155.997 169.291 155.009 169.291 153.791V133.489C169.291 132.271 168.303 131.283 167.084 131.283Z" fill="#C1BBD4"/>
</g>
</g>
<defs>
<filter id="filter0_d_52_1119" x="51" y="49" width="183.781" height="137" filterUnits="userSpaceOnUse" color-interpolation-filters="sRGB">
<feFlood flood-opacity="0" result="BackgroundImageFix"/>
<feColorMatrix in="SourceAlpha" type="matrix" values="0 0 0 0 0 0 0 0 0 0 0 0 0 0 0 0 0 0 127 0" result="hardAlpha"/>
<feOffset dx="4" dy="8"/>
<feGaussianBlur stdDeviation="2"/>
<feComposite in2="hardAlpha" operator="out"/>
<feColorMatrix type="matrix" values="0 0 0 0 0 0 0 0 0 0 0 0 0 0 0 0 0 0 0.25 0"/>
<feBlend mode="normal" in2="BackgroundImageFix" result="effect1_dropShadow_52_1119"/>
<feBlend mode="normal" in="SourceGraphic" in2="effect1_dropShadow_52_1119" result="shape"/>
</filter>
<clipPath id="clip0_52_1119">
<rect x="51" y="49" width="175.781" height="125" rx="2" fill="white"/>
</clipPath>
</defs>
</svg>
