<svg width="279" height="223" viewBox="0 0 279 223" fill="none" xmlns="http://www.w3.org/2000/svg">
<rect width="279" height="223" fill="#EFD4FF"/>
<g filter="url(#filter0_d_52_1125)">
<g clip-path="url(#clip0_52_1125)">
<mask id="mask0_52_1125" style="mask-type:luminance" maskUnits="userSpaceOnUse" x="50" y="53" width="179" height="128">
<path d="M229 53H50V180.289H229V53Z" fill="white"/>
</mask>
<g mask="url(#mask0_52_1125)">
<path d="M229 53H50V180.289H229V53Z" fill="#EBDFD7"/>
<path d="M82.8167 53H50V181.159H82.8167V53Z" fill="#060606"/>
<path d="M55.0791 60.7075L56.1531 57.575H56.5872L57.6612 60.7075H57.2942L57.0168 59.893H55.719L55.4416 60.7075H55.0791ZM55.822 59.5887H56.9139L56.3679 57.9732L55.822 59.5887ZM58.7997 60.7477C58.303 60.7477 57.9674 60.515 57.8465 60.0989L58.1508 60.0138C58.2359 60.3047 58.4775 60.4479 58.8042 60.4479C59.113 60.4479 59.283 60.3316 59.283 60.1168C59.283 59.8527 58.9832 59.7767 58.7102 59.7095C58.2851 59.6156 57.9226 59.4724 57.9226 59.0517C57.9226 58.6579 58.218 58.4252 58.7326 58.4252C59.2159 58.4252 59.5068 58.6624 59.6142 59.0741L59.3143 59.1457C59.2293 58.8369 59.019 58.725 58.7147 58.725C58.4238 58.725 58.2448 58.8459 58.2448 59.0562C58.2448 59.3202 58.5312 59.3829 58.8131 59.45C59.2248 59.5484 59.6052 59.6693 59.6052 60.1033C59.6052 60.4971 59.3054 60.7477 58.7997 60.7477ZM60.9283 60.7522C60.3913 60.7522 60.0019 60.3629 60.0019 59.5977C60.0019 58.8145 60.3913 58.4252 60.9283 58.4252C61.4474 58.4252 61.7382 58.6982 61.8456 59.1457L61.5324 59.1949C61.4519 58.9398 61.3176 58.725 60.9283 58.725C60.4718 58.725 60.3242 59.1815 60.3242 59.5977C60.3242 59.9959 60.4718 60.4524 60.9283 60.4524C61.331 60.4524 61.4608 60.2152 61.5324 59.9915L61.8456 60.0452C61.7427 60.4748 61.4474 60.7567 60.9283 60.7522ZM63.7265 60.0675L64.0219 60.1123C63.9055 60.4971 63.6236 60.7612 63.1314 60.7522C62.6078 60.7522 62.2184 60.3584 62.2184 59.5932C62.2184 58.8145 62.6078 58.4252 63.1314 58.4252C63.6012 58.4252 64.0577 58.7071 64.0487 59.629H62.5093C62.5183 60.0407 62.6839 60.4748 63.1314 60.4748C63.5073 60.4748 63.646 60.2734 63.7265 60.0675ZM63.1314 58.6982C62.7555 58.6982 62.5809 59.007 62.5272 59.356H63.7355C63.6773 58.8638 63.4357 58.6982 63.1314 58.6982ZM64.6423 60.7075V58.47H64.8303C64.8929 58.47 64.9645 58.8369 64.9645 58.9667C65.0674 58.6176 65.2778 58.4252 65.6671 58.4252C66.2623 58.4252 66.5129 58.9175 66.5129 59.5932V60.7075H66.1907V59.5932C66.1907 59.1502 66.0385 58.725 65.6134 58.725C65.139 58.725 64.9645 59.0696 64.9645 59.7051V60.7075H64.6423ZM67.942 60.7477C67.4453 60.7477 67.1096 60.515 66.9888 60.0989L67.2931 60.0138C67.3781 60.3047 67.6198 60.4479 67.9465 60.4479C68.2552 60.4479 68.4253 60.3316 68.4253 60.1168C68.4253 59.8527 68.1255 59.7767 67.8525 59.7095C67.4274 59.6156 67.0649 59.4724 67.0649 59.0517C67.0649 58.6579 67.3602 58.4252 67.8749 58.4252C68.3582 58.4252 68.649 58.6624 68.7564 59.0741L68.4566 59.1457C68.3716 58.8369 68.1613 58.725 67.857 58.725C67.5661 58.725 67.3871 58.8459 67.3871 59.0562C67.3871 59.3202 67.6735 59.3829 67.9554 59.45C68.3671 59.5484 68.7475 59.6693 68.7475 60.1033C68.7475 60.4971 68.4477 60.7477 67.942 60.7477ZM69.2427 57.8211C69.2427 57.6645 69.3188 57.5884 69.4799 57.5884C69.6276 57.5884 69.7081 57.6645 69.7081 57.8211C69.7081 57.9598 69.6276 58.0448 69.4799 58.0448C69.3188 58.0448 69.2427 57.9598 69.2427 57.8211ZM69.3188 58.47H69.6365V60.7075H69.3188V58.47ZM70.2062 59.6111C70.2062 58.8235 70.5687 58.4252 71.1907 58.4252C71.8127 58.4252 72.1797 58.8235 72.1797 59.6111C72.1797 60.3539 71.8127 60.7522 71.1907 60.7522C70.5687 60.7522 70.2062 60.3539 70.2062 59.6111ZM71.1907 60.4524C71.6427 60.4524 71.8575 60.1257 71.8575 59.6111C71.8575 59.0517 71.6427 58.725 71.1907 58.725C70.7432 58.725 70.5284 59.0517 70.5284 59.6111C70.5284 60.1257 70.7432 60.4524 71.1907 60.4524ZM72.7314 60.7075V58.47H72.9193C72.982 58.47 73.0536 58.8369 73.0536 58.9667C73.1565 58.6176 73.3668 58.4252 73.7561 58.4252C74.3513 58.4252 74.6019 58.9175 74.6019 59.5932V60.7075H74.2797V59.5932C74.2797 59.1502 74.1276 58.725 73.7024 58.725C73.2281 58.725 73.0536 59.0696 73.0536 59.7051V60.7075H72.7314ZM76.0311 60.7477C75.5343 60.7477 75.1987 60.515 75.0779 60.0989L75.3822 60.0138C75.4672 60.3047 75.7089 60.4479 76.0355 60.4479C76.3443 60.4479 76.5144 60.3316 76.5144 60.1168C76.5144 59.8527 76.2145 59.7767 75.9416 59.7095C75.5164 59.6156 75.154 59.4724 75.154 59.0517C75.154 58.6579 75.4493 58.4252 75.9639 58.4252C76.4472 58.4252 76.7381 58.6624 76.8455 59.0741L76.5457 59.1457C76.4607 58.8369 76.2503 58.725 75.946 58.725C75.6552 58.725 75.4762 58.8459 75.4762 59.0562C75.4762 59.3202 75.7626 59.3829 76.0445 59.45C76.4562 59.5484 76.8366 59.6693 76.8366 60.1033C76.8366 60.4971 76.5367 60.7477 76.0311 60.7477Z" fill="white"/>
<path d="M74.8611 73.759H57.9555C56.3079 73.759 54.9722 75.0947 54.9722 76.7424C54.9722 78.39 56.3079 79.7257 57.9555 79.7257H74.8611C76.5087 79.7257 77.8444 78.39 77.8444 76.7424C77.8444 75.0947 76.5087 73.759 74.8611 73.759Z" fill="white"/>
<path d="M60.0687 76.7426C60.0687 75.5755 59.1226 74.6294 57.9555 74.6294C56.7884 74.6294 55.8423 75.5755 55.8423 76.7426C55.8423 77.9097 56.7884 78.8558 57.9555 78.8558C59.1226 78.8558 60.0687 77.9097 60.0687 76.7426Z" fill="#D445A5"/>
<path fill-rule="evenodd" clip-rule="evenodd" d="M57.9557 75.6238C58.0243 75.6238 58.08 75.6795 58.08 75.7481V76.6182H58.9501C59.0188 76.6182 59.0744 76.6739 59.0744 76.7425C59.0744 76.8111 59.0188 76.8668 58.9501 76.8668H58.08V77.737C58.08 77.8056 58.0243 77.8613 57.9557 77.8613C57.887 77.8613 57.8314 77.8056 57.8314 77.737V76.8668H56.9612C56.8926 76.8668 56.8369 76.8111 56.8369 76.7425C56.8369 76.6739 56.8926 76.6182 56.9612 76.6182H57.8314V75.7481C57.8314 75.6795 57.887 75.6238 57.9557 75.6238Z" fill="white"/>
<path d="M62.2478 75.9005L62.3835 75.9284C62.3157 76.1424 62.1573 76.2625 61.9154 76.2625C61.59 76.2625 61.4072 76.0345 61.4072 75.6482C61.4072 75.2288 61.59 75.0095 61.9154 75.0095C62.1555 75.0095 62.3122 75.1244 62.3818 75.3437L62.253 75.3889C62.1991 75.2218 62.0807 75.1366 61.9154 75.1366C61.6857 75.1366 61.5412 75.3106 61.5412 75.6482C61.5412 75.9528 61.6857 76.1355 61.9154 76.1355C62.0755 76.1355 62.1921 76.0537 62.2478 75.9005ZM62.5945 76.2451V75.375H62.6676C62.6919 75.375 62.7198 75.5177 62.7198 75.5751V75.589C62.7702 75.4394 62.8694 75.3576 63.0278 75.3576V75.4829C62.8433 75.4829 62.7302 75.6082 62.7198 75.8553V76.2451H62.5945ZM63.7339 75.9963L63.8487 76.0137C63.8035 76.1633 63.6938 76.266 63.5024 76.2625C63.2988 76.2625 63.1474 76.1094 63.1474 75.8118C63.1474 75.509 63.2988 75.3576 63.5024 75.3576C63.6851 75.3576 63.8626 75.4672 63.8592 75.8257H63.2605C63.264 75.9858 63.3284 76.1546 63.5024 76.1546C63.6486 76.1546 63.7025 76.0763 63.7339 75.9963ZM63.5024 75.4637C63.3562 75.4637 63.2883 75.5838 63.2675 75.7196H63.7373C63.7147 75.5281 63.6207 75.4637 63.5024 75.4637ZM64.1753 75.643L64.0604 75.6099C64.097 75.462 64.2205 75.3576 64.4137 75.3576C64.6277 75.3576 64.7496 75.5107 64.7478 75.7039V76.2451H64.6747C64.6486 76.2451 64.6225 76.1024 64.6225 76.045V76.0363C64.579 76.1825 64.4885 76.2625 64.3319 76.2625C64.1405 76.2625 64.0169 76.1494 64.0169 75.9928C64.0169 75.7335 64.3963 75.7335 64.6225 75.7335V75.7004C64.6225 75.5647 64.5477 75.4742 64.4137 75.4742C64.2832 75.4742 64.2066 75.5316 64.1753 75.643ZM64.1422 75.9893C64.1422 76.0763 64.2188 76.1494 64.3441 76.1494C64.5233 76.1494 64.6086 76.0345 64.6208 75.8205C64.4293 75.8205 64.1422 75.824 64.1422 75.9893ZM64.912 75.375H65.0721V75.3732C65.0721 75.3158 65.0982 75.1731 65.1243 75.1731H65.1974V75.375H65.4411V75.4916H65.1974V75.9719C65.1974 76.0572 65.1957 76.1285 65.3123 76.1285H65.4411V76.2451H65.2636C65.1069 76.2451 65.0721 76.132 65.0721 75.9649V75.4916H64.912V75.375ZM66.1794 75.9963L66.2943 76.0137C66.2491 76.1633 66.1394 76.266 65.948 76.2625C65.7444 76.2625 65.593 76.1094 65.593 75.8118C65.593 75.509 65.7444 75.3576 65.948 75.3576C66.1307 75.3576 66.3082 75.4672 66.3047 75.8257H65.7061C65.7096 75.9858 65.774 76.1546 65.948 76.1546C66.0942 76.1546 66.1481 76.0763 66.1794 75.9963ZM65.948 75.4637C65.8018 75.4637 65.7339 75.5838 65.713 75.7196H66.1829C66.1603 75.5281 66.0663 75.4637 65.948 75.4637ZM66.9859 76.2451V75.375H67.059C67.0834 75.375 67.1112 75.5177 67.1112 75.5682C67.1513 75.4324 67.2331 75.3576 67.3845 75.3576C67.6159 75.3576 67.7134 75.549 67.7134 75.8118V76.2451H67.5881V75.8118C67.5881 75.6395 67.5289 75.4742 67.3636 75.4742C67.1791 75.4742 67.1112 75.6082 67.1112 75.8553V76.2451H66.9859ZM68.5145 75.9963L68.6294 76.0137C68.5841 76.1633 68.4745 76.266 68.2831 76.2625C68.0795 76.2625 67.928 76.1094 67.928 75.8118C67.928 75.509 68.0795 75.3576 68.2831 75.3576C68.4658 75.3576 68.6433 75.4672 68.6398 75.8257H68.0412C68.0446 75.9858 68.109 76.1546 68.2831 76.1546C68.4292 76.1546 68.4832 76.0763 68.5145 75.9963ZM68.2831 75.4637C68.1369 75.4637 68.069 75.5838 68.0481 75.7196H68.518C68.4954 75.5281 68.4014 75.4637 68.2831 75.4637ZM68.9793 76.2451L68.7409 75.375H68.8731L69.0646 76.1181L69.2699 75.375H69.3726L69.5762 76.1146L69.7694 75.375H69.9016L69.6632 76.2451H69.5014L69.3221 75.5647L69.1411 76.2451H68.9793ZM61.5743 78.8307H61.449V77.6125H61.5221C61.5447 77.6125 61.5708 77.736 61.5743 77.8004C61.6143 77.6664 61.6961 77.5951 61.8458 77.5951C62.0772 77.5951 62.1747 77.7865 62.1747 78.0475V78.0493C62.1729 78.3121 62.0755 78.5018 61.8458 78.5018C61.6961 78.5018 61.6143 78.4304 61.5743 78.2982V78.8307ZM61.8249 77.7117C61.6578 77.7117 61.5865 77.8231 61.5743 78.0284V78.0684C61.5865 78.2738 61.6578 78.3852 61.8249 78.3852C61.9902 78.3852 62.0494 78.2198 62.0494 78.0475C62.0494 77.8753 61.9902 77.7117 61.8249 77.7117ZM62.3922 78.4826V77.6125H62.4653C62.4897 77.6125 62.5175 77.7552 62.5175 77.8126V77.8265C62.568 77.6769 62.6672 77.5951 62.8256 77.5951V77.7204C62.6411 77.7204 62.528 77.8457 62.5175 78.0928V78.4826H62.3922ZM62.9312 78.0563C62.9312 77.75 63.0722 77.5951 63.3141 77.5951C63.556 77.5951 63.6987 77.75 63.6987 78.0563C63.6987 78.3451 63.556 78.5 63.3141 78.5C63.0722 78.5 62.9312 78.3451 62.9312 78.0563ZM63.3141 78.3834C63.4898 78.3834 63.5734 78.2564 63.5734 78.0563C63.5734 77.8387 63.4898 77.7117 63.3141 77.7117C63.14 77.7117 63.0565 77.8387 63.0565 78.0563C63.0565 78.2564 63.14 78.3834 63.3141 78.3834ZM63.8697 77.3601C63.8697 77.2992 63.8993 77.2696 63.962 77.2696C64.0194 77.2696 64.0507 77.2992 64.0507 77.3601C64.0507 77.4141 64.0194 77.4472 63.962 77.4472C63.8993 77.4472 63.8697 77.4141 63.8697 77.3601ZM63.8993 77.6125H64.0229V78.5505C64.0229 78.7158 63.9881 78.8307 63.8314 78.8307H63.7549V78.7141H63.7844C63.901 78.7141 63.8993 78.6427 63.8993 78.5575V77.6125ZM64.8266 78.2338L64.9415 78.2512C64.8962 78.4008 64.7866 78.5035 64.5952 78.5C64.3916 78.5 64.2402 78.3469 64.2402 78.0493C64.2402 77.7465 64.3916 77.5951 64.5952 77.5951C64.7779 77.5951 64.9554 77.7047 64.9519 78.0632H64.3533C64.3567 78.2233 64.4211 78.3921 64.5952 78.3921C64.7414 78.3921 64.7953 78.3138 64.8266 78.2338ZM64.5952 77.7012C64.449 77.7012 64.3811 77.8213 64.3602 77.9571H64.8301C64.8075 77.7656 64.7135 77.7012 64.5952 77.7012ZM65.4821 78.5C65.2733 78.5 65.1218 78.3486 65.1218 78.051C65.1218 77.7465 65.2733 77.5951 65.4821 77.5951C65.684 77.5951 65.7971 77.7012 65.8388 77.8753L65.717 77.8944C65.6857 77.7952 65.6335 77.7117 65.4821 77.7117C65.3046 77.7117 65.2472 77.8892 65.2472 78.051C65.2472 78.2059 65.3046 78.3834 65.4821 78.3834C65.6387 78.3834 65.6892 78.2912 65.717 78.2042L65.8388 78.2251C65.7988 78.3921 65.684 78.5018 65.4821 78.5ZM65.9351 77.6125H66.0952V77.6107C66.0952 77.5533 66.1213 77.4106 66.1474 77.4106H66.2205V77.6125H66.4641V77.7291H66.2205V78.2094C66.2205 78.2947 66.2187 78.366 66.3353 78.366H66.4641V78.4826H66.2866C66.13 78.4826 66.0952 78.3695 66.0952 78.2024V77.7291H65.9351V77.6125Z" fill="#171717"/>
<path d="M74.8611 114.656H57.9555C56.3079 114.656 54.9722 115.991 54.9722 117.639C54.9722 119.287 56.3079 120.622 57.9555 120.622H74.8611C76.5087 120.622 77.8444 119.287 77.8444 117.639C77.8444 115.991 76.5087 114.656 74.8611 114.656Z" fill="white"/>
<path d="M60.0687 117.639C60.0687 116.472 59.1226 115.526 57.9555 115.526C56.7884 115.526 55.8423 116.472 55.8423 117.639C55.8423 118.806 56.7884 119.752 57.9555 119.752C59.1226 119.752 60.0687 118.806 60.0687 117.639Z" fill="#D445A5"/>
<path d="M61.8524 118.276C61.6 118.276 61.4417 118.154 61.3721 117.925L61.4956 117.89C61.5426 118.076 61.6731 118.151 61.8541 118.151C62.0073 118.151 62.1204 118.057 62.1204 117.939C62.1204 117.777 61.9603 117.749 61.8037 117.711C61.5896 117.658 61.4138 117.601 61.4138 117.363C61.4138 117.175 61.5739 117.025 61.8141 117.025C62.0577 117.025 62.2039 117.155 62.2596 117.375L62.1395 117.404C62.0925 117.234 61.9933 117.152 61.8054 117.152C61.6662 117.152 61.5478 117.23 61.5478 117.364C61.5478 117.517 61.7062 117.554 61.8559 117.587C62.0595 117.632 62.2544 117.697 62.2544 117.928C62.2544 118.116 62.0908 118.276 61.8524 118.276ZM63.0197 118.012L63.1346 118.029C63.0894 118.179 62.9797 118.281 62.7883 118.278C62.5847 118.278 62.4333 118.125 62.4333 117.827C62.4333 117.524 62.5847 117.373 62.7883 117.373C62.971 117.373 63.1485 117.483 63.145 117.841H62.5464C62.5499 118.001 62.6143 118.17 62.7883 118.17C62.9345 118.17 62.9884 118.092 63.0197 118.012ZM62.7883 117.479C62.6421 117.479 62.5742 117.599 62.5533 117.735H63.0232C63.0006 117.544 62.9066 117.479 62.7883 117.479ZM63.2802 117.39H63.4403V117.389C63.4403 117.331 63.4664 117.188 63.4925 117.188H63.5656V117.39H63.9745V117.389C63.9745 117.331 64.0006 117.188 64.0267 117.188H64.0998V117.39H64.3435V117.507H64.0998V117.987C64.0998 118.073 64.0981 118.144 64.2147 118.144H64.3435V118.26H64.166C64.0093 118.26 63.9745 118.147 63.9745 117.98V117.507H63.5656V117.987C63.5656 118.073 63.5638 118.144 63.6804 118.144H63.8092V118.26H63.6317C63.4751 118.26 63.4403 118.147 63.4403 117.98V117.507H63.2802V117.39ZM64.5191 117.138C64.5191 117.077 64.5487 117.048 64.6113 117.048C64.6688 117.048 64.7001 117.077 64.7001 117.138C64.7001 117.192 64.6688 117.225 64.6113 117.225C64.5487 117.225 64.5191 117.192 64.5191 117.138ZM64.5487 117.39H64.6723V118.26H64.5487V117.39ZM64.9547 118.26V117.39H65.0278C65.0521 117.39 65.08 117.533 65.08 117.584C65.12 117.448 65.2018 117.373 65.3532 117.373C65.5847 117.373 65.6821 117.564 65.6821 117.827V118.26H65.5568V117.827C65.5568 117.655 65.4976 117.49 65.3323 117.49C65.1479 117.49 65.08 117.624 65.08 117.871V118.26H64.9547ZM66.6103 118.26C66.6103 118.485 66.4815 118.617 66.2518 118.617C66.043 118.617 65.9386 118.49 65.9159 118.341L66.0395 118.334C66.0604 118.433 66.1178 118.518 66.264 118.518C66.4102 118.518 66.485 118.428 66.485 118.26V118.069C66.445 118.207 66.3632 118.28 66.2118 118.28C65.9803 118.28 65.8829 118.088 65.8829 117.827V117.825C65.8846 117.563 65.9821 117.373 66.2118 117.373C66.3632 117.373 66.445 117.448 66.485 117.584C66.4867 117.523 66.5146 117.39 66.5372 117.39H66.6103V118.26ZM66.2327 117.49C66.0673 117.49 66.0082 117.655 66.0082 117.827C66.0082 117.999 66.0673 118.163 66.2327 118.163C66.405 118.163 66.4763 118.045 66.485 117.825C66.4763 117.608 66.405 117.49 66.2327 117.49ZM67.1709 118.276C66.9778 118.276 66.8472 118.186 66.8002 118.024L66.9186 117.991C66.9517 118.104 67.0456 118.16 67.1727 118.16C67.2927 118.16 67.3589 118.114 67.3589 118.031C67.3589 117.928 67.2423 117.899 67.1361 117.872C66.9708 117.836 66.8298 117.78 66.8298 117.617C66.8298 117.463 66.9447 117.373 67.1448 117.373C67.3328 117.373 67.4459 117.465 67.4877 117.625L67.3711 117.653C67.338 117.533 67.2562 117.49 67.1379 117.49C67.0247 117.49 66.9551 117.537 66.9551 117.618C66.9551 117.721 67.0665 117.745 67.1761 117.771C67.3363 117.81 67.4842 117.857 67.4842 118.026C67.4842 118.179 67.3676 118.276 67.1709 118.276Z" fill="#171717"/>
<path d="M74.8611 91.5349H57.9555C56.3079 91.5349 54.9722 92.8706 54.9722 94.5182C54.9722 96.1659 56.3079 97.5016 57.9555 97.5016H74.8611C76.5087 97.5016 77.8444 96.1659 77.8444 94.5182C77.8444 92.8706 76.5087 91.5349 74.8611 91.5349Z" fill="white"/>
<path d="M60.0687 94.5182C60.0687 93.3511 59.1226 92.405 57.9555 92.405C56.7884 92.405 55.8423 93.3511 55.8423 94.5182C55.8423 95.6853 56.7884 96.6314 57.9555 96.6314C59.1226 96.6314 60.0687 95.6853 60.0687 94.5182Z" fill="#D445A5"/>
<path fill-rule="evenodd" clip-rule="evenodd" d="M57.9557 93.3997C58.0243 93.3997 58.08 93.4553 58.08 93.524V94.3941H58.9501C59.0188 94.3941 59.0744 94.4498 59.0744 94.5184C59.0744 94.587 59.0188 94.6427 58.9501 94.6427H58.08V95.5129C58.08 95.5815 58.0243 95.6372 57.9557 95.6372C57.887 95.6372 57.8314 95.5815 57.8314 95.5129V94.6427H56.9612C56.8926 94.6427 56.8369 94.587 56.8369 94.5184C56.8369 94.4498 56.8926 94.3941 56.9612 94.3941H57.8314V93.524C57.8314 93.4553 57.887 93.3997 57.9557 93.3997Z" fill="white"/>
<path d="M61.4585 93.9211H61.8849C62.1146 93.9229 62.2729 94.0586 62.2729 94.2901C62.2729 94.5407 62.1146 94.6486 61.8849 94.6503H61.5925V95.1393H61.4585V93.9211ZM61.8849 94.0482H61.5925V94.5233H61.8849C62.0432 94.5215 62.1389 94.4745 62.1389 94.2901C62.1389 94.1248 62.0467 94.0499 61.8849 94.0482ZM62.4728 95.1393V94.2692H62.5459C62.5703 94.2692 62.5981 94.4119 62.5981 94.4693V94.4832C62.6486 94.3336 62.7478 94.2518 62.9062 94.2518V94.3771C62.7217 94.3771 62.6086 94.5024 62.5981 94.7495V95.1393H62.4728ZM63.0119 94.713C63.0119 94.4067 63.1529 94.2518 63.3948 94.2518C63.6367 94.2518 63.7794 94.4067 63.7794 94.713C63.7794 95.0019 63.6367 95.1567 63.3948 95.1567C63.1529 95.1567 63.0119 95.0019 63.0119 94.713ZM63.3948 95.0401C63.5706 95.0401 63.6541 94.9131 63.6541 94.713C63.6541 94.4954 63.5706 94.3684 63.3948 94.3684C63.2208 94.3684 63.1372 94.4954 63.1372 94.713C63.1372 94.9131 63.2208 95.0401 63.3948 95.0401ZM63.994 95.1393V94.2692H64.067C64.0914 94.2692 64.1193 94.4119 64.1193 94.4624C64.1593 94.3266 64.2411 94.2518 64.3925 94.2518C64.57 94.2518 64.6692 94.3649 64.7057 94.5355C64.7353 94.3527 64.8188 94.2518 64.9946 94.2518C65.2261 94.2518 65.3235 94.4432 65.3235 94.706V95.1393H65.1982V94.706C65.1982 94.5337 65.1391 94.3684 64.9737 94.3684C64.7893 94.3684 64.7214 94.5024 64.7214 94.7495V95.1393H64.5961V94.706C64.5961 94.5337 64.5369 94.3684 64.3716 94.3684C64.1871 94.3684 64.1193 94.5024 64.1193 94.7495V95.1393H63.994ZM65.7116 95.4874H65.5863V94.2692H65.6594C65.682 94.2692 65.7081 94.3928 65.7116 94.4571C65.7516 94.3231 65.8334 94.2518 65.9831 94.2518C66.2146 94.2518 66.312 94.4432 66.312 94.7043V94.706C66.3103 94.9688 66.2128 95.1585 65.9831 95.1585C65.8334 95.1585 65.7516 95.0871 65.7116 94.9549V95.4874ZM65.9622 94.3684C65.7951 94.3684 65.7238 94.4798 65.7116 94.6851V94.7251C65.7238 94.9305 65.7951 95.0419 65.9622 95.0419C66.1275 95.0419 66.1867 94.8766 66.1867 94.7043C66.1867 94.532 66.1275 94.3684 65.9622 94.3684ZM66.4185 94.2692H66.5786V94.2675C66.5786 94.21 66.6047 94.0673 66.6308 94.0673H66.7039V94.2692H66.9476V94.3858H66.7039V94.8661C66.7039 94.9514 66.7022 95.0227 66.8188 95.0227H66.9476V95.1393H66.7701C66.6134 95.1393 66.5786 95.0262 66.5786 94.8592V94.3858H66.4185V94.2692ZM67.4406 95.155C67.2474 95.155 67.1169 95.0645 67.0699 94.9027L67.1882 94.8696C67.2213 94.9827 67.3153 95.0384 67.4423 95.0384C67.5624 95.0384 67.6285 94.9932 67.6285 94.9096C67.6285 94.8069 67.5119 94.7774 67.4058 94.7513C67.2404 94.7147 67.0995 94.659 67.0995 94.4954C67.0995 94.3423 67.2143 94.2518 67.4145 94.2518C67.6024 94.2518 67.7155 94.344 67.7573 94.5041L67.6407 94.532C67.6076 94.4119 67.5258 94.3684 67.4075 94.3684C67.2944 94.3684 67.2248 94.4154 67.2248 94.4972C67.2248 94.5999 67.3362 94.6242 67.4458 94.6503C67.6059 94.6886 67.7538 94.7356 67.7538 94.9044C67.7538 95.0575 67.6372 95.155 67.4406 95.155Z" fill="#171717"/>
<path d="M74.8611 99.2417H57.9555C56.3079 99.2417 54.9722 100.577 54.9722 102.225C54.9722 103.873 56.3079 105.208 57.9555 105.208H74.8611C76.5087 105.208 77.8444 103.873 77.8444 102.225C77.8444 100.577 76.5087 99.2417 74.8611 99.2417Z" fill="white"/>
<path d="M60.0687 102.225C60.0687 101.058 59.1226 100.112 57.9555 100.112C56.7884 100.112 55.8423 101.058 55.8423 102.225C55.8423 103.392 56.7884 104.338 57.9555 104.338C59.1226 104.338 60.0687 103.392 60.0687 102.225Z" fill="#D445A5"/>
<path d="M61.4585 102.846V101.628H61.8205C62.1355 101.628 62.3426 101.905 62.3426 102.237C62.3426 102.591 62.1494 102.846 61.8205 102.846H61.4585ZM61.5925 102.719H61.8048C62.0484 102.719 62.2086 102.542 62.2086 102.237C62.2086 101.954 62.0519 101.755 61.8048 101.755H61.5925V102.719ZM62.6602 102.244L62.5453 102.211C62.5818 102.063 62.7054 101.959 62.8986 101.959C63.1126 101.959 63.2344 102.112 63.2327 102.305V102.846H63.1596C63.1335 102.846 63.1074 102.704 63.1074 102.646V102.638C63.0639 102.784 62.9734 102.864 62.8168 102.864C62.6254 102.864 62.5018 102.751 62.5018 102.594C62.5018 102.335 62.8812 102.335 63.1074 102.335V102.302C63.1074 102.166 63.0326 102.075 62.8986 102.075C62.7681 102.075 62.6915 102.133 62.6602 102.244ZM62.6271 102.591C62.6271 102.678 62.7037 102.751 62.829 102.751C63.0082 102.751 63.0935 102.636 63.1057 102.422C62.9142 102.422 62.6271 102.425 62.6271 102.591ZM63.3969 101.976H63.557V101.974C63.557 101.917 63.5831 101.774 63.6092 101.774H63.6823V101.976H63.926V102.093H63.6823V102.573C63.6823 102.658 63.6806 102.73 63.7972 102.73H63.926V102.846H63.7485C63.5918 102.846 63.557 102.733 63.557 102.566V102.093H63.3969V101.976ZM64.2101 102.244L64.0953 102.211C64.1318 102.063 64.2554 101.959 64.4485 101.959C64.6626 101.959 64.7844 102.112 64.7827 102.305V102.846H64.7096C64.6835 102.846 64.6574 102.704 64.6574 102.646V102.638C64.6139 102.784 64.5234 102.864 64.3667 102.864C64.1753 102.864 64.0518 102.751 64.0518 102.594C64.0518 102.335 64.4311 102.335 64.6574 102.335V102.302C64.6574 102.166 64.5825 102.075 64.4485 102.075C64.318 102.075 64.2414 102.133 64.2101 102.244ZM64.1771 102.591C64.1771 102.678 64.2536 102.751 64.3789 102.751C64.5582 102.751 64.6435 102.636 64.6556 102.422C64.4642 102.422 64.1771 102.425 64.1771 102.591ZM65.5168 101.628H66.2338V101.755H65.6508V102.189H66.1242V102.316H65.6508V102.846H65.5168V101.628ZM66.4254 101.724C66.4254 101.663 66.455 101.633 66.5176 101.633C66.575 101.633 66.6064 101.663 66.6064 101.724C66.6064 101.778 66.575 101.811 66.5176 101.811C66.455 101.811 66.4254 101.778 66.4254 101.724ZM66.455 101.976H66.5785V102.846H66.455V101.976ZM66.8609 101.628H66.9862V102.846H66.8609V101.628ZM67.8016 102.598L67.9164 102.615C67.8712 102.765 67.7615 102.867 67.5701 102.864C67.3665 102.864 67.2151 102.711 67.2151 102.413C67.2151 102.11 67.3665 101.959 67.5701 101.959C67.7528 101.959 67.9303 102.068 67.9269 102.427H67.3282C67.3317 102.587 67.3961 102.756 67.5701 102.756C67.7163 102.756 67.7702 102.678 67.8016 102.598ZM67.5701 102.065C67.4239 102.065 67.356 102.185 67.3352 102.321H67.805C67.7824 102.129 67.6884 102.065 67.5701 102.065Z" fill="#171717"/>
<path d="M74.8611 106.949H57.9555C56.3079 106.949 54.9722 108.284 54.9722 109.932C54.9722 111.58 56.3079 112.915 57.9555 112.915H74.8611C76.5087 112.915 77.8444 111.58 77.8444 109.932C77.8444 108.284 76.5087 106.949 74.8611 106.949Z" fill="white"/>
<path d="M60.0687 109.932C60.0687 108.765 59.1226 107.819 57.9555 107.819C56.7884 107.819 55.8423 108.765 55.8423 109.932C55.8423 111.099 56.7884 112.045 57.9555 112.045C59.1226 112.045 60.0687 111.099 60.0687 109.932Z" fill="#D445A5"/>
<path d="M62.2478 110.209L62.3835 110.237C62.3157 110.451 62.1573 110.571 61.9154 110.571C61.59 110.571 61.4072 110.343 61.4072 109.957C61.4072 109.537 61.59 109.318 61.9154 109.318C62.1555 109.318 62.3122 109.433 62.3818 109.652L62.253 109.697C62.1991 109.53 62.0807 109.445 61.9154 109.445C61.6857 109.445 61.5412 109.619 61.5412 109.957C61.5412 110.261 61.6857 110.444 61.9154 110.444C62.0755 110.444 62.1921 110.362 62.2478 110.209ZM63.1966 110.12C63.1966 109.948 63.1374 109.783 62.9721 109.783C62.7876 109.783 62.7198 109.917 62.7198 110.164V110.553H62.5945V109.335H62.7198V109.876C62.7598 109.739 62.8416 109.666 62.993 109.666C63.2244 109.666 63.3219 109.857 63.3219 110.12V110.553H63.1966V110.12ZM63.6688 109.951L63.554 109.918C63.5905 109.77 63.7141 109.666 63.9073 109.666C64.1213 109.666 64.2431 109.819 64.2414 110.012V110.553H64.1683C64.1422 110.553 64.1161 110.411 64.1161 110.353V110.345C64.0726 110.491 63.9821 110.571 63.8255 110.571C63.634 110.571 63.5105 110.458 63.5105 110.301C63.5105 110.042 63.8899 110.042 64.1161 110.042V110.009C64.1161 109.873 64.0413 109.783 63.9073 109.783C63.7767 109.783 63.7002 109.84 63.6688 109.951ZM63.6358 110.298C63.6358 110.385 63.7123 110.458 63.8376 110.458C64.0169 110.458 64.1022 110.343 64.1144 110.129C63.9229 110.129 63.6358 110.132 63.6358 110.298ZM64.4056 109.683H64.5657V109.682C64.5657 109.624 64.5918 109.481 64.6179 109.481H64.691V109.683H64.9346V109.8H64.691V110.28C64.691 110.366 64.6893 110.437 64.8059 110.437H64.9346V110.553H64.7571C64.6005 110.553 64.5657 110.44 64.5657 110.273V109.8H64.4056V109.683ZM65.2066 110.553H65.1335V109.335H65.2588V109.868C65.2989 109.736 65.3807 109.664 65.5303 109.664C65.7618 109.664 65.8592 109.856 65.8592 110.117V110.118C65.8575 110.381 65.76 110.571 65.5303 110.571C65.3807 110.571 65.2989 110.5 65.2588 110.366C65.2554 110.43 65.2292 110.553 65.2066 110.553ZM65.5094 109.781C65.3424 109.781 65.271 109.892 65.2588 110.098V110.138C65.271 110.343 65.3424 110.454 65.5094 110.454C65.6748 110.454 65.7339 110.289 65.7339 110.117C65.7339 109.944 65.6748 109.781 65.5094 109.781ZM66.0159 110.127C66.0159 109.821 66.1568 109.666 66.3987 109.666C66.6406 109.666 66.7833 109.821 66.7833 110.127C66.7833 110.416 66.6406 110.571 66.3987 110.571C66.1568 110.571 66.0159 110.416 66.0159 110.127ZM66.3987 110.454C66.5745 110.454 66.658 110.327 66.658 110.127C66.658 109.91 66.5745 109.783 66.3987 109.783C66.2247 109.783 66.1412 109.91 66.1412 110.127C66.1412 110.327 66.2247 110.454 66.3987 110.454ZM66.8869 109.683H67.047V109.682C67.047 109.624 67.0731 109.481 67.0992 109.481H67.1723V109.683H67.4159V109.8H67.1723V110.28C67.1723 110.366 67.1705 110.437 67.2871 110.437H67.4159V110.553H67.2384C67.0818 110.553 67.047 110.44 67.047 110.273V109.8H66.8869V109.683Z" fill="#171717"/>
<path d="M91.771 64.0691V59.8865H92.2066L94.1696 63.2397V59.8865H94.629V64.0691H94.1875L92.2304 60.7158V64.0691H91.771ZM97.454 63.2099L97.8478 63.2696C97.6927 63.7827 97.3168 64.1347 96.6604 64.1228C95.9623 64.1228 95.4432 63.5977 95.4432 62.5774C95.4432 61.5392 95.9623 61.0201 96.6604 61.0201C97.2869 61.0201 97.8955 61.396 97.8836 62.6252H95.8311C95.843 63.1741 96.0638 63.7529 96.6604 63.7529C97.1616 63.7529 97.3466 63.4844 97.454 63.2099ZM96.6604 61.3841C96.1592 61.3841 95.9265 61.7958 95.8549 62.2612H97.4659C97.3884 61.6049 97.0662 61.3841 96.6604 61.3841ZM99.0473 64.0631L98.2299 61.0798H98.6834L99.3397 63.6276L100.044 61.0798H100.396L101.094 63.6156L101.756 61.0798H102.21L101.392 64.0631H100.837L100.223 61.7302L99.6022 64.0631H99.0473ZM104.386 59.8865H105.848C106.635 59.8924 107.178 60.3578 107.178 61.1514C107.178 62.0106 106.635 62.3805 105.848 62.3865H104.845V64.0631H104.386V59.8865ZM105.848 60.322H104.845V61.9509H105.848C106.391 61.945 106.719 61.7839 106.719 61.1514C106.719 60.5846 106.403 60.328 105.848 60.322ZM107.864 64.0631V61.0798H108.115C108.198 61.0798 108.294 61.5691 108.294 61.766V61.8137C108.467 61.3006 108.807 61.0201 109.35 61.0201V61.4497C108.717 61.4497 108.329 61.8793 108.294 62.7266V64.0631H107.864ZM109.712 62.6013C109.712 61.5512 110.195 61.0201 111.025 61.0201C111.854 61.0201 112.343 61.5512 112.343 62.6013C112.343 63.5918 111.854 64.1228 111.025 64.1228C110.195 64.1228 109.712 63.5918 109.712 62.6013ZM111.025 63.723C111.627 63.723 111.914 63.2875 111.914 62.6013C111.914 61.8555 111.627 61.4199 111.025 61.4199C110.428 61.4199 110.142 61.8555 110.142 62.6013C110.142 63.2875 110.428 63.723 111.025 63.723ZM113.079 64.0631V61.0798H113.33C113.413 61.0798 113.509 61.5691 113.509 61.7421C113.646 61.2767 113.926 61.0201 114.445 61.0201C115.054 61.0201 115.394 61.408 115.519 61.9927C115.621 61.3662 115.907 61.0201 116.51 61.0201C117.303 61.0201 117.637 61.6765 117.637 62.5774V64.0631H117.208V62.5774C117.208 61.9867 117.005 61.4199 116.438 61.4199C115.806 61.4199 115.573 61.8793 115.573 62.7266V64.0631H115.143V62.5774C115.143 61.9867 114.941 61.4199 114.374 61.4199C113.741 61.4199 113.509 61.8793 113.509 62.7266V64.0631H113.079ZM118.968 65.2565H118.539V61.0798H118.789C118.867 61.0798 118.956 61.5034 118.968 61.7242C119.106 61.2648 119.386 61.0201 119.899 61.0201C120.693 61.0201 121.027 61.6765 121.027 62.5715V62.5774C121.021 63.4784 120.687 64.1288 119.899 64.1288C119.386 64.1288 119.106 63.8841 118.968 63.4307V65.2565ZM119.828 61.4199C119.255 61.4199 119.01 61.8018 118.968 62.5058V62.6431C119.01 63.3471 119.255 63.729 119.828 63.729C120.394 63.729 120.597 63.1622 120.597 62.5715C120.597 61.9808 120.394 61.4199 119.828 61.4199ZM121.392 61.0798H121.941V61.0738C121.941 60.8769 122.03 60.3877 122.12 60.3877H122.371V61.0798H123.206V61.4796H122.371V63.1264C122.371 63.4187 122.365 63.6634 122.764 63.6634H123.206V64.0631H122.597C122.06 64.0631 121.941 63.6753 121.941 63.1025V61.4796H121.392V61.0798Z" fill="black"/>
<path d="M91.52 77.1399H92.779V77.3577H91.7497V78.0409H92.5015V78.2586H91.7497V79.0104H92.779V79.2282H91.52V77.1399ZM93.1861 79.2282V77.7366H93.3114C93.3532 77.7366 93.4009 77.9812 93.4009 78.0677C93.4695 77.835 93.6097 77.7067 93.8693 77.7067C94.2661 77.7067 94.4331 78.0349 94.4331 78.4854V79.2282H94.2183V78.4854C94.2183 78.19 94.1169 77.9066 93.8335 77.9066C93.5172 77.9066 93.4009 78.1363 93.4009 78.56V79.2282H93.1861ZM94.7177 77.7366H94.9921V77.7336C94.9921 77.6351 95.0369 77.3905 95.0816 77.3905H95.2069V77.7366H95.6246V77.9364H95.2069V78.7598C95.2069 78.906 95.2039 79.0283 95.4038 79.0283H95.6246V79.2282H95.3203C95.0518 79.2282 94.9921 79.0343 94.9921 78.7479V77.9364H94.7177V77.7366ZM96.8904 78.8016L97.0873 78.8314C97.0097 79.088 96.8218 79.264 96.4936 79.2581C96.1446 79.2581 95.885 78.9955 95.885 78.4854C95.885 77.9663 96.1446 77.7067 96.4936 77.7067C96.8069 77.7067 97.1112 77.8947 97.1052 78.5092H96.0789C96.0849 78.7837 96.1953 79.0731 96.4936 79.0731C96.7442 79.0731 96.8367 78.9388 96.8904 78.8016ZM96.4936 77.8887C96.243 77.8887 96.1267 78.0946 96.0909 78.3273H96.8964C96.8576 77.9991 96.6965 77.8887 96.4936 77.8887ZM97.5009 79.2282V77.7366H97.6262C97.6679 77.7366 97.7157 77.9812 97.7157 78.0796V78.1035C97.8022 77.8469 97.9722 77.7067 98.2437 77.7067V77.9215C97.9275 77.9215 97.7336 78.1363 97.7157 78.56V79.2282H97.5009ZM99.7698 79.2282V78.3452L99.1075 77.1399H99.3611L99.8862 78.0946L100.405 77.1399H100.659L99.9995 78.3452V79.2282H99.7698ZM100.703 78.4973C100.703 77.9722 100.945 77.7067 101.36 77.7067C101.774 77.7067 102.019 77.9722 102.019 78.4973C102.019 78.9925 101.774 79.2581 101.36 79.2581C100.945 79.2581 100.703 78.9925 100.703 78.4973ZM101.36 79.0582C101.661 79.0582 101.804 78.8404 101.804 78.4973C101.804 78.1244 101.661 77.9066 101.36 77.9066C101.061 77.9066 100.918 78.1244 100.918 78.4973C100.918 78.8404 101.061 79.0582 101.36 79.0582ZM102.545 78.4794C102.545 78.7748 102.646 79.0582 102.93 79.0582C103.246 79.0582 103.362 78.8285 103.362 78.4048V77.7366H103.577V79.2282H103.452C103.41 79.2282 103.362 78.9836 103.362 78.8971C103.294 79.1298 103.153 79.2581 102.894 79.2581C102.497 79.2581 102.33 78.9299 102.33 78.4854V77.7366H102.545V78.4794ZM104.047 79.2282V77.7366H104.173C104.214 77.7366 104.262 77.9812 104.262 78.0796V78.1035C104.349 77.8469 104.519 77.7067 104.79 77.7067V77.9215C104.474 77.9215 104.28 78.1363 104.262 78.56V79.2282H104.047ZM105.666 77.1399H107.259V77.3577H106.576V79.2282H106.346V77.3577H105.666V77.1399ZM107.508 77.304C107.508 77.1996 107.558 77.1488 107.666 77.1488C107.764 77.1488 107.818 77.1996 107.818 77.304C107.818 77.3965 107.764 77.4531 107.666 77.4531C107.558 77.4531 107.508 77.3965 107.508 77.304ZM107.558 77.7366H107.77V79.2282H107.558V77.7366ZM108.09 77.7366H108.365V77.7336C108.365 77.6351 108.409 77.3905 108.454 77.3905H108.579V77.7366H108.997V77.9364H108.579V78.7598C108.579 78.906 108.576 79.0283 108.776 79.0283H108.997V79.2282H108.693C108.424 79.2282 108.365 79.0343 108.365 78.7479V77.9364H108.09V77.7366ZM109.338 77.1399H109.553V79.2282H109.338V77.1399ZM110.95 78.8016L111.147 78.8314C111.07 79.088 110.882 79.264 110.554 79.2581C110.205 79.2581 109.945 78.9955 109.945 78.4854C109.945 77.9663 110.205 77.7067 110.554 77.7067C110.867 77.7067 111.171 77.8947 111.165 78.5092H110.139C110.145 78.7837 110.255 79.0731 110.554 79.0731C110.804 79.0731 110.897 78.9388 110.95 78.8016ZM110.554 77.8887C110.303 77.8887 110.187 78.0946 110.151 78.3273H110.956C110.918 77.9991 110.757 77.8887 110.554 77.8887ZM111.543 77.8589C111.543 77.7574 111.591 77.7067 111.701 77.7067C111.8 77.7067 111.853 77.7574 111.853 77.8589C111.853 77.9543 111.8 78.008 111.701 78.008C111.591 78.008 111.543 77.9543 111.543 77.8589ZM111.543 79.1089C111.543 79.0075 111.591 78.9567 111.701 78.9567C111.8 78.9567 111.853 79.0075 111.853 79.1089C111.853 79.2044 111.8 79.2581 111.701 79.2581C111.591 79.2581 111.543 79.2044 111.543 79.1089Z" fill="black"/>
<path d="M217.315 80.0986H91.2695V86.5625H217.315V80.0986Z" fill="white"/>
<path d="M206.94 110.678H155.163V117.515H206.94V110.678Z" fill="#AC93A4"/>
<path d="M173.868 115.153L174.584 113.064H174.989L175.705 115.153H175.354L175.198 114.693H174.373L174.217 115.153H173.868ZM174.467 114.407H175.104L174.787 113.464L174.467 114.407ZM176.374 113.628C176.619 113.628 176.743 113.748 176.807 113.948V113.064H177.116V115.153H176.941C176.893 115.153 176.837 114.965 176.815 114.834C176.756 115.051 176.63 115.183 176.377 115.183C175.942 115.183 175.795 114.831 175.795 114.407V114.404C175.795 113.977 175.942 113.628 176.374 113.628ZM176.436 113.915C176.201 113.915 176.106 114.144 176.106 114.407C176.106 114.669 176.201 114.896 176.434 114.896C176.687 114.896 176.786 114.741 176.807 114.431V114.38C176.786 114.073 176.687 113.915 176.436 113.915ZM178.005 113.628C178.25 113.628 178.375 113.748 178.438 113.948V113.064H178.748V115.153H178.572C178.525 115.153 178.467 114.965 178.448 114.834C178.388 115.051 178.262 115.183 178.009 115.183C177.572 115.183 177.427 114.831 177.427 114.407V114.404C177.427 113.977 177.572 113.628 178.005 113.628ZM178.068 113.915C177.832 113.915 177.737 114.144 177.737 114.407C177.737 114.669 177.832 114.896 178.065 114.896C178.318 114.896 178.418 114.741 178.438 114.431V114.38C178.418 114.073 178.318 113.915 178.068 113.915ZM179.876 113.064H180.208V115.153H179.876V113.064ZM180.615 115.153V113.661H180.79C180.837 113.661 180.896 113.861 180.914 113.989C180.973 113.766 181.099 113.631 181.359 113.631C181.684 113.631 181.845 113.825 181.908 114.103C181.953 113.81 182.075 113.631 182.376 113.631C182.808 113.631 182.955 113.98 182.955 114.407V115.153H182.648V114.407C182.648 114.147 182.55 113.918 182.316 113.918C182.028 113.918 181.941 114.121 181.941 114.523V115.153H181.63V114.407C181.63 114.147 181.535 113.918 181.299 113.918C181.013 113.918 180.924 114.121 180.924 114.523V115.153H180.615ZM183.585 114.156L183.304 114.067C183.373 113.825 183.591 113.631 183.943 113.631C184.352 113.631 184.551 113.939 184.551 114.279V115.153H184.376C184.322 115.153 184.263 114.929 184.244 114.801C184.182 115.039 184.044 115.183 183.775 115.183C183.447 115.183 183.23 114.98 183.227 114.693C183.227 114.279 183.818 114.261 184.241 114.261C184.238 114.061 184.14 113.918 183.943 113.918C183.745 113.918 183.641 113.998 183.585 114.156ZM183.537 114.678C183.537 114.795 183.63 114.905 183.826 114.905C184.077 114.905 184.203 114.756 184.233 114.464C183.892 114.467 183.537 114.482 183.537 114.678ZM186.159 115.153C186.159 115.562 185.903 115.764 185.494 115.764C185.119 115.764 184.913 115.538 184.892 115.284L185.2 115.278C185.217 115.391 185.294 115.529 185.528 115.529C185.754 115.529 185.852 115.4 185.852 115.153V114.863C185.79 115.066 185.662 115.183 185.42 115.183C184.985 115.183 184.838 114.834 184.838 114.407C184.838 113.98 184.985 113.631 185.417 113.631C185.677 113.631 185.801 113.763 185.859 113.983C185.882 113.855 185.939 113.661 185.987 113.661H186.159V115.153ZM185.48 113.918C185.245 113.918 185.149 114.147 185.149 114.407C185.149 114.669 185.245 114.896 185.477 114.896C185.737 114.896 185.835 114.735 185.852 114.41V114.407C185.835 114.082 185.737 113.918 185.48 113.918ZM187.449 114.687L187.751 114.732C187.666 115.019 187.455 115.189 187.114 115.183C186.726 115.183 186.468 114.917 186.468 114.416C186.468 113.894 186.726 113.631 187.114 113.631C187.446 113.631 187.78 113.816 187.768 114.479H186.766C186.777 114.675 186.849 114.902 187.114 114.902C187.323 114.902 187.41 114.81 187.449 114.687ZM187.114 113.909C186.9 113.909 186.811 114.067 186.777 114.243H187.452C187.408 113.986 187.27 113.909 187.114 113.909Z" fill="black"/>
<path d="M206.998 118.758H155.163V125.595H206.998V118.758Z" fill="#AC93A4"/>
<path d="M173.868 123.232L174.584 121.144H174.989L175.705 123.232H175.354L175.198 122.773H174.373L174.217 123.232H173.868ZM174.467 122.487H175.104L174.787 121.544L174.467 122.487ZM176.374 121.708C176.619 121.708 176.743 121.827 176.807 122.027V121.144H177.116V123.232H176.941C176.893 123.232 176.837 123.044 176.815 122.913C176.756 123.131 176.63 123.262 176.377 123.262C175.942 123.262 175.795 122.91 175.795 122.487V122.484C175.795 122.057 175.942 121.708 176.374 121.708ZM176.436 121.994C176.201 121.994 176.106 122.224 176.106 122.487C176.106 122.749 176.201 122.976 176.434 122.976C176.687 122.976 176.786 122.821 176.807 122.51V122.46C176.786 122.152 176.687 121.994 176.436 121.994ZM178.005 121.708C178.25 121.708 178.375 121.827 178.438 122.027V121.144H178.748V123.232H178.572C178.525 123.232 178.467 123.044 178.448 122.913C178.388 123.131 178.262 123.262 178.009 123.262C177.572 123.262 177.427 122.91 177.427 122.487V122.484C177.427 122.057 177.572 121.708 178.005 121.708ZM178.068 121.994C177.832 121.994 177.737 122.224 177.737 122.487C177.737 122.749 177.832 122.976 178.065 122.976C178.318 122.976 178.418 122.821 178.438 122.51V122.46C178.418 122.152 178.318 121.994 178.068 121.994ZM179.722 121.144H181.374V121.454H180.715V123.232H180.383V121.454H179.722V121.144ZM182.382 122.767L182.684 122.812C182.601 123.098 182.388 123.268 182.049 123.262C181.661 123.262 181.401 122.997 181.401 122.495C181.401 121.973 181.661 121.711 182.049 121.711C182.379 121.711 182.714 121.896 182.701 122.558H181.699C181.711 122.755 181.783 122.982 182.049 122.982C182.258 122.982 182.343 122.889 182.382 122.767ZM182.049 121.988C181.834 121.988 181.744 122.146 181.711 122.322H182.386C182.341 122.066 182.203 121.988 182.049 121.988ZM182.862 123.232L183.369 122.457L182.891 121.741H183.246L183.557 122.227L183.866 121.741H184.224L183.747 122.457L184.254 123.232H183.9L183.559 122.689L183.216 123.232H182.862ZM184.351 121.741H184.628V121.738C184.628 121.639 184.7 121.335 184.762 121.335H184.935V121.741H185.327V122.027H184.935V122.719C184.935 122.853 184.935 122.946 185.127 122.946H185.327V123.232H184.986C184.715 123.232 184.628 123.03 184.628 122.701V122.027H184.351V121.741Z" fill="black"/>
<path d="M217.315 153.315H165.479V160.152H217.315V153.315Z" fill="#AC93A4"/>
<path d="M184.337 155.701H185.675V156.012H184.669V156.552H185.373V156.862H184.669V157.479H185.675V157.79H184.337V155.701ZM186.516 156.265C186.761 156.265 186.887 156.385 186.949 156.584V155.701H187.26V157.79H187.083C187.036 157.79 186.979 157.602 186.958 157.47C186.898 157.688 186.774 157.82 186.52 157.82C186.084 157.82 185.938 157.467 185.938 157.044V157.041C185.938 156.614 186.084 156.265 186.516 156.265ZM186.58 156.552C186.344 156.552 186.248 156.781 186.248 157.044C186.248 157.306 186.344 157.533 186.576 157.533C186.83 157.533 186.928 157.378 186.949 157.068V157.017C186.928 156.71 186.83 156.552 186.58 156.552ZM187.614 155.871C187.614 155.74 187.68 155.677 187.82 155.677C187.948 155.677 188.017 155.74 188.017 155.871C188.017 155.991 187.948 156.059 187.82 156.059C187.68 156.059 187.614 155.991 187.614 155.871ZM187.663 156.298H187.97V157.79H187.663V156.298ZM188.236 156.298H188.513V156.295C188.513 156.197 188.585 155.892 188.647 155.892H188.82V156.298H189.211V156.584H188.82V157.277C188.82 157.411 188.82 157.503 189.011 157.503H189.211V157.79H188.871C188.6 157.79 188.513 157.587 188.513 157.259V156.584H188.236V156.298ZM190.079 155.701H191.732V156.012H191.074V157.79H190.742V156.012H190.079V155.701ZM192.74 157.324L193.043 157.369C192.958 157.655 192.747 157.825 192.406 157.82C192.018 157.82 191.76 157.554 191.76 157.053C191.76 156.531 192.018 156.268 192.406 156.268C192.738 156.268 193.072 156.453 193.06 157.115H192.058C192.069 157.312 192.141 157.539 192.406 157.539C192.615 157.539 192.702 157.447 192.74 157.324ZM192.406 156.546C192.192 156.546 192.103 156.704 192.069 156.88H192.744C192.699 156.623 192.561 156.546 192.406 156.546ZM193.219 157.79L193.726 157.014L193.249 156.298H193.604L193.915 156.784L194.225 156.298H194.583L194.105 157.014L194.613 157.79H194.258L193.918 157.247L193.575 157.79H193.219ZM194.709 156.298H194.987V156.295C194.987 156.197 195.058 155.892 195.121 155.892H195.294V156.298H195.684V156.584H195.294V157.277C195.294 157.411 195.294 157.503 195.485 157.503H195.684V157.79H195.345C195.072 157.79 194.987 157.587 194.987 157.259V156.584H194.709V156.298Z" fill="black"/>
<path d="M145.218 153.315H93.3823V160.152H145.218V153.315Z" fill="#95C445"/>
<path d="M144.721 94.7048H93.2583C92.1942 94.7048 91.3315 95.5675 91.3315 96.6316V140.884C91.3315 141.948 92.1942 142.811 93.2583 142.811H144.721C145.785 142.811 146.648 141.948 146.648 140.884V96.6316C146.648 95.5675 145.785 94.7048 144.721 94.7048Z" fill="white" fill-opacity="0.8" stroke="black" stroke-width="0.124306"/>
<path d="M110.912 116.098H111.277C111.474 116.099 111.61 116.216 111.61 116.414C111.61 116.59 111.523 116.681 111.389 116.711L111.628 117.142H111.501L111.27 116.723H111.026V117.142H110.912V116.098ZM111.277 116.207H111.026V116.614H111.277C111.413 116.613 111.495 116.572 111.495 116.414C111.495 116.272 111.416 116.208 111.277 116.207ZM111.826 116.098H112.456V116.207H111.941V116.548H112.317V116.657H111.941V117.033H112.456V117.142H111.826V116.098ZM113.006 117.156C112.789 117.156 112.654 117.051 112.594 116.854L112.7 116.824C112.74 116.984 112.852 117.048 113.007 117.048C113.138 117.048 113.235 116.968 113.235 116.866C113.235 116.727 113.098 116.704 112.964 116.671C112.78 116.626 112.63 116.577 112.63 116.372C112.63 116.211 112.767 116.083 112.973 116.083C113.182 116.083 113.307 116.195 113.355 116.383L113.252 116.408C113.211 116.262 113.126 116.192 112.965 116.192C112.846 116.192 112.745 116.259 112.745 116.374C112.745 116.505 112.88 116.536 113.009 116.565C113.183 116.604 113.35 116.659 113.35 116.857C113.35 117.018 113.21 117.156 113.006 117.156ZM113.542 116.718V116.098H113.657V116.733C113.657 116.932 113.745 117.048 113.911 117.048C114.076 117.048 114.166 116.93 114.166 116.727V116.098H114.281V116.718C114.281 116.96 114.172 117.157 113.908 117.157C113.651 117.157 113.542 116.96 113.542 116.718ZM114.523 116.098H114.638V117.033H115.122V117.142H114.523V116.098ZM115.083 116.098H115.879V116.207H115.538V117.142H115.423V116.207H115.083V116.098ZM116.031 116.098H116.145V117.142H116.031V116.098ZM116.395 117.144V116.098H116.504L116.994 116.936V116.098H117.109V117.144H116.999L116.509 116.305V117.144H116.395ZM117.75 117.157C117.498 117.157 117.323 116.962 117.323 116.63C117.323 116.271 117.48 116.083 117.759 116.083C117.965 116.083 118.099 116.181 118.16 116.369L118.048 116.408C118 116.265 117.9 116.192 117.759 116.192C117.563 116.192 117.438 116.341 117.438 116.63C117.438 116.883 117.565 117.048 117.751 117.048C117.93 117.048 118.033 116.902 118.057 116.695H117.695V116.592H118.17V117.142H118.109C118.087 117.142 118.065 117.02 118.065 116.971V116.9C118.015 117.059 117.917 117.157 117.75 117.157ZM118.69 116.098H119.486V116.207H119.145V117.142H119.03V116.207H118.69V116.098ZM119.637 116.098H120.267V116.207H119.752V116.548H120.128V116.657H119.752V117.033H120.267V117.142H119.637V116.098ZM120.408 117.138L120.727 116.611L120.417 116.093H120.551L120.797 116.516L121.043 116.093H121.176L120.867 116.611L121.186 117.138H121.051L120.797 116.705L120.543 117.138H120.408ZM121.29 116.098H122.086V116.207H121.745V117.142H121.63V116.207H121.29V116.098ZM122.078 117.082C122.078 117.032 122.102 117.006 122.157 117.006C122.207 117.006 122.233 117.032 122.233 117.082C122.233 117.13 122.207 117.157 122.157 117.157C122.102 117.157 122.078 117.13 122.078 117.082ZM122.445 117.082C122.445 117.032 122.469 117.006 122.524 117.006C122.574 117.006 122.6 117.032 122.6 117.082C122.6 117.13 122.574 117.157 122.524 117.157C122.469 117.157 122.445 117.13 122.445 117.082ZM122.813 117.082C122.813 117.032 122.836 117.006 122.892 117.006C122.941 117.006 122.968 117.032 122.968 117.082C122.968 117.13 122.941 117.157 122.892 117.157C122.836 117.157 122.813 117.13 122.813 117.082Z" fill="black"/>
<path d="M95.0205 83.9522V82.734H95.3825C95.6975 82.734 95.9046 83.0107 95.9046 83.3431C95.9046 83.6963 95.7114 83.9522 95.3825 83.9522H95.0205ZM95.1545 83.8251H95.3668C95.6105 83.8251 95.7706 83.6476 95.7706 83.3431C95.7706 83.0594 95.6139 82.861 95.3668 82.861H95.1545V83.8251ZM96.0412 83.9522L96.4588 82.734H96.6277L97.0453 83.9522H96.9026L96.7947 83.6354H96.29L96.1821 83.9522H96.0412ZM96.3301 83.5171H96.7547L96.5424 82.8888L96.3301 83.5171ZM97.0062 82.734H97.9355V82.861H97.537V83.9522H97.4029V82.861H97.0062V82.734ZM97.9089 83.9522L98.3265 82.734H98.4953L98.913 83.9522H98.7703L98.6624 83.6354H98.1577L98.0498 83.9522H97.9089ZM98.1978 83.5171H98.6224L98.4101 82.8888L98.1978 83.5171ZM99.5497 82.734H100.267V82.861H99.6837V83.2943H100.157V83.4214H99.6837V83.9522H99.5497V82.734ZM100.354 83.3552C100.354 82.9358 100.537 82.7166 100.862 82.7166C101.194 82.7166 101.37 82.9358 101.37 83.3552C101.37 83.7416 101.194 83.9696 100.862 83.9696C100.537 83.9696 100.354 83.7416 100.354 83.3552ZM100.862 83.8425C101.1 83.8425 101.236 83.6598 101.236 83.3552C101.236 83.0176 101.1 82.8436 100.862 82.8436C100.634 82.8436 100.488 83.0176 100.488 83.3552C100.488 83.6598 100.634 83.8425 100.862 83.8425ZM101.601 82.734H102.027C102.257 82.7357 102.415 82.8714 102.415 83.1029C102.415 83.3082 102.315 83.4144 102.158 83.4492L102.436 83.9522H102.288L102.019 83.4631H101.735V83.9522H101.601V82.734ZM102.027 82.861H101.735V83.3361H102.027C102.186 83.3344 102.281 83.2874 102.281 83.1029C102.281 82.9376 102.189 82.8627 102.027 82.861ZM103.514 83.9678C103.261 83.9678 103.103 83.846 103.033 83.6163L103.157 83.5815C103.204 83.7677 103.334 83.8425 103.515 83.8425C103.668 83.8425 103.782 83.7485 103.782 83.6302C103.782 83.4684 103.621 83.4405 103.465 83.4022C103.251 83.35 103.075 83.2926 103.075 83.0542C103.075 82.8662 103.235 82.7166 103.475 82.7166C103.719 82.7166 103.865 82.8471 103.921 83.0663L103.801 83.0959C103.754 82.9254 103.655 82.8436 103.467 82.8436C103.327 82.8436 103.209 82.9219 103.209 83.0559C103.209 83.2091 103.367 83.2456 103.517 83.2787C103.721 83.3239 103.916 83.3883 103.916 83.6198C103.916 83.8077 103.752 83.9678 103.514 83.9678ZM104.15 82.734H104.576C104.806 82.7357 104.965 82.8714 104.965 83.1029C104.965 83.3535 104.806 83.4614 104.576 83.4631H104.284V83.9522H104.15V82.734ZM104.576 82.861H104.284V83.3361H104.576C104.735 83.3344 104.831 83.2874 104.831 83.1029C104.831 82.9376 104.738 82.8627 104.576 82.861ZM104.98 83.9522L105.398 82.734H105.567L105.985 83.9522H105.842L105.734 83.6354H105.229L105.121 83.9522H104.98ZM105.269 83.5171H105.694L105.482 82.8888L105.269 83.5171ZM106.621 82.734H107.048C107.277 82.7357 107.436 82.8714 107.436 83.1029C107.436 83.3535 107.277 83.4614 107.048 83.4631H106.755V83.9522H106.621V82.734ZM107.048 82.861H106.755V83.3361H107.048C107.206 83.3344 107.302 83.2874 107.302 83.1029C107.302 82.9376 107.209 82.8627 107.048 82.861ZM107.644 82.734H108.071C108.3 82.7357 108.459 82.8714 108.459 83.1029C108.459 83.3082 108.358 83.4144 108.201 83.4492L108.48 83.9522H108.332L108.062 83.4631H107.778V83.9522H107.644V82.734ZM108.071 82.861H107.778V83.3361H108.071C108.229 83.3344 108.325 83.2874 108.325 83.1029C108.325 82.9376 108.233 82.8627 108.071 82.861ZM108.712 82.734H108.846V83.9522H108.712V82.734ZM109.927 83.6076L110.062 83.6354C109.994 83.8495 109.836 83.9696 109.594 83.9696C109.269 83.9696 109.086 83.7416 109.086 83.3552C109.086 82.9358 109.269 82.7166 109.594 82.7166C109.834 82.7166 109.991 82.8314 110.061 83.0507L109.932 83.0959C109.878 82.9289 109.76 82.8436 109.594 82.8436C109.364 82.8436 109.22 83.0176 109.22 83.3552C109.22 83.6598 109.364 83.8425 109.594 83.8425C109.754 83.8425 109.871 83.7607 109.927 83.6076ZM110.282 82.734H111.016V82.861H110.416V83.2595H110.854V83.3866H110.416V83.8251H111.016V83.9522H110.282V82.734ZM111.658 83.9678C111.405 83.9678 111.247 83.846 111.177 83.6163L111.301 83.5815C111.348 83.7677 111.478 83.8425 111.659 83.8425C111.812 83.8425 111.926 83.7485 111.926 83.6302C111.926 83.4684 111.765 83.4405 111.609 83.4022C111.395 83.35 111.219 83.2926 111.219 83.0542C111.219 82.8662 111.379 82.7166 111.619 82.7166C111.863 82.7166 112.009 82.8471 112.065 83.0663L111.945 83.0959C111.898 82.9254 111.799 82.8436 111.611 82.8436C111.471 82.8436 111.353 82.9219 111.353 83.0559C111.353 83.2091 111.511 83.2456 111.661 83.2787C111.865 83.3239 112.06 83.3883 112.06 83.6198C112.06 83.8077 111.896 83.9678 111.658 83.9678ZM112.272 83.8825C112.272 83.8234 112.299 83.7938 112.364 83.7938C112.421 83.7938 112.452 83.8234 112.452 83.8825C112.452 83.9382 112.421 83.9696 112.364 83.9696C112.299 83.9696 112.272 83.9382 112.272 83.8825ZM112.7 83.8825C112.7 83.8234 112.728 83.7938 112.792 83.7938C112.849 83.7938 112.881 83.8234 112.881 83.8825C112.881 83.9382 112.849 83.9696 112.792 83.9696C112.728 83.9696 112.7 83.9382 112.7 83.8825ZM113.128 83.8825C113.128 83.8234 113.156 83.7938 113.22 83.7938C113.278 83.7938 113.309 83.8234 113.309 83.8825C113.309 83.9382 113.278 83.9696 113.22 83.9696C113.156 83.9696 113.128 83.9382 113.128 83.8825Z" fill="black"/>
<path d="M156.768 97.7809L157.001 97.8286C156.884 98.1956 156.613 98.4014 156.198 98.4014C155.64 98.4014 155.327 98.0106 155.327 97.3483C155.327 96.6293 155.64 96.2534 156.198 96.2534C156.61 96.2534 156.878 96.4503 156.998 96.8262L156.777 96.9038C156.685 96.6174 156.482 96.4712 156.198 96.4712C155.804 96.4712 155.557 96.7695 155.557 97.3483C155.557 97.8704 155.804 98.1836 156.198 98.1836C156.473 98.1836 156.673 98.0434 156.768 97.7809ZM158.395 97.6287C158.395 97.3334 158.293 97.05 158.01 97.05C157.694 97.05 157.577 97.2797 157.577 97.7033V98.3716H157.362V96.2833H157.577V97.2111C157.646 96.9754 157.786 96.8501 158.046 96.8501C158.442 96.8501 158.609 97.1783 158.609 97.6287V98.3716H158.395V97.6287ZM158.954 97.6407C158.954 97.1156 159.195 96.8501 159.61 96.8501C160.025 96.8501 160.269 97.1156 160.269 97.6407C160.269 98.1359 160.025 98.4014 159.61 98.4014C159.195 98.4014 158.954 98.1359 158.954 97.6407ZM159.61 98.2015C159.911 98.2015 160.054 97.9838 160.054 97.6407C160.054 97.2678 159.911 97.05 159.61 97.05C159.312 97.05 159.168 97.2678 159.168 97.6407C159.168 97.9838 159.312 98.2015 159.61 98.2015ZM160.533 97.6407C160.533 97.1156 160.774 96.8501 161.189 96.8501C161.604 96.8501 161.848 97.1156 161.848 97.6407C161.848 98.1359 161.604 98.4014 161.189 98.4014C160.774 98.4014 160.533 98.1359 160.533 97.6407ZM161.189 98.2015C161.49 98.2015 161.634 97.9838 161.634 97.6407C161.634 97.2678 161.49 97.05 161.189 97.05C160.891 97.05 160.747 97.2678 160.747 97.6407C160.747 97.9838 160.891 98.2015 161.189 98.2015ZM162.72 98.3984C162.389 98.3984 162.165 98.2433 162.085 97.9659L162.288 97.9092C162.344 98.1031 162.506 98.1986 162.723 98.1986C162.929 98.1986 163.043 98.121 163.043 97.9778C163.043 97.8018 162.843 97.7511 162.661 97.7063C162.377 97.6437 162.136 97.5482 162.136 97.2678C162.136 97.0052 162.333 96.8501 162.676 96.8501C162.998 96.8501 163.192 97.0082 163.263 97.2827L163.063 97.3304C163.007 97.1246 162.867 97.05 162.664 97.05C162.47 97.05 162.35 97.1305 162.35 97.2707C162.35 97.4468 162.541 97.4885 162.729 97.5333C163.004 97.5989 163.257 97.6795 163.257 97.9688C163.257 98.2314 163.057 98.3984 162.72 98.3984ZM164.551 97.945L164.748 97.9748C164.67 98.2314 164.482 98.4074 164.154 98.4014C163.805 98.4014 163.546 98.1389 163.546 97.6287C163.546 97.1096 163.805 96.8501 164.154 96.8501C164.468 96.8501 164.772 97.038 164.766 97.6526H163.74C163.746 97.9271 163.856 98.2165 164.154 98.2165C164.405 98.2165 164.497 98.0822 164.551 97.945ZM164.154 97.0321C163.904 97.0321 163.787 97.2379 163.752 97.4706H164.557C164.518 97.1425 164.357 97.0321 164.154 97.0321ZM166.402 98.3716V97.4885L165.74 96.2833H165.993L166.518 97.2379L167.037 96.2833H167.291L166.632 97.4885V98.3716H166.402ZM167.335 97.6407C167.335 97.1156 167.577 96.8501 167.992 96.8501C168.406 96.8501 168.651 97.1156 168.651 97.6407C168.651 98.1359 168.406 98.4014 167.992 98.4014C167.577 98.4014 167.335 98.1359 167.335 97.6407ZM167.992 98.2015C168.293 98.2015 168.436 97.9838 168.436 97.6407C168.436 97.2678 168.293 97.05 167.992 97.05C167.693 97.05 167.55 97.2678 167.55 97.6407C167.55 97.9838 167.693 98.2015 167.992 98.2015ZM169.177 97.6228C169.177 97.9181 169.278 98.2015 169.562 98.2015C169.878 98.2015 169.994 97.9718 169.994 97.5482V96.8799H170.209V98.3716H170.084C170.042 98.3716 169.994 98.127 169.994 98.0404C169.926 98.2731 169.786 98.4014 169.526 98.4014C169.129 98.4014 168.962 98.0733 168.962 97.6287V96.8799H169.177V97.6228ZM170.68 98.3716V96.8799H170.805C170.847 96.8799 170.894 97.1246 170.894 97.223V97.2469C170.981 96.9903 171.151 96.8501 171.422 96.8501V97.0649C171.106 97.0649 170.912 97.2797 170.894 97.7033V98.3716H170.68ZM173.274 98.4014C172.769 98.4014 172.42 98.0106 172.42 97.3483C172.42 96.6293 172.734 96.2534 173.292 96.2534C173.703 96.2534 173.972 96.4503 174.094 96.8262L173.87 96.9038C173.775 96.6174 173.575 96.4712 173.292 96.4712C172.901 96.4712 172.65 96.7695 172.65 97.3483C172.65 97.8525 172.904 98.1836 173.277 98.1836C173.635 98.1836 173.84 97.8913 173.888 97.4766H173.163V97.2707H174.115V98.3716H173.993C173.948 98.3716 173.903 98.127 173.903 98.0285V97.8883C173.805 98.2045 173.608 98.4014 173.274 98.4014ZM174.563 98.3716V96.8799H174.689C174.73 96.8799 174.778 97.1246 174.778 97.223V97.2469C174.864 96.9903 175.035 96.8501 175.306 96.8501V97.0649C174.99 97.0649 174.796 97.2797 174.778 97.7033V98.3716H174.563ZM175.487 97.6407C175.487 97.1156 175.729 96.8501 176.143 96.8501C176.559 96.8501 176.803 97.1156 176.803 97.6407C176.803 98.1359 176.559 98.4014 176.143 98.4014C175.729 98.4014 175.487 98.1359 175.487 97.6407ZM176.143 98.2015C176.445 98.2015 176.588 97.9838 176.588 97.6407C176.588 97.2678 176.445 97.05 176.143 97.05C175.845 97.05 175.702 97.2678 175.702 97.6407C175.702 97.9838 175.845 98.2015 176.143 98.2015ZM177.329 97.6228C177.329 97.9181 177.43 98.2015 177.713 98.2015C178.03 98.2015 178.146 97.9718 178.146 97.5482V96.8799H178.361V98.3716H178.235C178.194 98.3716 178.146 98.127 178.146 98.0404C178.078 98.2731 177.937 98.4014 177.677 98.4014C177.281 98.4014 177.114 98.0733 177.114 97.6287V96.8799H177.329V97.6228ZM179.046 98.9683H178.831V96.8799H178.956C178.995 96.8799 179.04 97.0917 179.046 97.2021C179.114 96.9724 179.255 96.8501 179.512 96.8501C179.909 96.8501 180.075 97.1783 180.075 97.6258V97.6287C180.073 98.0792 179.905 98.4044 179.512 98.4044C179.255 98.4044 179.114 98.2821 179.046 98.0554V98.9683ZM179.476 97.05C179.189 97.05 179.067 97.2409 179.046 97.5929V97.6616C179.067 98.0136 179.189 98.2045 179.476 98.2045C179.759 98.2045 179.86 97.9211 179.86 97.6258C179.86 97.3304 179.759 97.05 179.476 97.05ZM180.431 97.0022C180.431 96.9008 180.478 96.8501 180.589 96.8501C180.687 96.8501 180.74 96.9008 180.74 97.0022C180.74 97.0977 180.687 97.1514 180.589 97.1514C180.478 97.1514 180.431 97.0977 180.431 97.0022ZM180.431 98.2523C180.431 98.1508 180.478 98.1001 180.589 98.1001C180.687 98.1001 180.74 98.1508 180.74 98.2523C180.74 98.3477 180.687 98.4014 180.589 98.4014C180.478 98.4014 180.431 98.3477 180.431 98.2523Z" fill="black"/>
<path d="M206.749 99.2417H155.163V105.706H206.749V99.2417Z" fill="white"/>
<path d="M202.727 102.048L202.737 102.059L203.53 102.857C203.556 102.884 203.596 102.9 203.642 102.9C203.687 102.9 203.726 102.883 203.754 102.857L204.545 102.06L204.558 102.047C204.568 102.034 204.574 102.019 204.574 102.003C204.574 101.958 204.531 101.922 204.477 101.922H202.806C202.753 101.922 202.709 101.958 202.709 102.003C202.709 102.019 202.716 102.035 202.727 102.048Z" fill="black"/>
<path d="M159.434 103.095V101.682H159.854C160.219 101.682 160.46 102.003 160.46 102.389C160.46 102.798 160.235 103.095 159.854 103.095H159.434ZM159.59 102.948H159.836C160.118 102.948 160.304 102.742 160.304 102.389C160.304 102.06 160.122 101.829 159.836 101.829H159.59V102.948ZM161.355 102.806L161.488 102.827C161.436 103 161.308 103.119 161.086 103.115C160.85 103.115 160.675 102.938 160.675 102.592C160.675 102.241 160.85 102.066 161.086 102.066C161.298 102.066 161.504 102.193 161.5 102.609H160.806C160.81 102.794 160.884 102.99 161.086 102.99C161.256 102.99 161.318 102.899 161.355 102.806ZM161.086 102.189C160.917 102.189 160.838 102.328 160.814 102.486H161.359C161.333 102.263 161.224 102.189 161.086 102.189ZM161.641 102.086H161.829V102.007C161.829 101.813 161.869 101.682 162.051 101.682H162.257V101.817H162.105C161.972 101.817 161.972 101.9 161.972 101.999V102.086H162.257V102.221H161.972V103.095H161.829V102.221H161.641V102.086ZM162.551 102.397L162.418 102.358C162.46 102.187 162.603 102.066 162.828 102.066C163.076 102.066 163.217 102.243 163.215 102.467V103.095H163.13C163.1 103.095 163.07 102.93 163.07 102.863V102.853C163.019 103.022 162.914 103.115 162.733 103.115C162.511 103.115 162.367 102.984 162.367 102.802C162.367 102.502 162.807 102.502 163.07 102.502V102.463C163.07 102.306 162.983 102.201 162.828 102.201C162.676 102.201 162.587 102.267 162.551 102.397ZM162.513 102.798C162.513 102.899 162.601 102.984 162.747 102.984C162.955 102.984 163.054 102.851 163.068 102.603C162.846 102.603 162.513 102.607 162.513 102.798ZM163.641 102.588C163.641 102.788 163.71 102.98 163.902 102.98C164.116 102.98 164.194 102.825 164.194 102.538V102.086H164.34V103.095H164.255C164.227 103.095 164.194 102.93 164.194 102.871C164.148 103.028 164.053 103.115 163.878 103.115C163.609 103.115 163.496 102.893 163.496 102.592V102.086H163.641V102.588ZM164.658 101.682H164.803V103.095H164.658V101.682ZM165.012 102.086H165.198V102.084C165.198 102.017 165.228 101.852 165.258 101.852H165.343V102.086H165.626V102.221H165.343V102.778C165.343 102.877 165.341 102.96 165.476 102.96H165.626V103.095H165.42C165.238 103.095 165.198 102.964 165.198 102.77V102.221H165.012V102.086ZM166.732 101.581H166.876L166.395 103.196H166.252L166.732 101.581ZM167.633 103.097V101.682H167.78L168.444 102.817V101.682H168.6V103.097H168.45L167.788 101.963V103.097H167.633ZM168.859 102.6C168.859 102.245 169.023 102.066 169.303 102.066C169.584 102.066 169.749 102.245 169.749 102.6C169.749 102.936 169.584 103.115 169.303 103.115C169.023 103.115 168.859 102.936 168.859 102.6ZM169.303 102.98C169.507 102.98 169.604 102.833 169.604 102.6C169.604 102.348 169.507 102.201 169.303 102.201C169.101 102.201 169.005 102.348 169.005 102.6C169.005 102.833 169.101 102.98 169.303 102.98ZM171.058 103.115C170.717 103.115 170.48 102.851 170.48 102.403C170.48 101.916 170.692 101.662 171.07 101.662C171.348 101.662 171.53 101.795 171.613 102.049L171.462 102.102C171.397 101.908 171.262 101.809 171.07 101.809C170.805 101.809 170.636 102.011 170.636 102.403C170.636 102.744 170.807 102.968 171.06 102.968C171.302 102.968 171.441 102.77 171.474 102.489H170.983V102.35H171.627V103.095H171.544C171.514 103.095 171.484 102.93 171.484 102.863V102.768C171.417 102.982 171.284 103.115 171.058 103.115ZM171.93 103.095V102.086H172.015C172.043 102.086 172.076 102.251 172.076 102.318V102.334C172.134 102.16 172.249 102.066 172.433 102.066V102.211C172.219 102.211 172.088 102.356 172.076 102.643V103.095H171.93ZM172.556 102.6C172.556 102.245 172.719 102.066 173 102.066C173.28 102.066 173.446 102.245 173.446 102.6C173.446 102.936 173.28 103.115 173 103.115C172.719 103.115 172.556 102.936 172.556 102.6ZM173 102.98C173.204 102.98 173.3 102.833 173.3 102.6C173.3 102.348 173.204 102.201 173 102.201C172.798 102.201 172.701 102.348 172.701 102.6C172.701 102.833 172.798 102.98 173 102.98ZM173.802 102.588C173.802 102.788 173.87 102.98 174.062 102.98C174.276 102.98 174.355 102.825 174.355 102.538V102.086H174.501V103.095H174.415C174.388 103.095 174.355 102.93 174.355 102.871C174.308 103.028 174.213 103.115 174.038 103.115C173.769 103.115 173.656 102.893 173.656 102.592V102.086H173.802V102.588ZM174.963 103.499H174.819V102.086H174.903C174.93 102.086 174.959 102.229 174.963 102.304C175.01 102.148 175.105 102.066 175.279 102.066C175.547 102.066 175.66 102.288 175.66 102.59V102.592C175.658 102.897 175.545 103.117 175.279 103.117C175.105 103.117 175.01 103.035 174.963 102.881V103.499ZM175.254 102.201C175.06 102.201 174.978 102.33 174.963 102.568V102.615C174.978 102.853 175.06 102.982 175.254 102.982C175.447 102.982 175.515 102.79 175.515 102.59C175.515 102.391 175.447 102.201 175.254 102.201ZM176.903 103.113C176.61 103.113 176.426 102.972 176.347 102.706L176.49 102.665C176.544 102.881 176.695 102.968 176.905 102.968C177.082 102.968 177.214 102.859 177.214 102.722C177.214 102.534 177.028 102.502 176.846 102.457C176.599 102.397 176.394 102.33 176.394 102.053C176.394 101.836 176.58 101.662 176.859 101.662C177.141 101.662 177.311 101.813 177.376 102.068L177.237 102.102C177.182 101.904 177.066 101.809 176.849 101.809C176.687 101.809 176.55 101.9 176.55 102.056C176.55 102.233 176.733 102.276 176.907 102.314C177.143 102.366 177.37 102.441 177.37 102.71C177.37 102.928 177.179 103.113 176.903 103.113ZM178.257 102.806L178.39 102.827C178.338 103 178.211 103.119 177.989 103.115C177.752 103.115 177.577 102.938 177.577 102.592C177.577 102.241 177.752 102.066 177.989 102.066C178.201 102.066 178.406 102.193 178.403 102.609H177.708C177.713 102.794 177.787 102.99 177.989 102.99C178.158 102.99 178.221 102.899 178.257 102.806ZM177.989 102.189C177.82 102.189 177.74 102.328 177.716 102.486H178.261C178.235 102.263 178.125 102.189 177.989 102.189ZM178.67 101.682H178.815V103.095H178.67V101.682ZM179.761 102.806L179.894 102.827C179.842 103 179.715 103.119 179.493 103.115C179.257 103.115 179.081 102.938 179.081 102.592C179.081 102.241 179.257 102.066 179.493 102.066C179.705 102.066 179.91 102.193 179.907 102.609H179.212C179.217 102.794 179.291 102.99 179.493 102.99C179.663 102.99 179.725 102.899 179.761 102.806ZM179.493 102.189C179.324 102.189 179.244 102.328 179.221 102.486H179.765C179.739 102.263 179.631 102.189 179.493 102.189ZM180.522 103.115C180.28 103.115 180.104 102.94 180.104 102.595C180.104 102.241 180.28 102.066 180.522 102.066C180.756 102.066 180.887 102.189 180.936 102.391L180.794 102.413C180.758 102.298 180.697 102.201 180.522 102.201C180.316 102.201 180.25 102.407 180.25 102.595C180.25 102.774 180.316 102.98 180.522 102.98C180.704 102.98 180.762 102.873 180.794 102.772L180.936 102.796C180.889 102.99 180.756 103.117 180.522 103.115ZM181.047 102.086H181.233V102.084C181.233 102.017 181.263 101.852 181.294 101.852H181.378V102.086H181.661V102.221H181.378V102.778C181.378 102.877 181.376 102.96 181.511 102.96H181.661V103.095H181.456C181.273 103.095 181.233 102.964 181.233 102.77V102.221H181.047V102.086ZM182.517 102.806L182.65 102.827C182.598 103 182.471 103.119 182.249 103.115C182.012 103.115 181.837 102.938 181.837 102.592C181.837 102.241 182.012 102.066 182.249 102.066C182.461 102.066 182.666 102.193 182.663 102.609H181.968C181.973 102.794 182.047 102.99 182.249 102.99C182.419 102.99 182.481 102.899 182.517 102.806ZM182.249 102.189C182.08 102.189 182 102.328 181.976 102.486H182.521C182.495 102.263 182.387 102.189 182.249 102.189ZM183.246 102.064C183.418 102.064 183.514 102.146 183.56 102.3V101.682H183.705V103.095H183.621C183.595 103.095 183.564 102.952 183.56 102.877C183.514 103.033 183.418 103.115 183.246 103.115C182.977 103.115 182.864 102.893 182.864 102.59V102.588C182.866 102.284 182.978 102.064 183.246 102.064ZM183.269 102.199C183.078 102.199 183.009 102.391 183.009 102.59C183.009 102.79 183.078 102.98 183.269 102.98C183.463 102.98 183.546 102.851 183.56 102.613V102.566C183.546 102.328 183.463 102.199 183.269 102.199Z" fill="black"/>
<path d="M101.897 157.82C101.343 157.82 101.002 157.42 101.002 156.767C101.002 156.056 101.325 155.672 101.906 155.672C102.354 155.672 102.631 155.88 102.751 156.274L102.428 156.379C102.351 156.128 102.181 155.982 101.906 155.982C101.533 155.982 101.334 156.289 101.334 156.767C101.334 157.175 101.533 157.506 101.897 157.509C102.232 157.509 102.387 157.241 102.44 156.928H101.778V156.638H102.775V157.79H102.602C102.539 157.79 102.467 157.483 102.467 157.384V157.375C102.375 157.647 102.202 157.82 101.897 157.82ZM104.075 157.324L104.376 157.369C104.293 157.656 104.081 157.826 103.741 157.82C103.353 157.82 103.093 157.554 103.093 157.053C103.093 156.531 103.353 156.268 103.741 156.268C104.072 156.268 104.406 156.453 104.394 157.116H103.392C103.404 157.312 103.475 157.539 103.741 157.539C103.949 157.539 104.036 157.447 104.075 157.324ZM103.741 156.546C103.526 156.546 103.436 156.704 103.404 156.88H104.078C104.033 156.623 103.896 156.546 103.741 156.546ZM104.54 156.298H104.817V156.295C104.817 156.197 104.889 155.892 104.952 155.892H105.125V156.298H105.515V156.585H105.125V157.277C105.125 157.411 105.125 157.503 105.316 157.503H105.515V157.79H105.175C104.904 157.79 104.817 157.587 104.817 157.259V156.585H104.54V156.298ZM106.387 157.79L107.103 155.701H107.509L108.225 157.79H107.873L107.718 157.33H106.891L106.736 157.79H106.387ZM106.987 157.044H107.622L107.306 156.101L106.987 157.044ZM108.494 155.701H108.825V157.79H108.494V155.701ZM110.815 157.82C110.26 157.82 109.92 157.42 109.92 156.767C109.92 156.056 110.243 155.672 110.824 155.672C111.272 155.672 111.549 155.88 111.669 156.274L111.346 156.379C111.269 156.128 111.099 155.982 110.824 155.982C110.451 155.982 110.252 156.289 110.252 156.767C110.252 157.175 110.451 157.506 110.815 157.509C111.15 157.509 111.305 157.241 111.358 156.928H110.696V156.638H111.692V157.79H111.519C111.457 157.79 111.385 157.483 111.385 157.384V157.375C111.293 157.647 111.12 157.82 110.815 157.82ZM112.993 157.324L113.294 157.369C113.21 157.656 112.999 157.826 112.659 157.82C112.271 157.82 112.011 157.554 112.011 157.053C112.011 156.531 112.271 156.268 112.659 156.268C112.99 156.268 113.324 156.453 113.312 157.116H112.31C112.321 157.312 112.393 157.539 112.659 157.539C112.867 157.539 112.954 157.447 112.993 157.324ZM112.659 156.546C112.444 156.546 112.354 156.704 112.321 156.88H112.996C112.951 156.623 112.814 156.546 112.659 156.546ZM113.636 157.79V156.298H113.809C113.857 156.298 113.916 156.498 113.934 156.626C113.994 156.403 114.119 156.268 114.379 156.268C114.814 156.268 114.96 156.617 114.96 157.044V157.79H114.65V157.044C114.65 156.784 114.555 156.555 114.319 156.555C114.033 156.555 113.943 156.758 113.943 157.16V157.79H113.636ZM116.238 157.324L116.54 157.369C116.456 157.656 116.244 157.826 115.904 157.82C115.516 157.82 115.257 157.554 115.257 157.053C115.257 156.531 115.516 156.268 115.904 156.268C116.235 156.268 116.569 156.453 116.558 157.116H115.555C115.567 157.312 115.639 157.539 115.904 157.539C116.113 157.539 116.2 157.447 116.238 157.324ZM115.904 156.546C115.689 156.546 115.6 156.704 115.567 156.88H116.241C116.197 156.623 116.059 156.546 115.904 156.546ZM116.881 157.79V156.298H117.054C117.105 156.298 117.165 156.51 117.183 156.638C117.266 156.406 117.421 156.268 117.684 156.268V156.576C117.397 156.576 117.198 156.758 117.189 157.16V157.79H116.881ZM118.19 156.793L117.909 156.704C117.978 156.462 118.196 156.268 118.548 156.268C118.956 156.268 119.156 156.576 119.156 156.916V157.79H118.98C118.927 157.79 118.867 157.566 118.849 157.438C118.786 157.676 118.649 157.82 118.381 157.82C118.052 157.82 117.835 157.617 117.832 157.33C117.832 156.916 118.422 156.898 118.846 156.898C118.843 156.698 118.745 156.555 118.548 156.555C118.351 156.555 118.246 156.635 118.19 156.793ZM118.142 157.315C118.142 157.432 118.234 157.542 118.431 157.542C118.682 157.542 118.807 157.393 118.837 157.101C118.497 157.104 118.142 157.119 118.142 157.315ZM119.372 156.298H119.65V156.295C119.65 156.197 119.721 155.892 119.784 155.892H119.957V156.298H120.348V156.585H119.957V157.277C119.957 157.411 119.957 157.503 120.148 157.503H120.348V157.79H120.008C119.736 157.79 119.65 157.587 119.65 157.259V156.585H119.372V156.298ZM121.538 157.324L121.839 157.369C121.756 157.656 121.544 157.826 121.204 157.82C120.816 157.82 120.556 157.554 120.556 157.053C120.556 156.531 120.816 156.268 121.204 156.268C121.535 156.268 121.869 156.453 121.857 157.116H120.855C120.867 157.312 120.938 157.539 121.204 157.539C121.413 157.539 121.499 157.447 121.538 157.324ZM121.204 156.546C120.989 156.546 120.899 156.704 120.867 156.88H121.541C121.496 156.623 121.359 156.546 121.204 156.546ZM122.679 156.265C122.924 156.265 123.049 156.385 123.112 156.585V155.701H123.422V157.79H123.246C123.198 157.79 123.142 157.602 123.121 157.471C123.061 157.688 122.936 157.82 122.682 157.82C122.247 157.82 122.1 157.468 122.1 157.044V157.041C122.1 156.614 122.247 156.265 122.679 156.265ZM122.742 156.552C122.506 156.552 122.411 156.781 122.411 157.044C122.411 157.306 122.506 157.533 122.739 157.533C122.992 157.533 123.091 157.378 123.112 157.068V157.017C123.091 156.71 122.992 156.552 122.742 156.552ZM125.308 157.817C124.872 157.817 124.574 157.605 124.433 157.211L124.738 157.125C124.821 157.429 125.063 157.509 125.308 157.509C125.534 157.509 125.704 157.381 125.704 157.205C125.704 156.975 125.448 156.948 125.2 156.889C124.818 156.793 124.511 156.71 124.511 156.271C124.511 155.94 124.794 155.672 125.245 155.672C125.66 155.672 125.925 155.904 126.038 156.274L125.746 156.355C125.657 156.089 125.495 155.982 125.218 155.982C125.033 155.982 124.842 156.065 124.842 156.283C124.842 156.492 125.117 156.543 125.331 156.588C125.683 156.659 126.035 156.769 126.035 157.187C126.035 157.518 125.74 157.817 125.308 157.817ZM126.636 157.041C126.636 157.304 126.734 157.533 126.967 157.533C127.257 157.533 127.343 157.327 127.343 156.925V156.298H127.653V157.79H127.477C127.43 157.79 127.37 157.59 127.352 157.462C127.292 157.685 127.167 157.82 126.907 157.82C126.475 157.82 126.329 157.468 126.329 157.044V156.298H126.636V157.041ZM128.046 157.79V156.298H128.219C128.266 156.298 128.326 156.498 128.344 156.626C128.404 156.403 128.529 156.268 128.788 156.268C129.114 156.268 129.275 156.462 129.337 156.74C129.382 156.447 129.504 156.268 129.806 156.268C130.238 156.268 130.385 156.617 130.385 157.044V157.79H130.077V157.044C130.077 156.784 129.979 156.555 129.746 156.555C129.457 156.555 129.37 156.758 129.37 157.16V157.79H129.06V157.044C129.06 156.784 128.964 156.555 128.729 156.555C128.442 156.555 128.353 156.758 128.353 157.16V157.79H128.046ZM130.761 157.79V156.298H130.934C130.982 156.298 131.041 156.498 131.059 156.626C131.119 156.403 131.244 156.268 131.504 156.268C131.829 156.268 131.99 156.462 132.053 156.74C132.097 156.447 132.22 156.268 132.521 156.268C132.954 156.268 133.1 156.617 133.1 157.044V157.79H132.792V157.044C132.792 156.784 132.694 156.555 132.461 156.555C132.172 156.555 132.085 156.758 132.085 157.16V157.79H131.775V157.044C131.775 156.784 131.68 156.555 131.444 156.555C131.158 156.555 131.068 156.758 131.068 157.16V157.79H130.761ZM133.73 156.793L133.449 156.704C133.518 156.462 133.736 156.268 134.088 156.268C134.496 156.268 134.696 156.576 134.696 156.916V157.79H134.52C134.467 157.79 134.407 157.566 134.389 157.438C134.326 157.676 134.189 157.82 133.921 157.82C133.593 157.82 133.375 157.617 133.372 157.33C133.372 156.916 133.962 156.898 134.386 156.898C134.383 156.698 134.285 156.555 134.088 156.555C133.891 156.555 133.786 156.635 133.73 156.793ZM133.682 157.315C133.682 157.432 133.774 157.542 133.971 157.542C134.222 157.542 134.347 157.393 134.377 157.101C134.037 157.104 133.682 157.119 133.682 157.315ZM135.087 157.79V156.298H135.26C135.311 156.298 135.371 156.51 135.389 156.638C135.472 156.406 135.627 156.268 135.89 156.268V156.576C135.603 156.576 135.404 156.758 135.395 157.16V157.79H135.087ZM136.149 158.386V158.097H136.316C136.498 158.097 136.546 158.043 136.579 157.954L136.641 157.775L136.068 156.298H136.388L136.784 157.363L137.16 156.298H137.483L136.859 158.061C136.781 158.282 136.653 158.386 136.447 158.386H136.149Z" fill="black"/>
</g>
</g>
</g>
<defs>
<filter id="filter0_d_52_1125" x="50" y="53" width="187" height="139.289" filterUnits="userSpaceOnUse" color-interpolation-filters="sRGB">
<feFlood flood-opacity="0" result="BackgroundImageFix"/>
<feColorMatrix in="SourceAlpha" type="matrix" values="0 0 0 0 0 0 0 0 0 0 0 0 0 0 0 0 0 0 127 0" result="hardAlpha"/>
<feOffset dx="4" dy="8"/>
<feGaussianBlur stdDeviation="2"/>
<feComposite in2="hardAlpha" operator="out"/>
<feColorMatrix type="matrix" values="0 0 0 0 0 0 0 0 0 0 0 0 0 0 0 0 0 0 0.25 0"/>
<feBlend mode="normal" in2="BackgroundImageFix" result="effect1_dropShadow_52_1125"/>
<feBlend mode="normal" in="SourceGraphic" in2="effect1_dropShadow_52_1125" result="shape"/>
</filter>
<clipPath id="clip0_52_1125">
<rect x="50" y="53" width="179" height="127.289" rx="2" fill="white"/>
</clipPath>
</defs>
</svg>
