<svg width="44" height="41" viewBox="0 0 44 41" fill="none" xmlns="http://www.w3.org/2000/svg">
<g filter="url(#filter0_d_1_243)">
<mask id="mask0_1_243" style="mask-type:alpha" maskUnits="userSpaceOnUse" x="4" y="0" width="36" height="33">
<rect x="4" width="36" height="32.6038" fill="#D9D9D9"/>
</mask>
<g mask="url(#mask0_1_243)">
<path d="M22.0758 21.0567L28.8258 14.9434L26.6883 13.0416L22.0758 17.2189L17.4633 13.0416L15.3258 14.9434L22.0758 21.0567ZM22.0758 29.8868C20.0008 29.8868 18.0508 29.5302 16.2258 28.817C14.4008 28.1038 12.8133 27.1359 11.4633 25.9133C10.1133 24.6906 9.04456 23.2529 8.25706 21.6C7.46956 19.9472 7.07581 18.1812 7.07581 16.3019C7.07581 14.4227 7.46956 12.6566 8.25706 11.0038C9.04456 9.35099 10.1133 7.91325 11.4633 6.69061C12.8133 5.46797 14.4008 4.50004 16.2258 3.78684C18.0508 3.07363 20.0008 2.71703 22.0758 2.71703C24.1508 2.71703 26.1008 3.07363 27.9258 3.78684C29.7508 4.50004 31.3383 5.46797 32.6883 6.69061C34.0383 7.91325 35.1071 9.35099 35.8946 11.0038C36.6821 12.6566 37.0758 14.4227 37.0758 16.3019C37.0758 18.1812 36.6821 19.9472 35.8946 21.6C35.1071 23.2529 34.0383 24.6906 32.6883 25.9133C31.3383 27.1359 29.7508 28.1038 27.9258 28.817C26.1008 29.5302 24.1508 29.8868 22.0758 29.8868ZM22.0758 27.1699C25.4258 27.1699 28.2633 26.117 30.5883 24.0114C32.9133 21.9057 34.0758 19.3359 34.0758 16.3019C34.0758 13.268 32.9133 10.6982 30.5883 8.5925C28.2633 6.48684 25.4258 5.43401 22.0758 5.43401C18.7258 5.43401 15.8883 6.48684 13.5633 8.5925C11.2383 10.6982 10.0758 13.268 10.0758 16.3019C10.0758 19.3359 11.2383 21.9057 13.5633 24.0114C15.8883 26.117 18.7258 27.1699 22.0758 27.1699Z" fill="#1C1B1F"/>
</g>
</g>
<defs>
<filter id="filter0_d_1_243" x="0.555051" y="0.543441" width="43.0415" height="40.2113" filterUnits="userSpaceOnUse" color-interpolation-filters="sRGB">
<feFlood flood-opacity="0" result="BackgroundImageFix"/>
<feColorMatrix in="SourceAlpha" type="matrix" values="0 0 0 0 0 0 0 0 0 0 0 0 0 0 0 0 0 0 127 0" result="hardAlpha"/>
<feOffset dy="4.34717"/>
<feGaussianBlur stdDeviation="3.26038"/>
<feComposite in2="hardAlpha" operator="out"/>
<feColorMatrix type="matrix" values="0 0 0 0 0 0 0 0 0 0 0 0 0 0 0 0 0 0 0.25 0"/>
<feBlend mode="normal" in2="BackgroundImageFix" result="effect1_dropShadow_1_243"/>
<feBlend mode="normal" in="SourceGraphic" in2="effect1_dropShadow_1_243" result="shape"/>
</filter>
</defs>
</svg>
