<svg width="22" height="21" viewBox="0 0 22 21" fill="none" xmlns="http://www.w3.org/2000/svg">
<g clip-path="url(#clip0_1_294)">
<path d="M0.969788 10.3871C0.969788 4.74839 5.54075 0.177429 11.1795 0.177429C16.8182 0.177429 21.3891 4.74839 21.3891 10.3871C21.3891 16.0258 16.8182 20.5968 11.1795 20.5968C5.54075 20.5968 0.969788 16.0258 0.969788 10.3871Z" fill="#333333"/>
<path d="M9.13752 16.5129C9.67907 16.5129 10.1984 16.2978 10.5814 15.9148C10.9643 15.5319 11.1795 15.0125 11.1795 14.471V12.429H9.13752C8.59596 12.429 8.07659 12.6442 7.69365 13.0271C7.31071 13.4101 7.09558 13.9294 7.09558 14.471C7.09558 15.0125 7.31071 15.5319 7.69365 15.9148C8.07659 16.2978 8.59596 16.5129 9.13752 16.5129Z" fill="#0ACF83"/>
<path d="M7.09558 10.3871C7.09558 9.84556 7.31071 9.32619 7.69365 8.94325C8.07659 8.56032 8.59596 8.34518 9.13752 8.34518H11.1795V12.4291H9.13752C8.86937 12.4291 8.60384 12.3762 8.3561 12.2736C8.10836 12.171 7.88326 12.0206 7.69365 11.831C7.50404 11.6414 7.35363 11.4163 7.25101 11.1685C7.1484 10.9208 7.09558 10.6553 7.09558 10.3871Z" fill="#A259FF"/>
<path d="M7.09558 6.30326C7.09558 5.7617 7.31071 5.24233 7.69365 4.85939C8.07659 4.47645 8.59596 4.26132 9.13752 4.26132H11.1795V8.34519H9.13752C8.59596 8.34519 8.07659 8.13006 7.69365 7.74712C7.31071 7.36419 7.09558 6.84481 7.09558 6.30326Z" fill="#F24E1E"/>
<path d="M11.1794 4.26132H13.2214C13.7629 4.26132 14.2823 4.47645 14.6652 4.85939C15.0482 5.24233 15.2633 5.7617 15.2633 6.30326C15.2633 6.84481 15.0482 7.36419 14.6652 7.74712C14.2823 8.13006 13.7629 8.34519 13.2214 8.34519H11.1794V4.26132Z" fill="#FF7262"/>
<path d="M15.2633 10.3871C15.2633 10.9287 15.0482 11.448 14.6652 11.831C14.2823 12.2139 13.7629 12.4291 13.2214 12.4291C12.6798 12.4291 12.1604 12.2139 11.7775 11.831C11.3946 11.448 11.1794 10.9287 11.1794 10.3871C11.1794 9.84556 11.3946 9.32619 11.7775 8.94325C12.1604 8.56032 12.6798 8.34518 13.2214 8.34518C13.7629 8.34518 14.2823 8.56032 14.6652 8.94325C15.0482 9.32619 15.2633 9.84556 15.2633 10.3871Z" fill="#1ABCFE"/>
</g>
<defs>
<clipPath id="clip0_1_294">
<rect width="20.4194" height="20.4194" fill="white" transform="translate(0.969788 0.177429)"/>
</clipPath>
</defs>
</svg>
