<svg width="30" height="30" viewBox="0 0 30 30" fill="none" xmlns="http://www.w3.org/2000/svg">
<path d="M7.69531 23.9062C7.59115 24.0234 7.46094 24.0039 7.30469 23.8477C7.13542 23.7044 7.10938 23.5807 7.22656 23.4766C7.33073 23.3594 7.46094 23.3789 7.61719 23.5352C7.77344 23.6784 7.79948 23.8021 7.69531 23.9062ZM6.875 22.7148C6.99219 22.8711 6.99219 22.9948 6.875 23.0859C6.77083 23.1641 6.66016 23.1185 6.54297 22.9492C6.42578 22.7799 6.42578 22.6628 6.54297 22.5977C6.66016 22.5065 6.77083 22.5456 6.875 22.7148ZM5.68359 21.543C5.61849 21.6341 5.53385 21.6471 5.42969 21.582C5.29948 21.5169 5.25391 21.4388 5.29297 21.3477C5.33203 21.2826 5.41667 21.2695 5.54688 21.3086C5.67708 21.3737 5.72266 21.4518 5.68359 21.543ZM6.28906 22.207C6.21094 22.2982 6.10677 22.2786 5.97656 22.1484C5.85938 22.0052 5.84635 21.901 5.9375 21.8359C6.01562 21.7578 6.11979 21.7773 6.25 21.8945C6.36719 22.0378 6.38021 22.1419 6.28906 22.207ZM8.80859 24.3945C8.75651 24.5508 8.63281 24.5898 8.4375 24.5117C8.21615 24.4596 8.13151 24.362 8.18359 24.2188C8.23568 24.0755 8.35938 24.0299 8.55469 24.082C8.76302 24.1471 8.84766 24.2513 8.80859 24.3945ZM10.0391 24.4922C10.0391 24.6354 9.9349 24.707 9.72656 24.707C9.50521 24.7331 9.39453 24.6615 9.39453 24.4922C9.39453 24.349 9.4987 24.2773 9.70703 24.2773C9.92839 24.2513 10.0391 24.3229 10.0391 24.4922ZM11.1719 24.2969C11.1979 24.4271 11.1068 24.5182 10.8984 24.5703C10.6901 24.6224 10.5729 24.5703 10.5469 24.4141C10.5208 24.2578 10.612 24.1602 10.8203 24.1211C11.0286 24.0951 11.1458 24.1536 11.1719 24.2969ZM30 5.625V24.375C30 25.9245 29.4499 27.2493 28.3496 28.3496C27.2493 29.4499 25.9245 30 24.375 30H20C19.7917 30 19.6322 29.9935 19.5215 29.9805C19.4108 29.9674 19.2839 29.9349 19.1406 29.8828C18.9974 29.8307 18.8932 29.7363 18.8281 29.5996C18.763 29.4629 18.7305 29.2839 18.7305 29.0625V24.3945C18.7305 23.1315 18.3919 22.207 17.7148 21.6211C18.457 21.543 19.1243 21.4258 19.7168 21.2695C20.3092 21.1133 20.9212 20.8594 21.5527 20.5078C22.1842 20.1562 22.7116 19.7233 23.1348 19.209C23.5579 18.6947 23.903 18.0111 24.1699 17.1582C24.4368 16.3053 24.5703 15.3255 24.5703 14.2188C24.5703 12.6432 24.056 11.3021 23.0273 10.1953C23.5091 9.01042 23.457 7.68229 22.8711 6.21094C22.5065 6.09375 21.9792 6.16536 21.2891 6.42578C20.599 6.6862 20 6.97266 19.4922 7.28516L18.75 7.75391C17.5391 7.41536 16.2891 7.24609 15 7.24609C13.7109 7.24609 12.4609 7.41536 11.25 7.75391C11.0417 7.61068 10.765 7.4349 10.4199 7.22656C10.0749 7.01823 9.53125 6.76758 8.78906 6.47461C8.04688 6.18164 7.48698 6.09375 7.10938 6.21094C6.53646 7.68229 6.49089 9.01042 6.97266 10.1953C5.94401 11.3021 5.42969 12.6432 5.42969 14.2188C5.42969 15.3255 5.56315 16.3021 5.83008 17.1484C6.09701 17.9948 6.4388 18.6784 6.85547 19.1992C7.27214 19.7201 7.79622 20.1562 8.42773 20.5078C9.05925 20.8594 9.67122 21.1133 10.2637 21.2695C10.8561 21.4258 11.5234 21.543 12.2656 21.6211C11.7448 22.0898 11.4258 22.7604 11.3086 23.6328C11.0352 23.763 10.7422 23.8607 10.4297 23.9258C10.1172 23.9909 9.74609 24.0234 9.31641 24.0234C8.88672 24.0234 8.46029 23.8835 8.03711 23.6035C7.61393 23.3236 7.2526 22.9167 6.95312 22.3828C6.70573 21.9661 6.38997 21.6276 6.00586 21.3672C5.62174 21.1068 5.29948 20.9505 5.03906 20.8984L4.64844 20.8398C4.375 20.8398 4.1862 20.8691 4.08203 20.9277C3.97786 20.9863 3.94531 21.0612 3.98438 21.1523C4.02344 21.2435 4.08203 21.3346 4.16016 21.4258C4.23828 21.5169 4.32292 21.5951 4.41406 21.6602L4.55078 21.7578C4.83724 21.888 5.12044 22.1354 5.40039 22.5C5.68034 22.8646 5.88542 23.1966 6.01562 23.4961L6.21094 23.9453C6.38021 24.4401 6.66667 24.8405 7.07031 25.1465C7.47396 25.4525 7.91016 25.6478 8.37891 25.7324C8.84766 25.8171 9.30013 25.8626 9.73633 25.8691C10.1725 25.8757 10.5339 25.8529 10.8203 25.8008L11.2695 25.7227C11.2695 26.2174 11.2728 26.888 11.2793 27.7344C11.2858 28.5807 11.2891 29.0234 11.2891 29.0625C11.2891 29.349 11.2174 29.5671 11.0742 29.7168C10.931 29.8665 10.7878 29.9512 10.6445 29.9707C10.5013 29.9902 10.2865 30 10 30H5.625C4.07552 30 2.75065 29.4499 1.65039 28.3496C0.55013 27.2493 0 25.9245 0 24.375V5.625C0 4.07552 0.55013 2.75065 1.65039 1.65039C2.75065 0.55013 4.07552 0 5.625 0H24.375C25.9245 0 27.2493 0.55013 28.3496 1.65039C29.4499 2.75065 30 4.07552 30 5.625Z" fill="black"/>
</svg>
