<svg width="35" height="35" viewBox="0 0 35 35" fill="none" xmlns="http://www.w3.org/2000/svg">
<g clip-path="url(#clip0_29_628)">
<path d="M0 35H35V0H0V35ZM28.8517 27.1673C28.4798 25.7658 25.569 25.4392 23.5783 23.9517C21.5658 22.5954 21.086 19.3142 22.7485 17.4315C23.3173 16.7315 24.2565 16.2065 25.2423 15.9658L26.2704 15.836C28.261 15.7908 29.4846 16.3158 30.4033 17.344C30.6688 17.605 30.8642 17.869 31.2579 18.4815C30.2065 19.1363 30.2065 19.1363 28.6985 20.1221C28.369 19.4221 27.844 18.9846 27.2752 18.8096C26.4002 18.5471 25.2846 18.83 25.0658 19.7721C24.9798 20.0565 25.0002 20.319 25.1329 20.8002C25.4873 21.6096 26.6802 21.9596 27.7535 22.4627C30.8379 23.714 31.8777 25.0556 32.1329 26.6525L32.0658 26.5548C32.3079 27.9329 32.0002 28.8298 31.9579 28.961C30.819 32.8548 24.4752 32.986 21.9377 30.4252C21.4127 29.8127 21.0627 29.5079 20.7565 28.8079L23.4252 27.2752C24.1471 28.369 24.8019 28.961 25.9846 29.2235C27.5829 29.4204 29.2017 28.8735 28.8517 27.1673ZM11.8606 27.6733C11.8854 27.6733 11.954 27.806 12.0458 27.9592C12.3856 28.5265 12.6788 28.9202 13.2563 29.206C13.8192 29.3825 15.0588 29.5108 15.54 28.506C15.8331 27.9985 15.7413 26.3492 15.7413 24.5525C15.7413 21.7219 15.7544 18.9131 15.7544 16.0869H19.0327L19.0269 16.1685C19.0269 19.1873 19.0444 22.1842 19.0269 25.1796C19.0342 27.0404 19.1917 28.7029 18.4479 30.0592C17.9331 31.1092 16.9487 31.7873 15.8069 32.1169C14.0525 32.5106 12.3769 32.27 11.13 31.5263C10.2929 31.0231 9.64396 30.2327 9.19917 29.314L11.8606 27.6733Z" fill="black"/>
</g>
<defs>
<clipPath id="clip0_29_628">
<rect width="35" height="35" fill="white"/>
</clipPath>
</defs>
</svg>
