<svg width="30" height="30" viewBox="0 0 30 30" fill="none" xmlns="http://www.w3.org/2000/svg">
<path d="M0 3.48484C0 2.47472 0.337847 1.64139 1.01351 0.984847C1.68918 0.328272 2.56758 0 3.64865 0C4.71043 0 5.56949 0.323212 6.22587 0.969695C6.90153 1.63636 7.23938 2.50503 7.23938 3.57575C7.23938 4.54545 6.91121 5.35351 6.25483 5.99999C5.57916 6.66666 4.69112 6.99999 3.59073 6.99999H3.56178C2.49999 6.99999 1.64094 6.66666 0.984556 5.99999C0.328176 5.33332 0 4.49493 0 3.48484ZM0.376448 30V9.75756H6.80502V30H0.376448ZM10.3668 30H16.7954V18.6969C16.7954 17.9898 16.8726 17.4444 17.027 17.0606C17.2973 16.3737 17.7075 15.7929 18.2577 15.3182C18.8079 14.8434 19.4981 14.606 20.3282 14.606C22.4904 14.606 23.5714 16.1313 23.5714 19.1818V30H30V18.3939C30 15.404 29.3243 13.1363 27.973 11.5909C26.6216 10.0454 24.8359 9.27271 22.6158 9.27271C20.1255 9.27271 18.1853 10.3939 16.7954 12.6363V12.6969H16.7664L16.7954 12.6363V9.75756H10.3668C10.4054 10.404 10.4247 12.4141 10.4247 15.7879C10.4247 19.1616 10.4054 23.8989 10.3668 30Z" fill="black"/>
</svg>
