<svg width="32" height="32" viewBox="0 0 32 32" fill="none" xmlns="http://www.w3.org/2000/svg">
<path d="M16 14.81L28.78 6.6C28.2662 6.21461 27.6422 6.0043 27 6H4.99997C4.35771 6.0043 3.73378 6.21461 3.21997 6.6L16 14.81Z" fill="#231F20"/>
<path d="M16.54 16.84L16.37 16.92H16.29C16.1979 16.9611 16.1001 16.9881 16 17C15.917 17.0105 15.833 17.0105 15.75 17H15.67L15.5 16.92L2.1 8.26001C2.03598 8.50155 2.00238 8.75014 2 9.00001V23C2 23.7957 2.31607 24.5587 2.87868 25.1213C3.44129 25.6839 4.20435 26 5 26H27C27.7956 26 28.5587 25.6839 29.1213 25.1213C29.6839 24.5587 30 23.7957 30 23V9.00001C29.9976 8.75014 29.964 8.50155 29.9 8.26001L16.54 16.84Z" fill="#231F20"/>
</svg>
