<svg width="32" height="34" viewBox="0 0 32 34" fill="none" xmlns="http://www.w3.org/2000/svg">
<path d="M15.7432 33.75C15.2627 33.7494 14.7913 33.6297 14.3788 33.4035L10.0323 30.9597C9.38314 30.616 9.70233 30.4924 9.91397 30.4217C10.7806 30.1369 11.0389 29.9955 11.9604 29.4962C12.0593 29.446 12.1857 29.4643 12.2848 29.5205L15.5423 31.2911C15.6634 31.3552 15.8341 31.3552 15.9468 31.2911L28.6771 24.3418C28.7981 24.2757 28.8752 24.1425 28.8752 24.0072V9.93433C28.8752 9.79496 28.7981 9.66373 28.6743 9.59321L15.9496 2.46111C15.8283 2.39376 15.669 2.39376 15.5478 2.46111L2.83139 9.5957C2.70473 9.66372 2.625 9.79895 2.625 9.93433V24.0072C2.625 24.1438 2.70473 24.2719 2.82852 24.3379L6.10395 26.1438C8.0407 27.0632 9.1875 26.131 9.1875 25.0431V11.2042C9.1875 11.0044 9.35542 10.8481 9.56452 10.8481H11.4356C11.6419 10.8481 11.8127 11.0042 11.8127 11.2042V25.043C11.8127 27.4962 10.2251 28.9038 7.77681 28.9038C7.02573 28.9038 6.43174 28.9038 4.7784 28.1294L1.36721 26.2625C0.522621 25.7991 0 24.9332 0 24.0059V9.73258C0 8.80476 0.522621 7.94082 1.36705 7.47879L14.3842 0.332227C15.2067 -0.110742 16.3016 -0.110742 17.1184 0.332227L30.1327 7.47879C30.9775 7.94202 31.5 8.80657 31.5 9.73258V24.0059C31.5 24.9332 30.9775 25.7951 30.1327 26.2624L17.1184 33.4022C16.7044 33.6293 16.231 33.749 15.7487 33.7486L15.7432 33.75Z" fill="black"/>
<path d="M19.7649 24.107C14.4649 24.107 12.8738 21.7257 12.8738 19.6419C12.8738 19.4438 13.0418 19.2856 13.248 19.2856H14.9314C15.1186 19.2856 15.2781 19.4137 15.3056 19.5881C15.5586 21.2155 16.6795 21.9348 19.7619 21.9348C22.5016 21.9348 23.6248 21.1554 23.6248 19.7739C23.6248 18.976 23.3407 18.386 19.0797 17.9887C15.5173 17.6542 13.3139 16.9059 13.3139 14.1997C13.3139 11.7035 15.5284 10.2454 19.2393 10.2454C23.0233 10.2454 25.5116 11.3001 25.734 14.0746C25.7424 14.1753 25.7038 14.2727 25.6322 14.3491C25.5607 14.4218 25.4617 14.4642 25.3571 14.4642H23.668C23.492 14.4642 23.3379 14.3465 23.3022 14.1845C22.9412 12.9073 21.9102 12.4215 19.2365 12.4215C16.2435 12.4215 15.8941 13.3822 15.8941 14.1246C15.8941 15.0258 16.3068 15.2878 20.3479 15.7949C24.3478 16.2968 26.2486 17.0091 26.2486 19.6785C26.2486 22.3741 23.8855 24.107 19.762 24.107L19.7649 24.107Z" fill="black"/>
</svg>
