<svg width="35" height="35" viewBox="0 0 35 35" fill="none" xmlns="http://www.w3.org/2000/svg">
<path d="M17.5 25.0002C9.01688 25.0002 0 22.3709 0 17.5C0 12.6292 9.01688 9.99982 17.5 9.99982C25.9831 9.99982 35 12.6292 35 17.5C35 22.3709 25.9831 25.0002 17.5 25.0002ZM17.5 12.1873C8.73542 12.1873 2.1875 14.9917 2.1875 17.5C2.1875 20.0084 8.73542 22.8127 17.5 22.8127C26.2646 22.8127 32.8125 20.0084 32.8125 17.5C32.8125 14.9917 26.2646 12.1873 17.5 12.1873Z" fill="black"/>
<path d="M11.3371 33.5388C10.5773 33.5388 9.88172 33.3521 9.28526 32.9802C5.14651 30.4106 7.4886 21.054 11.7921 13.5567C15.4205 7.23335 20.128 2.5521 23.784 1.63043C25.0571 1.30814 26.218 1.44376 27.1426 2.01981C31.2813 4.58939 28.9392 13.9461 24.6357 21.4433C21.0088 27.7667 16.3013 32.4465 12.6438 33.3696C12.1917 33.4833 11.7542 33.5388 11.3371 33.5388ZM25.0921 3.64585C24.8559 3.64585 24.5978 3.68085 24.3178 3.75231C21.7701 4.39397 17.4942 8.01064 13.688 14.6446C9.20943 22.4496 8.27901 29.7821 10.4373 31.1238C10.8515 31.3819 11.413 31.4242 12.1071 31.2477C14.6563 30.6061 18.9307 26.9879 22.7369 20.3554C27.2169 12.5504 28.1473 5.21793 25.9876 3.87626C25.7396 3.72314 25.4407 3.64585 25.0921 3.64585Z" fill="black"/>
<path d="M23.6628 33.5388C23.2457 33.5388 22.8082 33.4833 22.3562 33.3696C18.6987 32.4465 13.9912 27.7667 10.3643 21.4433C6.06073 13.9446 3.71865 4.58793 7.85886 2.01981C8.78053 1.44376 9.94282 1.30814 11.2159 1.63043C14.872 2.5521 19.5795 7.23335 23.2078 13.5567C27.5114 21.0554 29.8534 30.4121 25.7147 32.9802C25.1182 33.3521 24.4241 33.5388 23.6628 33.5388ZM9.90782 3.64585C9.55928 3.64585 9.26032 3.72314 9.0124 3.87626C6.85115 5.21793 7.78157 12.5504 12.2616 20.3554C16.0678 26.9879 20.3437 30.6046 22.8914 31.2477C23.587 31.4242 24.1455 31.3819 24.5611 31.1238C26.7209 29.7821 25.7905 22.4496 21.3105 14.6446C17.5043 8.01064 13.2284 4.39543 10.6807 3.75231C10.4022 3.68085 10.1441 3.64585 9.90782 3.64585Z" fill="black"/>
<path d="M17.5001 21.1459C15.4905 21.1459 13.8542 19.5111 13.8542 17.5C13.8542 15.489 15.4905 13.8542 17.5001 13.8542C19.5097 13.8542 21.1459 15.489 21.1459 17.5C21.1459 19.5111 19.5097 21.1459 17.5001 21.1459ZM17.5001 16.0417C16.6965 16.0417 16.0417 16.695 16.0417 17.5C16.0417 18.305 16.6965 18.9584 17.5001 18.9584C18.3036 18.9584 18.9584 18.305 18.9584 17.5C18.9584 16.695 18.3036 16.0417 17.5001 16.0417Z" fill="black"/>
</svg>
