<svg width="188" height="36" viewBox="0 0 188 36" fill="none" xmlns="http://www.w3.org/2000/svg">
<path d="M51.5 25.0002C43.0169 25.0002 34 22.3709 34 17.5C34 12.6292 43.0169 9.99982 51.5 9.99982C59.9831 9.99982 69 12.6292 69 17.5C69 22.3709 59.9831 25.0002 51.5 25.0002ZM51.5 12.1873C42.7354 12.1873 36.1875 14.9917 36.1875 17.5C36.1875 20.0084 42.7354 22.8127 51.5 22.8127C60.2646 22.8127 66.8125 20.0084 66.8125 17.5C66.8125 14.9917 60.2646 12.1873 51.5 12.1873Z" fill="black"/>
<path d="M45.3371 33.5388C44.5773 33.5388 43.8817 33.3521 43.2853 32.9802C39.1465 30.4106 41.4886 21.054 45.7921 13.5567C49.4205 7.23335 54.128 2.5521 57.784 1.63043C59.0571 1.30814 60.218 1.44376 61.1426 2.01981C65.2813 4.58939 62.9392 13.9461 58.6357 21.4433C55.0088 27.7667 50.3013 32.4465 46.6438 33.3696C46.1917 33.4833 45.7542 33.5388 45.3371 33.5388ZM59.0921 3.64585C58.8559 3.64585 58.5978 3.68085 58.3178 3.75231C55.7701 4.39397 51.4942 8.01064 47.688 14.6446C43.2094 22.4496 42.279 29.7821 44.4373 31.1238C44.8515 31.3819 45.413 31.4242 46.1071 31.2477C48.6563 30.6061 52.9307 26.9879 56.7369 20.3554C61.2169 12.5504 62.1473 5.21793 59.9876 3.87626C59.7396 3.72314 59.4407 3.64585 59.0921 3.64585Z" fill="black"/>
<path d="M57.6628 33.5388C57.2457 33.5388 56.8082 33.4833 56.3562 33.3696C52.6987 32.4465 47.9912 27.7667 44.3643 21.4433C40.0607 13.9446 37.7187 4.58793 41.8589 2.01981C42.7805 1.44376 43.9428 1.30814 45.2159 1.63043C48.872 2.5521 53.5795 7.23335 57.2078 13.5567C61.5114 21.0554 63.8534 30.4121 59.7147 32.9802C59.1182 33.3521 58.4241 33.5388 57.6628 33.5388ZM43.9078 3.64585C43.5593 3.64585 43.2603 3.72314 43.0124 3.87626C40.8512 5.21793 41.7816 12.5504 46.2616 20.3554C50.0678 26.9879 54.3437 30.6046 56.8914 31.2477C57.587 31.4242 58.1455 31.3819 58.5611 31.1238C60.7209 29.7821 59.7905 22.4496 55.3105 14.6446C51.5043 8.01064 47.2284 4.39543 44.6807 3.75231C44.4022 3.68085 44.1441 3.64585 43.9078 3.64585Z" fill="black"/>
<path d="M51.5001 21.1459C49.4905 21.1459 47.8542 19.5111 47.8542 17.5C47.8542 15.489 49.4905 13.8542 51.5001 13.8542C53.5097 13.8542 55.1459 15.489 55.1459 17.5C55.1459 19.5111 53.5097 21.1459 51.5001 21.1459ZM51.5001 16.0417C50.6965 16.0417 50.0417 16.695 50.0417 17.5C50.0417 18.305 50.6965 18.9584 51.5001 18.9584C52.3036 18.9584 52.9584 18.305 52.9584 17.5C52.9584 16.695 52.3036 16.0417 51.5001 16.0417Z" fill="black"/>
<path d="M15.7432 34.75C15.2627 34.7494 14.7913 34.6297 14.3788 34.4035L10.0323 31.9597C9.38314 31.616 9.70233 31.4924 9.91397 31.4217C10.7806 31.1369 11.0389 30.9955 11.9604 30.4962C12.0593 30.446 12.1857 30.4643 12.2848 30.5205L15.5423 32.2911C15.6634 32.3552 15.8341 32.3552 15.9468 32.2911L28.6771 25.3418C28.7981 25.2757 28.8752 25.1425 28.8752 25.0072V10.9343C28.8752 10.795 28.7981 10.6637 28.6743 10.5932L15.9496 3.46111C15.8283 3.39376 15.669 3.39376 15.5478 3.46111L2.83139 10.5957C2.70473 10.6637 2.625 10.799 2.625 10.9343V25.0072C2.625 25.1438 2.70473 25.2719 2.82852 25.3379L6.10395 27.1438C8.0407 28.0632 9.1875 27.131 9.1875 26.0431V12.2042C9.1875 12.0044 9.35542 11.8481 9.56452 11.8481H11.4356C11.6419 11.8481 11.8127 12.0042 11.8127 12.2042V26.043C11.8127 28.4962 10.2251 29.9038 7.77681 29.9038C7.02573 29.9038 6.43174 29.9038 4.7784 29.1294L1.36721 27.2625C0.522621 26.7991 0 25.9332 0 25.0059V10.7326C0 9.80476 0.522621 8.94082 1.36705 8.47879L14.3842 1.33223C15.2067 0.889258 16.3016 0.889258 17.1184 1.33223L30.1327 8.47879C30.9775 8.94202 31.5 9.80657 31.5 10.7326V25.0059C31.5 25.9332 30.9775 26.7951 30.1327 27.2624L17.1184 34.4022C16.7044 34.6293 16.231 34.749 15.7487 34.7486L15.7432 34.75Z" fill="black"/>
<path d="M19.7649 25.107C14.4649 25.107 12.8738 22.7257 12.8738 20.6419C12.8738 20.4438 13.0418 20.2856 13.248 20.2856H14.9314C15.1186 20.2856 15.2781 20.4137 15.3056 20.5881C15.5586 22.2155 16.6795 22.9348 19.7619 22.9348C22.5016 22.9348 23.6248 22.1554 23.6248 20.7739C23.6248 19.976 23.3407 19.386 19.0797 18.9887C15.5173 18.6542 13.3139 17.9059 13.3139 15.1997C13.3139 12.7035 15.5284 11.2454 19.2393 11.2454C23.0233 11.2454 25.5116 12.3001 25.734 15.0746C25.7424 15.1753 25.7038 15.2727 25.6322 15.3491C25.5607 15.4218 25.4617 15.4642 25.3571 15.4642H23.668C23.492 15.4642 23.3379 15.3465 23.3022 15.1845C22.9412 13.9073 21.9102 13.4215 19.2365 13.4215C16.2435 13.4215 15.8941 14.3822 15.8941 15.1246C15.8941 16.0258 16.3068 16.2878 20.3479 16.7949C24.3478 17.2968 26.2486 18.0091 26.2486 20.6785C26.2486 23.3741 23.8855 25.107 19.762 25.107L19.7649 25.107Z" fill="black"/>
<path d="M95.295 3.56246H95.0697L93.8367 3.56237L89.9818 3.56352L86.5193 9.3326L83.0433 3.56352L79.1846 3.56206L72.313 3.56152L70.2139 3.56219L86.5424 31.4384L102.786 3.56269L95.295 3.56246ZM86.5366 25.6563L75.303 6.47823H79.4208L86.5457 18.7386L93.614 6.47823H97.711L86.5366 25.6563Z" fill="black"/>
<g clip-path="url(#clip0_29_653)">
<path d="M153 36H188V1H153V36ZM181.852 28.1673C181.48 26.7658 178.569 26.4392 176.578 24.9517C174.566 23.5954 174.086 20.3142 175.749 18.4315C176.317 17.7315 177.256 17.2065 178.242 16.9658L179.27 16.836C181.261 16.7908 182.485 17.3158 183.403 18.344C183.669 18.605 183.864 18.869 184.258 19.4815C183.206 20.1363 183.206 20.1363 181.699 21.1221C181.369 20.4221 180.844 19.9846 180.275 19.8096C179.4 19.5471 178.285 19.83 178.066 20.7721C177.98 21.0565 178 21.319 178.133 21.8002C178.487 22.6096 179.68 22.9596 180.754 23.4627C183.838 24.714 184.878 26.0556 185.133 27.6525L185.066 27.5548C185.308 28.9329 185 29.8298 184.958 29.961C183.819 33.8548 177.475 33.986 174.938 31.4252C174.413 30.8127 174.063 30.5079 173.756 29.8079L176.425 28.2752C177.147 29.369 177.802 29.961 178.985 30.2235C180.583 30.4204 182.202 29.8735 181.852 28.1673ZM164.861 28.6733C164.885 28.6733 164.954 28.806 165.046 28.9592C165.386 29.5265 165.679 29.9202 166.256 30.206C166.819 30.3825 168.059 30.5108 168.54 29.506C168.833 28.9985 168.741 27.3492 168.741 25.5525C168.741 22.7219 168.754 19.9131 168.754 17.0869H172.033L172.027 17.1685C172.027 20.1873 172.044 23.1842 172.027 26.1796C172.034 28.0404 172.192 29.7029 171.448 31.0592C170.933 32.1092 169.949 32.7873 168.807 33.1169C167.052 33.5106 165.377 33.27 164.13 32.5263C163.293 32.0231 162.644 31.2327 162.199 30.314L164.861 28.6733Z" fill="black"/>
</g>
<g clip-path="url(#clip1_29_653)">
<path d="M127.542 1L108 21.4167V36L143 1H127.542Z" fill="black"/>
<path d="M108 1V19.2292L125.5 1H108Z" fill="black"/>
<path d="M126.375 19.2292L109.896 36H143L126.375 19.2292Z" fill="black"/>
</g>
<defs>
<clipPath id="clip0_29_653">
<rect width="35" height="35" fill="white" transform="translate(153 1)"/>
</clipPath>
<clipPath id="clip1_29_653">
<rect width="35" height="35" fill="white" transform="translate(108 1)"/>
</clipPath>
</defs>
</svg>
