<svg width="21" height="21" viewBox="0 0 21 21" fill="none" xmlns="http://www.w3.org/2000/svg">
<path d="M5.38292 16.4491C5.31202 16.5289 5.22339 16.5156 5.11704 16.4092C5.00183 16.3117 4.9841 16.2275 5.06387 16.1566C5.13477 16.0769 5.22339 16.0902 5.32974 16.1965C5.43609 16.294 5.45382 16.3782 5.38292 16.4491ZM4.82458 15.6382C4.90434 15.7445 4.90434 15.8287 4.82458 15.8908C4.75368 15.9439 4.67835 15.9129 4.59858 15.7977C4.51882 15.6825 4.51882 15.6027 4.59858 15.5584C4.67835 15.4964 4.75368 15.523 4.82458 15.6382ZM4.01365 14.8405C3.96934 14.9026 3.91173 14.9114 3.84083 14.8671C3.75221 14.8228 3.72119 14.7696 3.74778 14.7076C3.77436 14.6633 3.83197 14.6544 3.9206 14.681C4.00922 14.7253 4.04024 14.7785 4.01365 14.8405ZM4.42576 15.2925C4.37259 15.3546 4.30169 15.3413 4.21306 15.2527C4.1333 15.1552 4.12443 15.0843 4.18647 15.04C4.23965 14.9868 4.31055 15.0001 4.39917 15.0798C4.47894 15.1773 4.4878 15.2482 4.42576 15.2925ZM6.14067 16.7815C6.10522 16.8878 6.02102 16.9144 5.88809 16.8612C5.73742 16.8258 5.67982 16.7593 5.71527 16.6618C5.75072 16.5643 5.83491 16.5333 5.96785 16.5687C6.10965 16.6131 6.16726 16.684 6.14067 16.7815ZM6.97818 16.8479C6.97818 16.9454 6.90728 16.9942 6.76548 16.9942C6.61482 17.0119 6.53948 16.9631 6.53948 16.8479C6.53948 16.7504 6.61039 16.7017 6.75219 16.7017C6.90285 16.684 6.97818 16.7327 6.97818 16.8479ZM7.74923 16.715C7.76695 16.8036 7.70491 16.8656 7.56311 16.9011C7.42131 16.9365 7.34155 16.9011 7.32382 16.7947C7.3061 16.6884 7.36813 16.6219 7.50994 16.5953C7.65174 16.5776 7.7315 16.6175 7.74923 16.715ZM20.5645 4.00606V16.7682C20.5645 17.8228 20.1901 18.7246 19.4412 19.4735C18.6923 20.2223 17.7905 20.5968 16.7359 20.5968H13.758C13.6162 20.5968 13.5077 20.5924 13.4323 20.5835C13.357 20.5746 13.2706 20.5525 13.1731 20.517C13.0756 20.4816 13.0047 20.4173 12.9604 20.3243C12.9161 20.2312 12.8939 20.1093 12.8939 19.9587V16.7815C12.8939 15.9218 12.6635 15.2925 12.2027 14.8937C12.7078 14.8405 13.162 14.7608 13.5653 14.6544C13.9685 14.5481 14.3851 14.3753 14.8149 14.136C15.2447 13.8967 15.6037 13.602 15.8917 13.2519C16.1797 12.9019 16.4146 12.4366 16.5963 11.8561C16.778 11.2756 16.8688 10.6087 16.8688 9.85535C16.8688 8.78298 16.5187 7.87014 15.8186 7.11682C16.1465 6.31033 16.1111 5.40634 15.7122 4.40487C15.4641 4.32511 15.1052 4.37386 14.6354 4.55111C14.1657 4.72836 13.758 4.92333 13.4124 5.13604L12.9072 5.45509C12.083 5.22466 11.2322 5.10945 10.3548 5.10945C9.47743 5.10945 8.62662 5.22466 7.8024 5.45509C7.6606 5.3576 7.47227 5.23796 7.23741 5.09615C7.00255 4.95435 6.63254 4.78375 6.12738 4.58434C5.62221 4.38493 5.24112 4.32511 4.9841 4.40487C4.59415 5.40634 4.56313 6.31033 4.89105 7.11682C4.1909 7.87014 3.84083 8.78298 3.84083 9.85535C3.84083 10.6087 3.93167 11.2734 4.11336 11.8494C4.29504 12.4255 4.52768 12.8908 4.81128 13.2453C5.09489 13.5998 5.4516 13.8967 5.88144 14.136C6.31127 14.3753 6.72781 14.5481 7.13106 14.6544C7.53431 14.7608 7.98851 14.8405 8.49368 14.8937C8.13918 15.2128 7.92205 15.6692 7.84228 16.263C7.65617 16.3516 7.45676 16.4181 7.24406 16.4624C7.03136 16.5067 6.77877 16.5289 6.48631 16.5289C6.19384 16.5289 5.9036 16.4336 5.61556 16.243C5.32753 16.0525 5.08159 15.7755 4.87775 15.4122C4.70936 15.1286 4.49445 14.8982 4.233 14.7209C3.97156 14.5437 3.75221 14.4373 3.57496 14.4019L3.30908 14.362C3.12296 14.362 2.99446 14.3819 2.92356 14.4218C2.85266 14.4617 2.8305 14.5126 2.85709 14.5747C2.88368 14.6367 2.92356 14.6987 2.97673 14.7608C3.02991 14.8228 3.08751 14.876 3.14955 14.9203L3.24261 14.9868C3.43759 15.0754 3.63035 15.2438 3.82089 15.4919C4.01144 15.7401 4.15102 15.9661 4.23965 16.1699L4.37259 16.4757C4.4878 16.8125 4.68278 17.085 4.95752 17.2933C5.23226 17.5015 5.52915 17.6345 5.8482 17.6921C6.16726 17.7497 6.47523 17.7807 6.77213 17.7851C7.06902 17.7896 7.31496 17.7741 7.50994 17.7386L7.81569 17.6854C7.81569 18.0222 7.81791 18.4786 7.82234 19.0547C7.82677 19.6308 7.82899 19.9321 7.82899 19.9587C7.82899 20.1537 7.78024 20.3021 7.68276 20.404C7.58527 20.5059 7.48778 20.5636 7.39029 20.5768C7.2928 20.5901 7.14657 20.5968 6.95159 20.5968H3.97377C2.91913 20.5968 2.01736 20.2223 1.26847 19.4735C0.519585 18.7246 0.145142 17.8228 0.145142 16.7682V4.00606C0.145142 2.95141 0.519585 2.04965 1.26847 1.30076C2.01736 0.551873 2.91913 0.177429 3.97377 0.177429H16.7359C17.7905 0.177429 18.6923 0.551873 19.4412 1.30076C20.1901 2.04965 20.5645 2.95141 20.5645 4.00606Z" fill="black"/>
</svg>
