<svg width="21" height="21" viewBox="0 0 21 21" fill="none" xmlns="http://www.w3.org/2000/svg">
<path d="M10.2782 0.177429C4.64849 0.177429 0.0685425 4.75738 0.0685425 10.3871C0.0685425 16.0168 4.64849 20.5968 10.2782 20.5968C15.908 20.5968 20.4879 16.0168 20.4879 10.3871C20.4879 4.75737 15.908 0.177429 10.2782 0.177429ZM14.6604 12.4466C14.7168 11.7673 14.7478 11.0772 14.7478 10.3871C14.7478 9.69698 14.7168 9.00693 14.6604 8.32758C17.175 8.87507 18.5118 9.81409 18.5118 10.3871C18.5118 10.9601 17.175 11.8991 14.6604 12.4466ZM10.2782 18.6207C9.70521 18.6207 8.76618 17.2839 8.21869 14.7693C8.89804 14.8257 9.58809 14.8567 10.2782 14.8567C10.9683 14.8567 11.6584 14.8257 12.3378 14.7693C11.7903 17.2839 10.8512 18.6207 10.2782 18.6207ZM10.2782 12.8807C9.42177 12.8807 8.63512 12.8345 7.90583 12.7595C7.83085 12.0302 7.78466 11.2436 7.78466 10.3871C7.78466 9.53066 7.83086 8.744 7.90583 8.01472C8.63512 7.93974 9.42177 7.89355 10.2782 7.89355C11.1347 7.89355 11.9213 7.93974 12.6506 8.01472C12.7256 8.74401 12.7718 9.53066 12.7718 10.3871C12.7718 11.2436 12.7256 12.0302 12.6506 12.7595C11.9213 12.8345 11.1347 12.8807 10.2782 12.8807ZM2.04461 10.3871C2.04461 9.81409 3.38144 8.87507 5.89608 8.32758C5.83959 9.00693 5.8086 9.69698 5.8086 10.3871C5.8086 11.0772 5.83959 11.7673 5.89608 12.4466C3.38144 11.8991 2.04461 10.9601 2.04461 10.3871ZM10.2782 2.1535C10.8512 2.1535 11.7903 3.49033 12.3378 6.00496C11.6584 5.94847 10.9683 5.91748 10.2782 5.91748C9.58809 5.91748 8.89804 5.94848 8.21869 6.00496C8.76618 3.49033 9.70521 2.1535 10.2782 2.1535ZM17.9151 7.32503C16.926 6.85751 15.713 6.50746 14.3932 6.27211C14.1579 4.95236 13.8078 3.73932 13.3403 2.75027C15.4194 3.58702 17.0783 5.24592 17.9151 7.32503ZM7.21615 2.75031C6.74862 3.73936 6.39858 4.9524 6.16323 6.27211C4.84352 6.50746 3.63047 6.85743 2.64143 7.32499C3.47817 5.24588 5.13708 3.58706 7.21615 2.75031ZM2.64147 13.4492C3.63051 13.9168 4.84352 14.2668 6.16323 14.5021C6.39858 15.8218 6.74854 17.0348 7.21611 18.0239C5.13708 17.1871 3.47821 15.5282 2.64147 13.4492ZM13.3403 18.0239C13.8079 17.0349 14.1579 15.8218 14.3932 14.5021C15.7129 14.2668 16.926 13.9167 17.915 13.4492C17.0783 15.5282 15.4194 17.1872 13.3403 18.0239Z" fill="black"/>
</svg>
