<svg width="24" height="24" viewBox="0 0 24 24" fill="none" xmlns="http://www.w3.org/2000/svg">
<path d="M12 2.25C6.624 2.25 2.25 6.624 2.25 12C2.25 17.376 6.624 21.75 12 21.75C17.376 21.75 21.75 17.376 21.75 12C21.75 6.624 17.376 2.25 12 2.25ZM18.892 7.477C17.756 7.729 16.605 7.917 15.448 8.043C15.204 6.5 14.815 5.111 14.28 4.082C16.191 4.634 17.822 5.852 18.892 7.477ZM14.25 12C14.25 12.844 14.209 13.621 14.144 14.342C12.717 14.251 11.284 14.251 9.856 14.342C9.79 13.621 9.75 12.845 9.75 12C9.75 11.161 9.79 10.39 9.855 9.672C10.569 9.72 11.284 9.75 12 9.75C12.716 9.75 13.431 9.72 14.145 9.672C14.21 10.389 14.25 11.161 14.25 12ZM12 20.25C11.446 20.25 10.515 18.712 10.044 15.835C11.347 15.755 12.654 15.755 13.957 15.835C13.485 18.711 12.554 20.249 12.001 20.249L12 20.25ZM10.044 8.164C10.516 5.288 11.447 3.75 12 3.75C12.553 3.75 13.485 5.288 13.956 8.164C12.653 8.244 11.347 8.244 10.044 8.164ZM9.721 4.081C9.185 5.11 8.797 6.499 8.553 8.042C7.396 7.917 6.246 7.728 5.109 7.476C6.179 5.851 7.81 4.633 9.721 4.081ZM3.751 11.999C3.751 10.884 3.976 9.821 4.379 8.85C5.693 9.16 7.025 9.387 8.366 9.538C8.291 10.344 8.251 11.171 8.251 11.999C8.251 12.827 8.292 13.66 8.367 14.47C7.026 14.617 5.693 14.839 4.379 15.149C3.976 14.178 3.751 13.115 3.751 12V11.999ZM5.109 16.522C6.246 16.27 7.396 16.082 8.553 15.956C8.797 17.499 9.186 18.888 9.721 19.917C7.81 19.365 6.179 18.147 5.109 16.522ZM14.281 19.917C14.817 18.888 15.205 17.499 15.449 15.956C16.606 16.081 17.756 16.27 18.893 16.522C17.823 18.147 16.192 19.365 14.281 19.917ZM15.635 14.469C15.71 13.66 15.751 12.829 15.751 11.999C15.751 11.169 15.711 10.344 15.636 9.538C16.977 9.387 18.309 9.16 19.623 8.85C20.026 9.821 20.251 10.884 20.251 11.999C20.251 13.114 20.026 14.177 19.623 15.148C18.309 14.838 16.976 14.616 15.635 14.469Z" fill="black"/>
</svg>
